<svg clip-rule="evenodd" fill-rule="evenodd" height="2in" image-rendering="optimizeQuality" shape-rendering="geometricPrecision" text-rendering="geometricPrecision" viewBox="0 0 2000 2000" width="2in" xmlns="http://www.w3.org/2000/svg"><g id="Layer_x0020_1"><g id="_340898144"><path d="m1292 934c-2 0-4-1-6-1-4-2-8-4-10-8l-762 334c1 4 0 8-1 12-4 7-11 11-18 11-3 0-6 0-9-2-206-98-339-309-339-538 0-328 267-595 595-595 198 0 383 98 494 262 5 8 4 19-4 26 26 43 85 150 88 252 9 1 16 9 17 19 0 12 1 24 1 36 0 61-9 120-27 178-2 8-10 14-19 14z" fill="#ffbf18"/><path d="m473 1027c-8 0-16-6-19-15-23-84-34-174-34-270 0-334 141-595 322-595s323 261 323 595c0 60-5 119-14 175-2 11-12 18-23 17-5-1-10-4-13-9l-524 92c-2 4-7 8-12 9-2 1-4 1-6 1z" fill="#ffb218"/></g><g id="_340895912" fill="#ffa721"><g><path d="m199 498c6-14 13-27 20-40h995c11 0 20 9 20 20s-9 20-20 20z"/><path d="m447 498c3-14 7-27 11-40h569c4 13 7 26 10 40z"/></g><g><path d="m220 1027c-8-13-14-27-20-40h295c11 0 20 9 20 20s-9 20-20 20z"/><path d="m473 1027c-8 0-16-6-19-15-2-8-4-17-6-25h47c11 0 20 9 20 20 0 2-1 4-1 6l-23 4c-2 4-7 8-12 9-2 1-4 1-5 1z"/></g><g><path d="m722 147h20 20v767c0 11-9 20-20 20s-20-9-20-20z"/><path d="m722 148c7-1 13-1 20-1s14 0 20 1v766c0 11-9 20-20 20s-20-9-20-20z"/></g><g><path d="m147 762c0-6 0-13 0-20 0-6 0-13 0-20h1190c1 7 1 14 1 20 0 7 0 14-1 20z"/><path d="m420 762c0-6 0-13 0-20 0-6 0-13 0-20h645v20 20z"/></g></g><path d="m1524 806c-182 0-330-148-330-330 0-181 148-329 330-329 181 0 329 148 329 329 0 182-148 330-329 330z" fill="#1d81ce"/><path d="m1444 616c-5 0-10-2-14-6l-80-80c-7-8-7-20 0-28 8-8 21-8 29 0l65 65 224-224c8-8 21-8 29 0 7 8 7 20 0 28l-239 239c-4 4-9 6-14 6z" fill="#fff"/><g id="_340893248"><g><path d="m1838 1853h-1348c-9 0-16-8-16-17v-591c0-9 7-16 16-16h1348c9 0 16 7 16 16v591c0 9-7 17-16 17z" fill="#00ab94"/><path d="m1838 1109h-1348c-9 0-16-7-16-16v-182c0-9 7-17 16-17h1348c9 0 16 8 16 17v182c0 9-7 16-16 16z" fill="#00ab94"/><path d="m474 1093v-32h1380v32z" fill="#333"/><path d="m474 1276v-31h1380v31z" fill="#333"/><path d="m474 1245v-152h1380v152z" fill="#f5f5f5"/></g><path d="m1567 1758c-93 0-168-76-168-168 0-93 75-168 168-168 92 0 167 75 167 168 0 92-75 168-167 168z" fill="#007d6c"/><g fill="#fff"><path d="m1654 998h-544c-9 0-16-7-16-16s7-17 16-17h544c8 0 16 8 16 17s-8 16-16 16z"/><path d="m937 1670h-355c-9 0-17-7-17-16s8-16 17-16h355c9 0 16 7 16 16s-7 16-16 16z"/><path d="m937 1758h-355c-9 0-17-8-17-17s8-16 17-16h355c9 0 16 7 16 16s-7 17-16 17z"/></g><path d="m1567 1454c-75 0-136 61-136 136 0 74 61 135 136 135 74 0 135-61 135-135 0-75-61-136-135-136z" fill="#ffbf18"/><path d="m1278 1547h-283c-27 0-48-21-48-48v-121c0-27 21-48 48-48h283c27 0 49 21 49 48v120c0 27-22 49-49 49z" fill="#007d6c"/><path d="m1278 1515h-283c-9 0-16-7-16-16v-121c0-9 7-16 16-16h283c9 0 17 7 17 16v121c0 9-8 16-17 16z" fill="#fff"/></g></g></svg>