<svg id="Layer_1" enable-background="new 0 0 66 66" viewBox="0 0 66 66" xmlns="http://www.w3.org/2000/svg"><g><path d="m58.45 15.25h-18.76v8.05h-13.38v-8.05h-18.76c-3.24 0-5.87 2.63-5.87 5.87v6.09h62.65v-6.09c0-3.24-2.63-5.87-5.88-5.87z" fill="#544d80"/><path d="m1.67 27.22v28.7c0 3.24 2.63 5.87 5.87 5.87h50.9c3.24 0 5.87-2.63 5.87-5.87v-28.7z" fill="#81a0d3"/><path d="m29.02 37.46v14.1c0 1.62-1.31 2.94-2.94 2.94h-15.92c-1.62 0-2.94-1.31-2.94-2.94v-14.1c0-1.62 1.31-2.94 2.94-2.94h15.93c1.62 0 2.93 1.32 2.93 2.94z" fill="#544d80"/><path d="m55.87 41.6h-17.33c-1.61 0-2.91-1.3-2.91-2.91 0-1.61 1.3-2.91 2.91-2.91h17.33c1.61 0 2.91 1.3 2.91 2.91 0 1.61-1.3 2.91-2.91 2.91z" fill="#fff"/><path d="m55.87 53.23h-17.33c-1.61 0-2.91-1.3-2.91-2.91 0-1.61 1.3-2.91 2.91-2.91h17.33c1.61 0 2.91 1.3 2.91 2.91 0 1.61-1.3 2.91-2.91 2.91z" fill="#fff"/><path d="m37.73 6.17c-1.21-1.22-2.88-1.96-4.73-1.96-3.7 0-6.69 3-6.69 6.69v12.41h13.37v-12.41c.01-1.85-.74-3.52-1.95-4.73zm-4.73 7.58c-1.46 0-2.64-1.18-2.64-2.64s1.18-2.64 2.64-2.64 2.64 1.18 2.64 2.64-1.18 2.64-2.64 2.64z" fill="#ed7370"/><path d="m10.68 54.49c0-4.11 3.33-7.44 7.44-7.44s7.44 3.33 7.44 7.44z" fill="#fac372"/><g fill="#fff"><circle cx="18.12" cy="42.87" r="4.18"/><path d="m24.44 19.17c-1.14 0-2.07.93-2.07 2.07s.93 2.07 2.07 2.07h1.87v-4.13h-1.87z"/><path d="m41.56 19.17h-1.87v4.13h1.87c1.14 0 2.07-.93 2.07-2.07-.01-1.13-.93-2.06-2.07-2.06z"/></g></g></svg>