<svg id="Icons" height="512" viewBox="0 0 60 60" width="512" xmlns="http://www.w3.org/2000/svg"><circle cx="30" cy="30" fill="#e1ebef" r="29"/><path d="m35.97 30.63a6.007 6.007 0 1 1 -.78-3.64z" fill="#1b3b4f"/><path d="m55 30a24.9 24.9 0 0 1 -5.92 16.14 1.94 1.94 0 0 1 -2.84.1l-5.75-5.75a1.952 1.952 0 0 1 -.2-2.55 12.954 12.954 0 0 0 2.71-7.94 11.728 11.728 0 0 0 -.07-1.33l-.58-2.72a12.944 12.944 0 0 0 -3.16-5.14l3.81-5.81 4.67-2.67a24.9 24.9 0 0 1 7.33 17.67z" fill="#46d16a"/><path d="m47.67 12.33-8.48 8.48a12.95 12.95 0 0 0 -18.37.01l-5.82-2.82-2.67-5.67a24.963 24.963 0 0 1 35.34 0z" fill="#f3c637"/><path d="m19.67 37.89a1.953 1.953 0 0 1 -.14 2.58l-5.77 5.77a1.94 1.94 0 0 1 -2.84-.1 24.962 24.962 0 0 1 1.41-33.81l8.49 8.49a12.851 12.851 0 0 0 -3.7 7.38 13.006 13.006 0 0 0 2.55 9.69z" fill="#e23b58"/><path d="m29.647 28.03a2.023 2.023 0 0 0 -1.507 2.706 2.117 2.117 0 0 0 2.434 1.187c5.88-1.258 12.477-3.237 17.378-4.819a.908.908 0 0 0 -.382-1.77c-5.147.554-12.022 1.44-17.923 2.696z" fill="#294960"/><rect fill="#bdcdd1" height="5" rx="2" width="16" x="22" y="45"/></svg>