<svg height="512pt" viewBox="0 0 512 512" width="512pt" xmlns="http://www.w3.org/2000/svg"><path d="m256 0c-141.492188 0-256 114.496094-256 256 0 141.492188 114.496094 256 256 256 141.089844 0 256-114.324219 256-256 0-141.492188-114.496094-256-256-256zm0 0" fill="#7a86e8"/><path d="m256 0v512c141.089844 0 256-114.324219 256-256 0-141.492188-114.496094-256-256-256zm0 0" fill="#4b5add"/><g fill="#e1e4f9"><path d="m191.070312 291.15625c4.292969-7.085938 2.03125-16.3125-5.050781-20.605469-7.085937-4.292969-16.308593-2.03125-20.605469 5.054688-15.671874 25.863281-40.617187 52.304687-68.054687 62.503906-7.765625 2.886719-11.722656 11.523437-8.835937 19.289063 2.886718 7.765624 11.523437 11.71875 19.289062 8.832031 34.1875-12.707031 64.015625-43.320313 83.257812-75.074219zm0 0"/><path d="m184.976562 232.078125c-2.464843 7.910156 1.949219 16.320313 9.859376 18.78125 7.910156 2.464844 16.320312-1.953125 18.78125-9.859375 16.761718-53.820312 102.628906-35.320312 85.113281 29.554688-12.074219 44.738281-49.992188 103.621093-96.601563 150.015624-5.871094 5.84375-5.894531 15.34375-.050781 21.214844 5.84375 5.867188 15.339844 5.894532 21.214844.046875 50.070312-49.839843 91.054687-114.003906 104.402343-163.457031 9.003907-33.351562-1.347656-56.339844-11.621093-69.746094-36.226563-47.308594-112.746094-35.484375-131.097657 23.449219zm0 0"/><path d="m411.34375 135.664062c-78.367188-102.328124-235.042969-101.992187-312.21875 3.546876-17.957031 24.558593-26.761719 54.410156-33.980469 69.371093-3.597656 7.460938-.464843 16.425781 6.996094 20.027344 7.460937 3.597656 16.425781.464844 20.027344-6.996094 13.226562-27.425781 19.625-65.796875 66.976562-100.414062 114.542969-83.75 282.21875 6.667969 259.414063 160.265625-1.214844 8.191406 4.441406 15.820312 12.636718 17.039062 8.171876 1.21875 15.820313-4.421875 17.039063-12.636718 8.742187-58.875-5.839844-109.660157-36.890625-150.203126zm0 0"/><path d="m323.328125 389.726562c-6.9375-4.535156-16.230469-2.585937-20.761719 4.347657-6.492187 9.933593-13.246094 19.847656-20.644531 30.3125-7.050781 9.972656.183594 23.660156 12.234375 23.660156 4.703125 0 9.335938-2.207031 12.261719-6.339844 7.609375-10.769531 14.566406-20.980469 21.257812-31.21875 4.53125-6.933593 2.585938-16.230469-4.347656-20.761719zm0 0"/><path d="m329.890625 140.988281c-6.960937-4.492187-16.246094-2.488281-20.734375 4.476563-4.492188 6.960937-2.484375 16.246094 4.476562 20.734375 31.265626 20.164062 48.964844 54.78125 47.347657 92.601562-.367188 8.503907 6.417969 15.644531 14.996093 15.644531 7.988282 0 14.628907-6.300781 14.976563-14.359374 2.074219-48.578126-20.75-93.097657-61.0625-119.097657zm0 0"/><path d="m227.617188 153.4375c14.160156-4.054688 29.046874-5.085938 43.648437-3.027344 8.199219 1.15625 15.792969-4.550781 16.953125-12.753906 1.15625-8.203125-4.554688-15.792969-12.757812-16.949219-18.074219-2.554687-37.246094-1.511719-56.105469 3.890625-7.964844 2.28125-12.570313 10.589844-10.289063 18.550782 2.28125 7.96875 10.589844 12.570312 18.550782 10.289062zm0 0"/><path d="m156.335938 223.140625c5.859374-18.898437 16.875-35.664063 31.851562-48.488281 6.292969-5.390625 7.023438-14.859375 1.636719-21.148438-5.386719-6.292968-14.859375-7.027344-21.148438-1.640625-19.28125 16.507813-33.457031 38.085938-40.992187 62.398438-11.574219 37.335937-28.828125 59.523437-52.746094 67.828125-7.828125 2.714844-11.96875 11.265625-9.25 19.089844 2.71875 7.832031 11.269531 11.964843 19.089844 9.25 33.089844-11.492188 57.167968-40.859376 71.558594-87.289063zm0 0"/><path d="m270.894531 258.863281c2.464844-7.910156-1.949219-16.320312-9.859375-18.785156-7.90625-2.46875-16.316406 1.949219-18.78125 9.859375-26.972656 86.550781-87.140625 125.765625-104.9375 135.71875-7.230468 4.046875-9.8125 13.1875-5.765625 20.414062 4.039063 7.226563 13.171875 9.816407 20.414063 5.769532 50.164062-28.0625 96.828125-82.054688 118.929687-152.976563zm0 0"/></g><path d="m298.730469 270.554688c-6.890625 25.523437-22.203125 55.65625-42.730469 85.441406v49.722656c34.660156-42.320312 61.398438-89.203125 71.695312-127.347656 15.699219-58.167969-26.300781-99.28125-71.695312-98.980469v30c26.167969-.3125 53.148438 22.566406 42.730469 61.164063zm0 0" fill="#d6daf6"/><path d="m256 59.386719v30c93.929688-.25 179.179688 80.152343 162.5625 192.078125-1.21875 8.191406 4.4375 15.820312 12.632812 17.039062 8.171876 1.21875 15.820313-4.421875 17.039063-12.636718 19.203125-129.320313-79.222656-226.78125-192.234375-226.480469zm0 0" fill="#d6daf6"/><path d="m323.328125 389.726562c-6.9375-4.535156-16.230469-2.585937-20.761719 4.347657-6.492187 9.933593-13.246094 19.847656-20.644531 30.3125-7.050781 9.972656.183594 23.660156 12.234375 23.660156 4.703125 0 9.335938-2.207031 12.261719-6.339844 7.609375-10.769531 14.566406-20.980469 21.257812-31.21875 4.53125-6.933593 2.585938-16.230469-4.347656-20.761719zm0 0" fill="#d6daf6"/><path d="m329.890625 140.988281c-6.960937-4.492187-16.246094-2.488281-20.734375 4.476563-4.492188 6.960937-2.484375 16.246094 4.476562 20.734375 31.265626 20.164062 48.964844 54.78125 47.347657 92.601562-.367188 8.503907 6.417969 15.644531 14.996093 15.644531 7.988282 0 14.628907-6.300781 14.976563-14.359374 2.074219-48.578126-20.75-93.097657-61.0625-119.097657zm0 0" fill="#d6daf6"/><path d="m271.265625 150.410156c8.199219 1.15625 15.792969-4.550781 16.953125-12.753906 1.15625-8.203125-4.554688-15.792969-12.757812-16.949219-6.359376-.898437-12.742188-1.34375-19.460938-1.316406v30c5.289062-.03125 10.285156.320313 15.265625 1.019531zm0 0" fill="#d6daf6"/><path d="m256 239.421875v57.644531c5.78125-12.195312 10.757812-24.9375 14.894531-38.203125 3.058594-9.816406-4.472656-19.839843-14.894531-19.441406zm0 0" fill="#d6daf6"/><path d="m361.046875 366v-64.046875c0-16.515625 13.4375-29.953125 29.953125-29.953125s29.953125 13.4375 29.953125 29.953125v14.546875c0 8.285156 6.714844 15 15 15s15-6.714844 15-15v-14.546875c0-33.058594-26.894531-59.953125-59.953125-59.953125s-59.953125 26.894531-59.953125 59.953125v64.046875zm0 0" fill="#3c3a41"/><path d="m391 242v30c16.515625 0 29.953125 13.4375 29.953125 29.953125v14.546875c0 8.285156 6.714844 15 15 15s15-6.714844 15-15v-14.546875c0-33.058594-26.894531-59.953125-59.953125-59.953125zm0 0" fill="#2b292c"/><path d="m466 511h-150c-8.285156 0-15-6.714844-15-15v-120c0-8.285156 6.714844-15 15-15h150c8.285156 0 15 6.714844 15 15v120c0 8.285156-6.714844 15-15 15zm0 0" fill="#feb655"/><path d="m466 361h-75v150h75c8.285156 0 15-6.714844 15-15v-120c0-8.285156-6.714844-15-15-15zm0 0" fill="#fd9a2b"/><path d="m406 451h-30c-8.285156 0-15-6.714844-15-15s6.714844-15 15-15h30c8.285156 0 15 6.714844 15 15s-6.714844 15-15 15zm0 0" fill="#f0725f"/><path d="m406 421h-15v30h15c8.285156 0 15-6.714844 15-15s-6.714844-15-15-15zm0 0" fill="#ea3d2c"/></svg>