<svg height="512" viewBox="0 0 64 64" width="512" xmlns="http://www.w3.org/2000/svg"><g id="Blogger-Content-Copywriter-Influencer-Writer"><path d="m38 49v1h-5v-5h1a4.009 4.009 0 0 1 4 4z" fill="#ffc477"/><path d="m33 45v5h-1.29a4.009 4.009 0 0 1 -3.71-2.49c0-.01-.01-.01-.01-.02l-2.99-7.49h-.02v10h-17.98a4 4 0 0 1 -4-4v-5.4a7.976 7.976 0 0 1 5.27-7.51l5.73-2.09a3 3 0 0 0 6 0l6.48 2.88a5.978 5.978 0 0 1 3.31 3.76l2.21 7.36z" fill="#3d9ae2"/><path d="m20 27v4a3 3 0 0 1 -6 0v-4z" fill="#ffc477"/><path d="m61.61 34.33-2.33 14a2.006 2.006 0 0 1 -1.97 1.67h-15.31l3-18h14.64a2 2 0 0 1 1.97 2.33z" fill="#c6c5ca"/><path d="m3 50h58v4h-58z" fill="#a97c50"/><path d="m61 5v16a2.006 2.006 0 0 1 -2 2h-11l-3 4-3-4h-7a2.006 2.006 0 0 1 -2-2v-16a2.006 2.006 0 0 1 2-2h24a2.006 2.006 0 0 1 2 2z" fill="#00ccb3"/><path d="m6 54h52v7h-52z" fill="#a97c50"/><circle cx="52" cy="41" fill="#e6e7e8" r="2"/><path d="m45 32-3 18h-4l.67-4 1.91-11.49a3 3 0 0 1 2.96-2.51z" fill="#acabb1"/><path d="m38.67 46-.67 4h-8a2.006 2.006 0 0 1 -2-2v-2z" fill="#acabb1"/><path d="m26 8v5.07c-2.64.34-4.03.93-7 .93-3.33 0-2.67-1-6-1v2a2.006 2.006 0 0 1 -2 2h-1v-5a4 4 0 0 1 4-4z" fill="#57565c"/><path d="m6 54h52v2h-52z" fill="#8b5e3c"/><path d="m10 17h-.5a2.5 2.5 0 1 0 0 5h1.5v-5z" fill="#ffb655"/><path d="m20 27v3.75a8.239 8.239 0 0 1 -2 .25 7.851 7.851 0 0 1 -4-1.08v-2.92z" fill="#ffb655"/><path d="m26 13.07v7.93a8.006 8.006 0 0 1 -6 7.75 8.239 8.239 0 0 1 -2 .25 7.851 7.851 0 0 1 -4-1.08 7.575 7.575 0 0 1 -1.66-1.26 8.054 8.054 0 0 1 -2.28-4.66 8.262 8.262 0 0 1 -.06-1v-4h1a2.006 2.006 0 0 0 2-2v-2c3.33 0 2.67 1 6 1 2.97 0 4.36-.59 7-.93z" fill="#ffc477"/><path d="m15 18h2v2h-2z" fill="#ee8700"/><path d="m21 18h2v2h-2z" fill="#ee8700"/><g fill="#00b39d"><path d="m38 8h18v2h-18z"/><path d="m38 12h18v2h-18z"/><path d="m38 16h18v2h-18z"/></g><path d="m15.5 40.959h2v6.083h-2z" fill="#e6e7e8" transform="matrix(.986 -.164 .164 .986 -7.009 3.311)"/><path d="m7 39h2v6h-2z" fill="#1e81ce"/><path d="m19 49v1h-5v-5h1a3.757 3.757 0 0 1 1.54.32 3.965 3.965 0 0 1 2.46 3.68z" fill="#ffc477"/></g></svg>