<svg id="Layer_3" height="512" viewBox="0 0 64 64" width="512" xmlns="http://www.w3.org/2000/svg" data-name="Layer 3"><rect fill="#686868" height="48" rx="4" width="60" x="2" y="4"/><path d="m58 4h-52a3.99 3.99 0 0 0 -3.98 3.8 44.991 44.991 0 0 0 44.98 44.2h11a4 4 0 0 0 4-4v-40a4 4 0 0 0 -4-4z" fill="#939393"/><rect fill="#5ed3f2" height="36" rx="2" width="52" x="6" y="8"/><path d="m58 10a2 2 0 0 0 -2-2h-48a2 2 0 0 0 -2 2v15.523a45.164 45.164 0 0 0 15.407 18.477h34.593a2 2 0 0 0 2-2z" fill="#95ebfc"/><path d="m44 24-6 4v-4h-2a2 2 0 0 1 -2-2v-8a2 2 0 0 1 2-2h16a2 2 0 0 1 2 2v8a2 2 0 0 1 -2 2z" fill="#f4a93c"/><path d="m52 12h-15v7a2 2 0 0 0 2 2h15v-7a2 2 0 0 0 -2-2z" fill="#f6b940"/><path d="m12 33.535v-13.835a7.7 7.7 0 0 1 2.89-6.014 7.7 7.7 0 0 1 4.81-1.686h2.6a7.7 7.7 0 0 1 4.812 1.688 7.7 7.7 0 0 1 2.888 6.012v13.835" fill="#474747"/><path d="m32 44v-8a4 4 0 0 0 -4-4h-1.634a3.366 3.366 0 0 1 -3.366-3.366v-1.055h-4v1a3.421 3.421 0 0 1 -3.421 3.421h-1.579a4 4 0 0 0 -4 4v8z" fill="#2862be"/><path d="m28 32h-1.634a3.366 3.366 0 0 1 -3.366-3.366v-1.055h-4v1a3.421 3.421 0 0 1 -3.421 3.421h-1.579a3.987 3.987 0 0 0 -3.227 1.654 45.263 45.263 0 0 0 10.634 10.346h10.593v-8a4 4 0 0 0 -4-4z" fill="#3279ea"/><path d="m37 52 7 8h-24l7-8" fill="#474747"/><path d="m31 47h2v2h-2z" fill="#2a2a2a"/><path d="m26.016 31.982a3.366 3.366 0 0 1 -3.016-3.348 4.844 4.844 0 0 1 -1.85.366h-.126a5.028 5.028 0 0 1 -2.024-.421 3.422 3.422 0 0 1 -3.021 3.4l.021.021a6.826 6.826 0 0 0 4.828 2h.344a6.826 6.826 0 0 0 4.828-2z" fill="#f2b9a1"/><g fill="#474747"><path d="m37 17h2v2h-2z"/><path d="m41 17h2v2h-2z"/><path d="m45 17h2v2h-2z"/><path d="m49 17h2v2h-2z"/></g><path d="m26 19v5.15a4.849 4.849 0 0 1 -4.85 4.85h-.126a5.006 5.006 0 0 1 -5.024-5v-5l3-2a11.91 11.91 0 0 0 6.606 2z" fill="#fbe1ca"/><path d="m13 37h2v7h-2z" fill="#2458ad"/><path d="m27 37h2v7h-2z" fill="#2458ad"/><path d="m32.826 44h2.348l7.678-12.476-1.704-1.048z" fill="#686868"/></svg>