<svg id="Capa_1" enable-background="new 0 0 512 512" height="512" viewBox="0 0 512 512" width="512" xmlns="http://www.w3.org/2000/svg"><g><path d="m203.215 396.346h105.57v41.686h-105.57z" fill="#6e61b6"/><path d="m267 396.346h41.785v41.686h-41.785z" fill="#6354b1"/><path d="m27.5 396.346c-14.612 0-26.5-11.888-26.5-26.5v-317.65c0-14.612 11.888-26.5 26.5-26.5h457c14.612 0 26.5 11.888 26.5 26.5v317.65c0 14.612-11.888 26.5-26.5 26.5zm0-357.65c-7.444 0-13.5 6.056-13.5 13.5v284.954h484v-284.954c0-7.444-6.056-13.5-13.5-13.5z" fill="#978ecb"/><path d="m27.5 38.696c-7.444 0-13.5 6.056-13.5 13.5v284.954h484v-284.954c0-7.444-6.056-13.5-13.5-13.5z" fill="#978ecb"/><g><path d="m504.5 343.65h-497v-291.454c0-11.046 8.954-20 20-20h457c11.046 0 20 8.954 20 20z" fill="#fff"/></g><g><path d="m484.5 32.196h-20.5v311.454h40.5v-291.454c0-11.045-8.954-20-20-20z" fill="#f3f0f3"/></g><path d="m484.5 24.696h-457c-15.164 0-27.5 12.336-27.5 27.5v317.65c0 15.164 12.336 27.5 27.5 27.5h457c15.164 0 27.5-12.336 27.5-27.5v-317.65c0-15.163-12.336-27.5-27.5-27.5zm12.5 311.454h-482v-283.954c0-6.893 5.607-12.5 12.5-12.5h457c6.893 0 12.5 5.607 12.5 12.5z" fill="#978ecb"/><path d="m484.5 24.696h-20.5v15h20.5c6.893 0 12.5 5.607 12.5 12.5v283.954h-33v41.196c0 11.046-8.954 20-20 20h40.5c15.164 0 27.5-12.336 27.5-27.5v-317.65c0-15.163-12.336-27.5-27.5-27.5z" fill="#8379c1"/><g><path d="m358.186 437.032h-204.372c-19.221 0-34.803 15.582-34.803 34.803v10.468c0 2.762 2.239 5 5 5h263.978c2.761 0 5-2.238 5-5v-10.468c0-19.221-15.582-34.803-34.803-34.803z" fill="#978ecb"/></g><g><path d="m358.186 437.032h-41.989c19.221 0 34.803 15.582 34.803 34.803v10.468c0 2.762-2.239 5-5 5h41.989c2.761 0 5-2.238 5-5v-10.468c0-19.221-15.582-34.803-34.803-34.803z" fill="#8379c1"/></g><g><g><g fill="#978ecb"><path d="m90.642 170.715h-33.054c7.41 40.729 43.062 71.611 85.93 71.611.334 0 .666-.009 1-.013v-32.193c-.334.006-.664.025-1 .025-24.998.001-46.101-16.631-52.876-39.43z"/><path d="m143.518 67.634c-44.9 0-81.881 33.881-86.787 77.471h32.52c4.657-25.752 27.173-45.29 54.267-45.29 30.467 0 55.166 24.699 55.166 55.166 0 .335-.019.666-.025 1h32.193c.004-.333.013-.666.013-1-.001-48.241-39.107-87.347-87.347-87.347z"/></g><g><path d="m143.518 210.146v32.18c48.24 0 87.346-39.106 87.346-87.346h-32.18c0 30.468-24.699 55.166-55.166 55.166z" fill="#ffe177"/></g></g><g fill="#8ac9fe"><path d="m245.037 246.452-29.212 29.213c4.996 1.843 8.716 6.313 9.48 11.733l31.466-31.466c-5.421-.764-9.892-4.484-11.734-9.48z"/><path d="m313.566 250.455c-1.968-2.502-3.153-5.648-3.153-9.071 0-2.11.455-4.113 1.259-5.929h-39.393c.804 1.816 1.259 3.819 1.259 5.929 0 3.423-1.185 6.569-3.153 9.071z"/><path d="m198.124 296.956c-1.311-2.199-2.078-4.759-2.078-7.5s.767-5.301 2.079-7.5h-106.924c1.063 2.284 1.674 4.819 1.674 7.5s-.611 5.216-1.674 7.5z"/><path d="m384.179 170.15-56.727 56.727c5.38.862 9.787 4.641 11.546 9.668l55.059-55.059c-4.754-2.127-8.409-6.267-9.878-11.336z"/><path d="m455.828 156.906h-38.714c1.305 2.479 2.053 5.295 2.053 8.286 0 2.375-.476 4.639-1.322 6.714h37.983c4.143 0 7.5-3.358 7.5-7.5s-3.357-7.5-7.5-7.5z"/></g><g><ellipse cx="75.023" cy="289.456" fill="#fd8087" rx="18.852" ry="18.852" transform="matrix(.176 -.984 .984 .176 -223.112 312.441)"/></g><g><path d="m75.023 270.604c-3.096 0-6.009.76-8.586 2.083 6.09 3.125 10.266 9.453 10.266 16.769s-4.176 13.644-10.266 16.769c2.577 1.322 5.49 2.083 8.586 2.083 10.412 0 18.852-8.44 18.852-18.852s-8.44-18.852-18.852-18.852z" fill="#fe646f"/></g><g><ellipse cx="210.756" cy="289.456" fill="#ffe177" rx="15.71" ry="15.71" transform="matrix(.625 -.781 .781 .625 -146.922 273.052)"/></g><g><ellipse cx="258.828" cy="241.384" fill="#ffe177" rx="15.71" ry="15.71" transform="matrix(.228 -.974 .974 .228 -35.255 438.293)"/></g><g><ellipse cx="325.123" cy="241.384" fill="#ffe177" rx="15.71" ry="15.71" transform="matrix(.159 -.987 .987 .159 35 523.873)"/></g><g><path d="m325.123 225.674c-2.6 0-5.047.642-7.207 1.76 5.047 2.613 8.503 7.873 8.503 13.949s-3.456 11.336-8.503 13.949c2.16 1.118 4.606 1.76 7.207 1.76 8.676 0 15.71-7.033 15.71-15.71 0-8.674-7.034-15.708-15.71-15.708z" fill="#ffd15b"/></g><g><path d="m258.828 225.674c-2.6 0-5.047.642-7.207 1.76 5.047 2.613 8.503 7.873 8.503 13.949s-3.456 11.336-8.503 13.949c2.16 1.118 4.606 1.76 7.207 1.76 8.676 0 15.71-7.033 15.71-15.71 0-8.674-7.034-15.708-15.71-15.708z" fill="#ffd15b"/></g><g><path d="m210.756 273.746c-2.6 0-5.047.642-7.207 1.76 5.047 2.613 8.503 7.873 8.503 13.949s-3.456 11.336-8.503 13.949c2.16 1.118 4.606 1.76 7.207 1.76 8.676 0 15.71-7.034 15.71-15.71 0-8.674-7.034-15.708-15.71-15.708z" fill="#ffd15b"/></g><g><ellipse cx="401.315" cy="165.192" fill="#05e39c" rx="18.852" ry="18.852" transform="matrix(.228 -.974 .974 .228 149.006 518.296)"/></g><g><path d="m401.315 146.34c-3.095 0-6.007.76-8.583 2.082 6.092 3.125 10.268 9.453 10.268 16.77s-4.177 13.646-10.268 16.77c2.576 1.322 5.489 2.081 8.583 2.081 10.412 0 18.852-8.44 18.852-18.852 0-10.411-8.44-18.851-18.852-18.851z" fill="#0ed290"/></g><g><path d="m450.828 314h-62.828c-2.761 0-5-2.239-5-5v-85c0-2.761 2.239-5 5-5h62.828c2.761 0 5 2.239 5 5v85c0 2.761-2.238 5-5 5z" fill="#d8ecfe"/></g><path d="m450.828 219h-22.828c2.761 0 5 2.239 5 5v85c0 2.761-2.239 5-5 5h22.828c2.761 0 5-2.239 5-5v-85c0-2.761-2.238-5-5-5z" fill="#c4e2ff"/><path d="m455.828 274v-15h-72.828v15z" fill="#8ac9fe"/></g><g><path d="m452.828 75.089h-179.176v27.611h179.176c1.657 0 3-1.343 3-3v-21.611c0-1.657-1.343-3-3-3z" fill="#05e39c"/><g><path d="m452.828 75.089h-31.152c1.657 0 3 1.343 3 3v21.611c0 1.657-1.343 3-3 3h31.152c1.657 0 3-1.343 3-3v-21.611c0-1.657-1.343-3-3-3z" fill="#0ed290"/></g><path d="m352.4 131.968h-78.748v27.611h78.748c1.657 0 3-1.343 3-3v-21.611c0-1.657-1.343-3-3-3z" fill="#fd8087"/><g><path d="m352.4 131.968h-31.152c1.657 0 3 1.343 3 3v21.611c0 1.657-1.343 3-3 3h31.152c1.657 0 3-1.343 3-3v-21.611c0-1.657-1.343-3-3-3z" fill="#fe646f"/></g><g><path d="m126 171.716h-82.248c-1.657 0-3-1.343-3-3v-21.611c0-1.657 1.343-3 3-3h82.248c1.657 0 3 1.343 3 3v21.611c0 1.656-1.343 3-3 3z" fill="#05e39c"/></g><g><path d="m126 144.104h-31.752c1.657 0 3 1.343 3 3v21.611c0 1.657-1.343 3-3 3h31.752c1.657 0 3-1.343 3-3v-21.611c0-1.656-1.343-3-3-3z" fill="#0ed290"/></g><g><path d="m267.152 174.534c-4.143 0-7.5-3.358-7.5-7.5v-99.4c0-4.142 3.357-7.5 7.5-7.5s7.5 3.358 7.5 7.5v99.4c0 4.142-3.357 7.5-7.5 7.5z" fill="#8ac9fe"/></g></g></g></svg>