<svg id="Layer_1" enable-background="new 0 0 512 512" height="512" viewBox="0 0 512 512" width="512" xmlns="http://www.w3.org/2000/svg"><g><g><path d="m163.46 52.897v58.35l-10 20 10 20v246.35l-117.83-10v-236.35l10-20-10-20v-58.35c0-2.89 2.34-5.24 5.23-5.24h107.36c2.89 0 5.24 2.35 5.24 5.24z" fill="#ff6b81"/><path d="m163.46 52.897v58.35l-10 20 10 20v309.87h-117.83v-33h76.85c11.03 0 19.98-8.95 19.98-19.98v-355.24c0-2.89-2.35-5.24-5.24-5.24h21c2.89 0 5.24 2.35 5.24 5.24z" fill="#ed2061"/><path d="m163.46 387.597v59.51l-117.83 10v-69.51z" fill="#56788b"/><path d="m45.63 111.247h117.83v40h-117.83z" fill="#fdeda5"/><path d="m142.46 111.247h21v40h-21z" fill="#fbdf63"/><path d="m142.46 387.597h21v59.51h-117.83v-18.99h76.85c11.03 0 19.98-8.95 19.98-19.98z" fill="#415e6f"/><g fill="#fff"><path d="m87.187 189.858c-4.142 0-7.5 3.358-7.5 7.5v146.312c0 4.142 3.358 7.5 7.5 7.5s7.5-3.358 7.5-7.5v-146.312c0-4.142-3.358-7.5-7.5-7.5z"/><path d="m121.897 213.014c-4.142 0-7.5 3.358-7.5 7.5v100c0 4.142 3.358 7.5 7.5 7.5s7.5-3.358 7.5-7.5v-100c0-4.142-3.357-7.5-7.5-7.5z"/></g></g><g><path d="m459.34 354.497-19 13.13-28.89 19.97-65.36-.56-62.88-218.86 4.2-20.15-15.25-18.29-16.25-56.57c-.79-2.75.8-5.62 3.55-6.4l76.82-22.07 26.48-7.61c2.75-.79 5.61.79 6.4 3.54l16.26 56.58-4.73 18.34 15.77 20.09z" fill="#d4e16c"/><path d="m459.34 354.497-19 13.13-91.42-315.95c-1.56-5.41-7.22-8.54-12.64-6.98l26.48-7.61c2.75-.79 5.61.79 6.4 3.54l16.26 56.58-4.73 18.34 15.77 20.09z" fill="#a4ce39"/><path d="m396.46 135.637-21.46 6.17-91.79 26.37-11.05-38.44 91.72-26.34 21.54-6.19z" fill="#fdeda5"/><path d="m473.06 421.007-108.27 31.1-6.53-22.72-12.17-42.35 92.2-26.49 21.05-6.05 17.27 60.1c.78 2.75-.8 5.62-3.55 6.41z" fill="#56788b"/><path d="m473.06 421.007-108.27 31.1-6.53-22.72 71.68-21.67c11.21-3.39 17.61-15.17 14.36-26.42l-6.01-20.75 21.05-6.05 17.27 60.1c.78 2.75-.8 5.62-3.55 6.41z" fill="#415e6f"/><g fill="#fff"><path d="m344.333 197.561c-1.144-3.981-5.3-6.283-9.279-5.138-3.981 1.144-6.281 5.298-5.138 9.279l40.401 140.622c.945 3.29 3.945 5.431 7.205 5.431.686 0 1.383-.095 2.074-.293 3.981-1.144 6.281-5.298 5.138-9.279z"/><path d="m411.701 306.343-27.614-96.112c-1.144-3.981-5.297-6.283-9.28-5.138-3.981 1.144-6.281 5.298-5.137 9.279l27.614 96.112c.945 3.29 3.945 5.431 7.205 5.431.686 0 1.383-.095 2.074-.293 3.982-1.143 6.282-5.298 5.138-9.279z"/></g></g><g><path d="m261.29 93.137v353.97h-97.83v-359.45h92.35c3.03 0 5.48 2.45 5.48 5.48z" fill="#f9d11f"/><path d="m261.29 93.137v353.97h-21v-353.97c0-3.03-2.45-5.48-5.48-5.48h21c3.03 0 5.48 2.45 5.48 5.48z" fill="#ffa402"/><path d="m261.29 387.597v69.51l-97.83-10v-59.51z" fill="#56788b"/><path d="m240.29 387.597h21v59.51h-117.83v-18.99h76.85c11.03 0 19.98-8.95 19.98-19.98z" fill="#415e6f"/><path d="m163.46 151.247h97.83v40h-97.83z" fill="#fdeda5"/><path d="m240.29 151.247h21v40h-21z" fill="#fbdf63"/><path d="m212.733 228.858c-4.142 0-7.5 3.358-7.5 7.5v106.312c0 4.142 3.358 7.5 7.5 7.5s7.5-3.358 7.5-7.5v-106.312c0-4.142-3.358-7.5-7.5-7.5z" fill="#fff"/></g><path d="m512 461.117c0 7.73-6.27 14-14 14h-484c-3.86 0-7.36-1.57-9.9-4.1-2.53-2.53-4.1-6.03-4.1-9.9 0-7.74 6.27-14.01 14-14.01h484c3.86 0 7.36 1.57 9.9 4.1 2.53 2.54 4.1 6.04 4.1 9.91z" fill="#d77d41"/><path d="m507.9 451.207c2.53 2.54 4.1 6.04 4.1 9.91 0 7.73-6.27 14-14 14h-27c7.73 0 14-6.27 14-14 0-3.87-1.57-7.37-4.1-9.91-2.54-2.53-6.04-4.1-9.9-4.1h27c3.86 0 7.36 1.57 9.9 4.1z" fill="#b5612a"/><path d="m375 141.807-11.12-38.41 21.54-6.19 11.04 38.43z" fill="#fbdf63"/></g></svg>