<svg id="Capa_1" enable-background="new 0 0 512 512" height="512" viewBox="0 0 512 512" width="512" xmlns="http://www.w3.org/2000/svg"><g><path d="m458.969 342.07h-405.938c-12.088 0-21.887-9.799-21.887-21.887v-298.293c0-12.088 9.799-21.887 21.887-21.887h405.938c12.088 0 21.887 9.799 21.887 21.887v298.293c0 12.088-9.799 21.887-21.887 21.887z" fill="#ebebeb"/><path d="m77.166 342.069h-24.136c-12.079 0-21.886-9.797-21.886-21.886v-298.297c0-12.089 9.807-21.886 21.886-21.886h24.137c-12.079 0-21.886 9.797-21.886 21.886v298.297c0 12.089 9.807 21.886 21.885 21.886z" fill="#e2e2e2"/><path d="m249.095 58.514h-160.836c-12.313 0-22.295 9.982-22.295 22.295v183.555c0 12.313 9.982 22.295 22.295 22.295h160.835c12.313 0 22.295-9.982 22.295-22.295v-183.555c.001-12.314-9.981-22.295-22.294-22.295z" fill="#01c0fa"/><path d="m168.677 258.718c-41.251 0-74.812-33.561-74.812-74.812v-22.64c0-41.251 33.561-74.812 74.812-74.812s74.812 33.561 74.812 74.812v22.64c0 41.251-33.56 74.812-74.812 74.812z" fill="#dff6fd"/><path d="m168.677 266.444c-45.512 0-82.539-37.027-82.539-82.538v-22.64c0-45.512 37.027-82.538 82.539-82.538s82.538 37.027 82.538 82.538v22.64c0 45.512-37.026 82.538-82.538 82.538zm0-172.263c-36.991 0-67.086 30.095-67.086 67.086v22.64c0 36.991 30.095 67.086 67.086 67.086s67.086-30.095 67.086-67.086v-22.64c0-36.992-30.095-67.086-67.086-67.086z" fill="#ffd15b"/><path d="m168.677 235.605c-28.507 0-51.699-23.192-51.699-51.699v-22.64c0-28.507 23.192-51.699 51.699-51.699 4.267 0 7.726 3.459 7.726 7.726s-3.459 7.726-7.726 7.726c-19.986 0-36.246 16.26-36.246 36.246v22.64c0 19.986 16.26 36.246 36.246 36.246s36.246-16.26 36.246-36.246v-22.64c0-4.267 3.459-7.726 7.726-7.726s7.726 3.459 7.726 7.726v22.64c.001 28.508-23.191 51.7-51.698 51.7z" fill="#ffd15b"/><path d="m168.677 204.766c-11.503 0-20.86-9.358-20.86-20.86v-22.64c0-11.503 9.358-20.86 20.86-20.86s20.86 9.358 20.86 20.86v22.64c0 11.502-9.357 20.86-20.86 20.86zm0-48.907c-2.982 0-5.407 2.426-5.407 5.407v22.64c0 2.982 2.426 5.407 5.407 5.407s5.407-2.426 5.407-5.407v-22.64c.001-2.982-2.425-5.407-5.407-5.407z" fill="#ffd15b"/><path d="m127.458 498.143v-241.691c0-20.45 16.106-37.614 36.549-38.142 10.765-.278 20.534 3.975 27.545 10.986 6.795 6.795 10.999 16.18 10.999 26.553v147.607c0-20.734 16.818-37.552 37.552-37.552 10.372 0 19.758 4.205 26.553 10.999 6.795 6.795 10.999 16.191 10.999 26.553v19.182c0-20.734 16.807-37.552 37.552-37.552 10.372 0 19.758 4.204 26.553 10.999s10.999 16.191 10.999 26.553v24.055c0-17.27 14.001-31.271 31.281-31.271 8.635 0 16.458 3.495 22.112 9.159 5.664 5.664 9.169 13.477 9.169 22.112v53.307c0 6.627-5.373 12-12 12h-262.007c-7.652 0-13.856-6.204-13.856-13.857z" fill="#ffcebf"/><g fill="#ffb09e"><path d="m352.759 446.693v9.931h12.407c5.485 0 9.931-4.446 9.931-9.931 0-8.635 3.505-16.448 9.169-22.112 3.074-3.084 6.795-5.52 10.938-7.093-3.464-1.336-7.227-2.066-11.164-2.066-8.635 0-16.458 3.495-22.112 9.159-5.664 5.664-9.169 13.477-9.169 22.112z"/><path d="m165.545 218.301c6.067.086 11.776 1.607 16.817 4.252-11.986 6.27-20.169 18.833-20.169 33.296v256.151h-22.735c-6.627 0-12-5.373-12-12v-243.44c0-20.948 17.141-38.556 38.087-38.259z"/><path d="m240.639 365.908c6.067.086 11.776 1.607 16.817 4.252-11.986 6.271-20.169 18.833-20.169 33.296v35.6c0 9.702-7.865 17.568-17.568 17.568h-17.168v-52.458c0-20.948 17.142-38.555 38.088-38.258z"/><path d="m315.742 384.38c6.067.086 11.776 1.607 16.817 4.252-11.986 6.271-20.169 18.833-20.169 33.296v17.128c0 9.702-7.865 17.568-17.568 17.568h-17.168v-33.986c.001-20.948 17.143-38.555 38.088-38.258z"/></g><g><g><path d="m347.659 119.691h-18.777c-8.351 0-15.122-6.77-15.122-15.122v-30.934c0-8.351 6.77-15.122 15.122-15.122h18.777c8.351 0 15.122 6.77 15.122 15.122v30.934c0 8.351-6.77 15.122-15.122 15.122z" fill="#918291"/><path d="m348.822 119.64c-.386.04-.772.051-1.157.051h-18.783c-8.346 0-15.118-6.762-15.118-15.118v-30.936c0-8.346 6.772-15.118 15.118-15.118h18.783c.386 0 .772.01 1.157.051-7.807.589-13.96 7.117-13.96 15.067v30.936c0 7.96 6.153 14.478 13.96 15.067z" fill="#685e68"/><path d="m423.967 119.691h-18.777c-8.351 0-15.122-6.77-15.122-15.122v-30.934c0-8.351 6.77-15.122 15.122-15.122h18.777c8.351 0 15.122 6.77 15.122 15.122v30.934c-.001 8.351-6.771 15.122-15.122 15.122z" fill="#918291"/><path d="m425.13 119.64c-.386.04-.772.051-1.157.051h-18.783c-8.346 0-15.118-6.762-15.118-15.118v-30.936c0-8.346 6.772-15.118 15.118-15.118h18.783c.386 0 .772.01 1.157.051-7.808.589-13.96 7.117-13.96 15.067v30.936c0 7.96 6.152 14.478 13.96 15.067z" fill="#685e68"/></g><g><path d="m347.659 203.175h-18.777c-8.351 0-15.122-6.77-15.122-15.122v-30.934c0-8.351 6.77-15.122 15.122-15.122h18.777c8.351 0 15.122 6.77 15.122 15.122v30.934c0 8.351-6.77 15.122-15.122 15.122z" fill="#918291"/><path d="m348.822 203.124c-.386.04-.772.051-1.157.051h-18.783c-8.346 0-15.118-6.762-15.118-15.118v-30.936c0-8.346 6.772-15.118 15.118-15.118h18.783c.386 0 .772.01 1.157.051-7.807.589-13.96 7.117-13.96 15.067v30.936c0 7.96 6.153 14.478 13.96 15.067z" fill="#685e68"/><path d="m423.967 203.175h-18.777c-8.351 0-15.122-6.77-15.122-15.122v-30.934c0-8.351 6.77-15.122 15.122-15.122h18.777c8.351 0 15.122 6.77 15.122 15.122v30.934c-.001 8.351-6.771 15.122-15.122 15.122z" fill="#918291"/><path d="m425.13 203.124c-.386.04-.772.051-1.157.051h-18.783c-8.346 0-15.118-6.762-15.118-15.118v-30.936c0-8.346 6.772-15.118 15.118-15.118h18.783c.386 0 .772.01 1.157.051-7.808.589-13.96 7.117-13.96 15.067v30.936c0 7.96 6.152 14.478 13.96 15.067z" fill="#685e68"/></g><g><path d="m347.659 286.658h-18.777c-8.351 0-15.122-6.77-15.122-15.122v-30.934c0-8.351 6.77-15.122 15.122-15.122h18.777c8.351 0 15.122 6.77 15.122 15.122v30.934c0 8.352-6.77 15.122-15.122 15.122z" fill="#918291"/><path d="m348.822 286.608c-.386.04-.772.051-1.157.051h-18.783c-8.346 0-15.118-6.762-15.118-15.118v-30.936c0-8.346 6.772-15.118 15.118-15.118h18.783c.386 0 .772.01 1.157.051-7.807.589-13.96 7.117-13.96 15.067v30.936c0 7.96 6.153 14.478 13.96 15.067z" fill="#685e68"/><path d="m423.967 286.658h-18.777c-8.351 0-15.122-6.77-15.122-15.122v-30.934c0-8.351 6.77-15.122 15.122-15.122h18.777c8.351 0 15.122 6.77 15.122 15.122v30.934c-.001 8.352-6.771 15.122-15.122 15.122z" fill="#918291"/><path d="m425.13 286.608c-.386.04-.772.051-1.157.051h-18.783c-8.346 0-15.118-6.762-15.118-15.118v-30.936c0-8.346 6.772-15.118 15.118-15.118h18.783c.386 0 .772.01 1.157.051-7.808.589-13.96 7.117-13.96 15.067v30.936c0 7.96 6.152 14.478 13.96 15.067z" fill="#685e68"/></g></g></g></svg>