<svg id="Layer_1" enable-background="new 0 0 512 512" viewBox="0 0 512 512" xmlns="http://www.w3.org/2000/svg"><g clip-rule="evenodd" fill-rule="evenodd"><path d="m301.47 200.02h91.05c24.15 0 43.91 22.45 43.91 49.89v50.17h-178.9v-50.17c0-27.44 19.79-49.89 43.94-49.89z" fill="#033f63"/><path d="m369.13 167.96h-50v23.39c0 12.84 10.52 23.36 23.36 23.36h3.29c12.84 0 23.36-10.52 23.36-23.36v-23.39z" fill="#fe605f"/><g fill="#ff8281"><path d="m369.13 167.96h-41.07v23.39c0 11.91 8.99 21.8 20.52 23.19 11.54-1.39 20.55-11.28 20.55-23.19z"/><path d="m391.56 112.91c-24.24 14.83-25.11 23.67-2.61 26.5 26.73 6.18 28.66-55.16 2.61-26.5z"/><path d="m296.71 112.91c10.29 16.19 11.14 25.03 2.61 26.5-26.76 6.18-28.69-55.16-2.61-26.5z"/></g><path d="m344.13 72.12c26.22 0 47.51 21.43 47.51 47.88 0 26.42-21.29 60.69-47.51 60.69-26.25 0-47.51-34.27-47.51-60.69 0-26.45 21.26-47.88 47.51-47.88z" fill="#fe605f"/><path d="m344.13 72.12c26.22 0 47.51 21.43 47.51 47.88 0 17.55-9.41 38.58-23.41 50.71-4.28 1.96-8.82 3.09-13.52 3.09-26.25 0-47.51-34.3-47.51-60.72 0-14.54 6.43-27.58 16.58-36.34 6.18-2.95 13.07-4.62 20.35-4.62z" fill="#ff8281"/><path d="m296.14 91.11h95.9c0 49.61-95.9 51.93-95.9 0zm0-16.52h95.9v-12.19c0-7.85-6.89-13.15-15.31-13.15h-2.18c-7 0-13.01-4-17.49-9.01-3.09-3.49-7.77-5.7-12.98-5.7-5.22 0-9.86 2.21-12.98 5.7-4.45 5.02-10.49 9.01-17.46 9.01h-2.21c-8.39 0-15.28 5.3-15.28 13.15v12.19z" fill="#033f63"/><path d="m296.14 72.12h95.9v18.88c0 .06-.06.11-.11.11h-95.7c-.06 0-.08-.06-.08-.11v-18.88z" fill="#ffb703"/><path d="m299.46 228.62.68-49.07 40.73 30.56c.48-.11.96-.17 1.47-.17.54 0 1.05.08 1.56.17l43.63-31.21 1.28 50.49-40.28-15.76c.51.99.82 2.13.82 3.32v46.49c0 3.88-3.15 7-7 7s-7-3.12-7-7v-46.49c0-1.13.28-2.24.77-3.17z" fill="#fbb13c"/><path d="m442.41 208.78c-15.19-5.13-23.47-2.86-31.21 7.34 5.67 12.67 7.4 33.08 7.65 46.2 14.6 5.07 21.83 5.75 32.65-1.87.55-15.13-1.07-39.17-9.09-51.67z" fill="#fbb13c"/><path d="m249.65 208.78c15.17-5.13 23.44-2.86 31.18 7.34-5.67 12.67-7.4 33.08-7.65 46.2-14.6 5.07-21.83 5.75-32.66-1.87-.53-15.13 1.11-39.17 9.13-51.67z" fill="#fbb13c"/><path d="m50.04 204.61c6.55-.03 12.19-18.11 13.83-22.03-2.41-12.84-2.66-26.62-.79-41.39 2.07-7.34 9.3-12.02 16.84-10.86 7.54 1.13 10.94-23.64 10.72-16.02-.57-16.98 12.19-.94 28.29-6.29 3.49 2.78 13.29 3.51 15.96 7.94 9.44 15.7 6.26 65.28-11 73.96-5.67 2.86-14.31 2.55-27.95-1.33-.45 9.01-4.79 20.58-7.14 23.07-16.31-1.75-28.02 8.49-38.76-7.05z" fill="#ff8281"/><path d="m238.34 258.07h-34.13v30.02h59.61c.86-13.66-4.84-30.02-25.48-30.02z" fill="#ff8281"/><path d="m39.1 219.49v118.2h76.37v-64.32c5.53 2.52 17.01 1.42 22.68 2.3l62.42 12.22c10.21 1.59 19.73-5.41 21.32-15.62 1.59-10.18-5.41-19.73-15.62-21.32l-59.73-14.26c-22.92-9.37-94.75-61.56-107.44-17.2z" fill="#6ad2ff"/><path d="m115.46 280.38v-7c1.79.82 4.2 1.25 6.8 1.5.65-2.95-.68-6.09-3.46-7.63l-34.5-18.85c-3.4-1.84-7.63-.6-9.47 2.81-1.84 3.37-.6 7.63 2.78 9.47l34.5 18.85c1.08.57 2.22.85 3.35.85z" fill="#56aacf"/><path d="m115.46 337.7h-38.18-38.18v115.65c0 10.52 8.59 19.11 19.11 19.11 10.49 0 19.08-8.59 19.08-19.11 0 10.52 8.59 19.11 19.11 19.11 10.49 0 19.08-8.59 19.08-19.11v-115.65z" fill="#033f63"/><path d="m75.97 460.24c.85-2.13 1.3-4.45 1.3-6.89 0 2.44.45 4.76 1.3 6.89 3.23-.6 5.7-3.46 5.7-6.89v-73.59c0-3.86-3.15-7-7-7s-7 3.15-7 7v73.59c.01 3.43 2.47 6.29 5.7 6.89z" fill="#033350"/><path d="m121.24 455.48h-44.3v13.78c0 7.57 6.18 13.78 13.78 13.78h30.53c7.57 0 13.78-6.21 13.78-13.78-.01-7.57-6.22-13.78-13.79-13.78z" fill="#9b532b"/><path d="m457.23 325.31h-277.82v147.43c0 5.84 4.76 10.6 10.6 10.6h256.62c5.84 0 10.6-4.76 10.6-10.6z" fill="#28666e"/><path d="m397.31 325.31h-217.9v147.43c0 5.84 4.76 10.6 10.6 10.6h126.99c44.22-32.74 75.49-82.77 79.99-136.54.63-7.34.72-14.49.32-21.49z" fill="#218380"/><path d="m478.1 288.09c-106.53 0-213.02 0-319.52 0-5.92 0-10.77 5.24-10.77 11.68v13.89c0 6.41 4.85 11.65 10.77 11.65h319.52c5.9 0 10.74-5.24 10.74-11.65v-13.89c0-6.43-4.85-11.68-10.74-11.68z" fill="#b76442"/><path d="m257.53 288.09h178.89v6.89h-178.89z" fill="#955135"/><path d="m263.68 288.09h-97.2l34.07 6.66c1.25.2 2.47.26 3.66.23h59.61c.15-2.27.09-4.56-.14-6.89z" fill="#955135"/><path d="m58.8 166.54c-30.16-36.37-2.78-87.42 36.65-85.49 6.92.34 12.98-1.5 18.54-5.61 37.98-28.06 57.57 41.27 2.58 45.33-20.5-2.81-44.28 7.59-57.77 45.77z" fill="#033f63"/><path d="m241.04 362.84h154.57v82.97h-154.57z" fill="#fbb13c"/><path d="m83.17 455.48h-44.33v13.78c0 7.57 6.21 13.78 13.78 13.78h30.56c7.57 0 13.78-6.21 13.78-13.78-.01-7.57-6.22-13.78-13.79-13.78z" fill="#b76442"/></g></svg>