<svg height="512pt" viewBox="0 0 512 512" width="512pt" xmlns="http://www.w3.org/2000/svg"><path d="m479.261719 130.683594c20.839843 37.046875 32.738281 79.789062 32.738281 125.316406 0 141.386719-114.613281 256-256 256s-256-114.613281-256-256 114.613281-256 256-256c64.433594 0 123.300781 23.8125 168.300781 63.105469 14.378907 25.566406 33.015625 48.417969 54.960938 67.578125zm0 0" fill="#fdbf43"/><path d="m180 62.433594h60c11.046875 0 20 8.953125 20 20v196.855468c0 11.046876-8.953125 20-20 20h-60c-11.046875 0-20-8.953124-20-20v-196.855468c0-11.046875 8.953125-20 20-20zm0 0" fill="#fff2b4"/><path d="m480 132.003906v147.285156c0 11.046876-8.953125 20-20 20h-43.042969l-19.632812 26.644532c-3.996094 5.421875-12.101563 5.421875-16.097657 0l-19.632812-26.644532h-161.59375c-11.046875 0-20-8.953124-20-20v-196.855468c0-11.046875 8.953125-20 20-20h223.542969c22.652343 19.625 41.8125 43.171875 56.457031 69.570312zm0 0" fill="#fff5f5"/><path d="m330 92.433594v176.855468c0 5.523438-4.476562 10-10 10s-10-4.476562-10-10v-176.855468c0-5.523438 4.476562-10 10-10s10 4.476562 10 10zm-50 20c-5.523438 0-10 4.476562-10 10v116.855468c0 5.523438 4.476562 10 10 10s10-4.476562 10-10v-116.855468c0-5.523438-4.476562-10-10-10zm120 0c-5.523438 0-10 4.476562-10 10v116.855468c0 5.523438 4.476562 10 10 10s10-4.476562 10-10v-116.855468c0-5.523438-4.476562-10-10-10zm-200 50c-5.523438 0-10 4.476562-10 10v16.855468c0 5.523438 4.476562 10 10 10s10-4.476562 10-10v-16.855468c0-5.523438-4.476562-10-10-10zm40-3.144532c-5.523438 0-10 4.480469-10 10v23.144532c0 5.523437 4.476562 10 10 10s10-4.476563 10-10v-23.144532c0-5.519531-4.476562-10-10-10zm200-16.855468c-5.523438 0-10 4.476562-10 10v56.855468c0 5.523438 4.476562 10 10 10s10-4.476562 10-10v-56.855468c0-5.523438-4.476562-10-10-10zm-80 0c-5.523438 0-10 4.476562-10 10v56.855468c0 5.523438 4.476562 10 10 10s10-4.476562 10-10v-56.855468c0-5.523438-4.476562-10-10-10zm0 0" fill="#0ed1b2"/><path d="m250 176.527344v15.90625c0 5.523437-4.476562 10-10 10s-10-4.476563-10-10v-15.90625c0 5.523437 4.476562 10 10 10s10-4.476563 10-10zm-50 6.859375c-5.523438 0-10-4.476563-10-10v15.902343c0 5.523438 4.476562 10 10 10s10-4.476562 10-10v-15.902343c0 5.519531-4.476562 10-10 10zm160 20c-5.523438 0-10-4.476563-10-10v15.902343c0 5.523438 4.476562 10 10 10s10-4.476562 10-10v-15.902343c0 5.519531-4.476562 10-10 10zm40 30c-5.523438 0-10-4.476563-10-10v15.902343c0 5.523438 4.476562 10 10 10s10-4.476562 10-10v-15.902343c0 5.519531-4.476562 10-10 10zm40-30c-5.523438 0-10-4.476563-10-10v15.902343c0 5.523438 4.476562 10 10 10s10-4.476562 10-10v-15.902343c0 5.519531-4.476562 10-10 10zm0 0" fill="#0ab59e"/><path d="m44.464844 212.710938h280c11.046875 0 20 8.953124 20 20v196.855468c0 11.046875-8.953125 20-20 20h-280c-11.046875 0-20-8.953125-20-20v-196.855468c0-11.046876 8.953125-20 20-20zm0 0" fill="#54469b"/><path d="m64.464844 212.710938h260c11.046875 0 20 8.953124 20 20v196.855468c0 11.046875-8.953125 20-20 20h-260c-11.046875 0-20-8.953125-20-20v-196.855468c0-11.046876 8.953125-20 20-20zm0 0" fill="#6e61b5"/><path d="m319.214844 407.710938c0 5.519531-4.476563 10-10 10h-190.5c-5.523438 0-10-4.480469-10-10 0-5.523438 4.476562-10 10-10h190.5c5.523437 0 10 4.476562 10 10zm-134.75-45c30.375 0 55-24.625 55-55 0-30.378907-24.625-55-55-55s-55 24.621093-55 55c0 30.375 24.625 55 55 55zm0 0" fill="#968dca"/><path d="m118.714844 417.710938h-48.714844c-5.523438 0-10-4.480469-10-10 0-5.523438 4.476562-10 10-10h48.714844c5.523437 0 10 4.476562 10 10 0 5.519531-4.476563 10-10 10zm0 0" fill="#54469b"/><path d="m138.714844 407.710938c0 8.28125-6.714844 15-15 15s-15-6.71875-15-15c0-8.285157 6.714844-15 15-15s15 6.714843 15 15zm31.285156-68.421876 42.359375-27.382812c3.046875-1.96875 3.046875-6.425781 0-8.394531l-42.359375-27.382813c-3.328125-2.152344-7.714844.234375-7.714844 4.199219v54.765625c0 3.960938 4.386719 6.347656 7.714844 4.195312zm0 0" fill="#fff5f5"/></svg>