<svg id="Layer_2" height="512" viewBox="0 0 48 48" width="512" xmlns="http://www.w3.org/2000/svg" data-name="Layer 2"><path d="m40 0h-32a8.0092 8.0092 0 0 0 -8 8v32a8.0092 8.0092 0 0 0 8 8h32a8.0092 8.0092 0 0 0 8-8v-32a8.0092 8.0092 0 0 0 -8-8zm-16.5859 29.4141-8 8a1.9995 1.9995 0 0 1 -2.8282 0l-4-4a2 2 0 0 1 2.8282-2.8282l2.5859 2.586 6.5859-6.586a2 2 0 0 1 2.8282 2.8282zm0-16-8 8a1.9995 1.9995 0 0 1 -2.8282 0l-4-4a2 2 0 1 1 2.8282-2.8282l2.5859 2.586 6.5859-6.586a2 2 0 1 1 2.8282 2.8282zm14.5859 22.5859h-10a2 2 0 0 1 0-4h10a2 2 0 0 1 0 4zm0-16h-10a2 2 0 0 1 0-4h10a2 2 0 0 1 0 4z" fill="#2196f3"/></svg>