<svg id="Layer_1" enable-background="new 0 0 512 512" viewBox="0 0 512 512" xmlns="http://www.w3.org/2000/svg"><g><path d="m469 465.4h-281.8c-27.6 0-53.7-22.4-58.3-50.1l-46.2-281.8c-4.5-27.7 14.2-50 41.8-50h281.8c27.7 0 53.7 22.4 58.3 50l46.3 281.8c4.5 27.7-14.3 50.1-41.9 50.1z" fill="#febe60"/><path d="m187.2 465.4h-144.2c-27.6 0-46.4-22.4-41.8-50.1l46.3-281.8c4.5-27.7 30.6-50 58.3-50h18.8c-27.7 0-46.4 22.4-41.8 50l46.3 281.8c4.3 27.7 30.5 50.1 58.1 50.1z" fill="#ff8912"/><path d="m160.5 415.1-40.1-244c-1.7-10.3 5.3-18.6 15.6-18.6h281.4c10.3 0 20 8.3 21.7 18.6l40.1 244c1.7 10.3-5.3 18.6-15.6 18.6h-281.4c-10.3.1-20-8.3-21.7-18.6z" fill="#fff7ee"/><path d="m387.1 256.9 11.1 16.9c.8 1.2 2 2 3.4 2.2l19.1 2.7c3.4.5 5.4 4.5 3.4 6.9l-11.3 13.1c-.8.9-1 2.3-.6 3.6l6.2 18.6c1.1 3.3-1.9 5.8-5.1 4.2l-18.1-8.8c-1.3-.6-2.7-.6-3.7 0l-15.2 8.8c-2.7 1.5-6.5-1-6.5-4.2l.1-18.6c0-1.3-.6-2.6-1.7-3.6l-15.6-13.1c-2.8-2.3-2.1-6.4 1.1-6.9l18.2-2.7c1.3-.2 2.3-1 2.7-2.2l5.6-16.9c.7-3 5-3 6.9 0z" fill="#9f70fd"/><g fill="#ff8912"><path d="m204.1 229.9c-39.8-.3-32.1 5.3-39-33.5-.7-4.2 2.2-7.6 6.4-7.6h25.9c4.2 0 8.2 3.4 8.9 7.6l4.2 25.9c.6 4.2-2.2 7.6-6.4 7.6z"/><path d="m298.1 229.9c-39.8-.3-32.1 5.3-39-33.5-.7-4.2 2.2-7.6 6.4-7.6h25.9c4.2 0 8.2 3.4 8.9 7.6l4.2 25.9c.6 4.2-2.2 7.6-6.4 7.6z"/><path d="m392.1 229.9c-39.8-.3-32.1 5.3-39-33.5-.7-4.2 2.2-7.6 6.4-7.6h25.9c4.2 0 8.2 3.4 8.9 7.6l4.2 25.9c.6 4.2-2.2 7.6-6.4 7.6z"/><path d="m217.8 313.7c-39.8-.3-32.1 5.3-39-33.5-.7-4.2 2.2-7.6 6.4-7.6h25.9c4.2 0 8.2 3.4 8.9 7.6l4.2 25.9c.7 4.2-2.2 7.6-6.4 7.6z"/><path d="m311.8 313.7c-39.8-.3-32.1 5.3-39-33.5-.7-4.2 2.2-7.6 6.4-7.6h25.9c4.2 0 8.2 3.4 8.9 7.6l4.2 25.9c.7 4.2-2.2 7.6-6.4 7.6z"/><path d="m231.6 397.5c-39.8-.3-32.1 5.3-39-33.5-.7-4.2 2.2-7.6 6.4-7.6h25.9c4.2 0 8.2 3.4 8.9 7.6l4.2 25.9c.7 4.2-2.2 7.6-6.4 7.6z"/><path d="m325.6 397.5c-39.8-.3-32.1 5.3-39-33.5-.7-4.2 2.2-7.6 6.4-7.6h25.9c4.2 0 8.2 3.4 8.9 7.6l4.2 25.9c.7 4.2-2.2 7.6-6.4 7.6z"/><path d="m419.6 397.5c-39.8-.3-32.1 5.3-39-33.5-.7-4.2 2.2-7.6 6.4-7.6h25.9c4.2 0 8.2 3.4 8.9 7.6l4.2 25.9c.7 4.2-2.2 7.6-6.4 7.6z"/></g><g><path d="m176.8 120.4v-8.3c15.3.3 26-12.9 23.3-27.9-2.6-16.1-17.9-29.2-34-29.2-15.3-.3-26 12.9-23.3 27.9l-8.2 1.3c-3.7-19.9 11.2-38 31.5-37.6 20 0 38.9 16.2 42.2 36.2 3.6 19.9-11.3 38-31.5 37.6z" fill="#9f70fd"/></g><g><path d="m270.8 120.4v-8.3c15.3.3 26-12.9 23.3-27.9-2.6-16.1-17.9-29.2-34-29.2-15.3-.3-26 12.9-23.3 27.9l-8.2 1.3c-3.7-19.9 11.2-38 31.5-37.6 20 0 38.9 16.2 42.2 36.2 3.6 19.9-11.3 38-31.5 37.6z" fill="#9f70fd"/></g><g><path d="m364.8 120.4v-8.3c15.3.3 26-12.9 23.3-27.9-2.6-16.1-17.9-29.2-34-29.2-15.3-.3-26 12.9-23.3 27.9l-8.2 1.3c-3.7-19.9 11.2-38 31.5-37.6 20 0 38.9 16.2 42.2 36.2 3.6 19.9-11.3 38-31.5 37.6z" fill="#9f70fd"/></g></g></svg>