<svg id="Layer_1" enable-background="new 0 0 256 256" height="512" viewBox="0 0 256 256" width="512" xmlns="http://www.w3.org/2000/svg"><g><g><path d="m176.609 243.46h-137.352v-39.527c0-16.255 13.177-29.432 29.433-29.432h78.487c16.255 0 29.433 13.177 29.433 29.432v39.527z" fill="#a4c9ff"/></g><g><path d="m107.933 168.762c-9.231 0-17.924-2.263-25.562-6.246v11.985.003c0 14.104 11.433 25.537 25.537 25.537 14.104 0 25.537-11.433 25.537-25.537v-.003-11.959c-7.625 3.967-16.3 6.22-25.512 6.22z" fill="#f9cfcf"/></g><g><path d="m176.609 245.46h-137.352c-1.104 0-2-.896-2-2v-39.526c0-17.332 14.101-31.433 31.433-31.433h11.682v-9.985c0-.699.365-1.348.963-1.71.598-.363 1.341-.387 1.962-.063 7.552 3.938 16.072 6.02 24.637 6.02 8.549 0 17.052-2.072 24.589-5.994.62-.321 1.364-.297 1.96.064.598.363.962 1.011.962 1.71v9.959h11.731c17.332 0 31.433 14.101 31.433 31.433v39.526c0 1.103-.895 1.999-2 1.999zm-135.352-4h133.352v-37.526c0-15.126-12.306-27.433-27.433-27.433h-13.731c-1.104 0-2-.896-2-2v-8.77c-7.349 3.299-15.412 5.03-23.512 5.03-8.117 0-16.197-1.74-23.562-5.054v8.793c0 1.104-.896 2-2 2h-13.681c-15.126 0-27.433 12.307-27.433 27.433z" fill="#3762cc"/></g><g><path d="m52.919 93.521v-5.151c0-.295.018-.586.022-.88-6.689-2.431-12.579-6.527-17.154-11.801v7.627c0 5.896 1.309 11.484 3.638 16.501 3.121-3.903 7.972-6.408 13.494-6.296z" fill="#4671c6"/></g><g><path d="m160.87 73.539c1.343 4.717 2.078 9.688 2.078 14.831v5.151c4.934-.1 9.333 1.894 12.443 5.104 4.701-8.384 7.249-18.139 7.249-29.34 0-10.844-5.852-20.315-14.565-25.446.298 2.019.457 4.083.457 6.184-.002 8.794-2.848 16.919-7.662 23.516z" fill="#4671c6"/></g><g><path d="m39.426 101.817c-.08 0-.16-.005-.24-.015-.688-.082-1.283-.515-1.575-1.144-2.538-5.465-3.824-11.3-3.824-17.343v-7.627c0-.835.519-1.582 1.3-1.874.783-.293 1.663-.067 2.21.563 4.392 5.062 10.038 8.945 16.327 11.231.802.292 1.331 1.06 1.316 1.913l-.011.405c-.005.146-.011.293-.011.441v5.151c0 .537-.216 1.053-.6 1.429-.385.376-.911.574-1.44.571-4.682-.14-8.998 1.925-11.891 5.545-.381.481-.958.754-1.561.754zm-1.638-21.216v2.716c0 4.453.774 8.781 2.304 12.904 3.006-2.669 6.776-4.288 10.828-4.633v-2.73c-4.834-1.942-9.291-4.749-13.132-8.257z" fill="#3762cc"/></g><g><path d="m175.39 100.625c-.538 0-1.057-.217-1.437-.608-2.892-2.984-6.763-4.613-10.966-4.495-.508.007-1.056-.195-1.44-.571s-.6-.892-.6-1.429v-5.152c0-4.814-.673-9.62-2.001-14.283-.169-.593-.055-1.229.308-1.727 4.76-6.522 7.276-14.247 7.276-22.337 0-1.949-.146-3.932-.435-5.894-.112-.762.223-1.521.862-1.95.639-.43 1.468-.455 2.131-.064 9.592 5.648 15.55 16.059 15.55 27.17 0 11.236-2.525 21.438-7.504 30.318-.309.551-.86.924-1.487 1.005-.085.011-.171.017-.257.017zm-10.443-9.038c3.626.307 7.02 1.63 9.871 3.845 3.864-7.749 5.821-16.531 5.821-26.146 0-8.301-3.81-16.154-10.158-21.339.033.694.05 1.388.05 2.077 0 8.617-2.583 16.86-7.48 23.901 1.259 4.726 1.897 9.581 1.897 14.445v3.217z" fill="#3762cc"/></g><g><path d="m162.947 93.521v-5.151c0-30.11-24.631-54.518-55.014-54.518-30.383 0-55.014 24.409-55.014 54.518v5.151c-9.553-.194-17.132 7.416-17.132 16.615 0 9.823 8.575 17.592 18.585 16.534 5.678 24.121 27.496 42.091 53.561 42.091 26.067 0 47.884-17.972 53.561-42.091 9.996 1.057 18.585-6.698 18.585-16.534 0-9.203-7.585-16.809-17.132-16.615z" fill="#f9cfcf"/></g><g><path d="m107.95 144.549c-.001 0-.001 0 0 0-3.904 0-7.533-1.402-9.958-3.848-1.831-1.846-2.84-4.172-2.84-6.551 0-1.104.896-2 2-2s2 .896 2 2c0 1.335.581 2.626 1.68 3.734 1.655 1.668 4.316 2.664 7.118 2.664 2.815 0 5.393-.971 7.073-2.664 1.099-1.108 1.68-2.399 1.68-3.734 0-1.104.896-2 2-2s2 .896 2 2c0 2.379-1.009 4.705-2.84 6.551-2.427 2.445-6.04 3.848-9.913 3.848z" fill="#3762cc"/></g><g><path d="m136.495 122.65c-4.267 0-7.726-3.459-7.726-7.726v-8.241c0-4.267 3.459-7.726 7.726-7.726 4.267 0 7.726 3.459 7.726 7.726v8.241c0 4.267-3.459 7.726-7.726 7.726z" fill="#3762cc"/></g><g><path d="m79.358 122.65c-4.267 0-7.726-3.459-7.726-7.726v-8.241c0-4.267 3.459-7.726 7.726-7.726 4.267 0 7.726 3.459 7.726 7.726v8.241c0 4.267-3.459 7.726-7.726 7.726z" fill="#3762cc"/></g><g><path d="m107.933 170.762c-26.066 0-48.484-17.186-55.098-41.998-4.718.085-9.354-1.649-12.882-4.825-3.918-3.525-6.166-8.557-6.166-13.802 0-5.021 1.984-9.731 5.587-13.262 3.144-3.081 7.185-4.919 11.545-5.288v-3.217c0-31.164 25.576-56.519 57.014-56.519s57.014 25.354 57.014 56.519v3.217c4.36.369 8.4 2.208 11.545 5.289 3.603 3.53 5.587 8.239 5.587 13.261 0 5.245-2.247 10.275-6.164 13.801-3.529 3.176-8.125 4.853-12.884 4.826-6.614 24.812-29.031 41.998-55.098 41.998zm-53.559-46.091c.918 0 1.731.631 1.945 1.542 5.62 23.874 26.845 40.549 51.614 40.549 24.77 0 45.995-16.675 51.614-40.549.231-.979 1.154-1.62 2.157-1.531 4.211.445 8.414-.908 11.535-3.718 3.076-2.768 4.84-6.714 4.84-10.827 0-3.938-1.558-7.632-4.386-10.404-2.856-2.798-6.644-4.307-10.705-4.211-.508.007-1.056-.195-1.44-.571s-.6-.892-.6-1.429v-5.152c0-28.959-23.782-52.519-53.014-52.519s-53.015 23.56-53.015 52.519v5.151c0 .537-.216 1.053-.6 1.429-.385.376-.911.574-1.44.571-4.054-.117-7.85 1.412-10.705 4.211-2.829 2.771-4.386 6.467-4.386 10.404 0 4.113 1.765 8.06 4.841 10.829 3.118 2.806 7.318 4.156 11.533 3.716.071-.006.142-.01.212-.01z" fill="#3762cc"/></g><g><path d="m59.523 23.262c-7.865 9.753-18.428 16.132-30.177 17.242-2.099.198-3.682 2.001-3.682 4.11v3.97c0 22.86 18.532 41.393 41.393 41.393h61.52c22.066 0 39.954-17.888 39.954-39.954-.001-23.208-18.815-42.023-42.024-42.023h-34.89c-12.45 0-24.279 5.572-32.094 15.262z" fill="#4671c6"/></g><g><path d="m128.577 91.978h-61.52c-23.927 0-43.393-19.466-43.393-43.393v-3.97c0-3.183 2.362-5.806 5.494-6.102 10.818-1.022 21.049-6.885 28.809-16.507 8.202-10.172 20.467-16.006 33.65-16.006h34.89c24.274 0 44.023 19.749 44.023 44.023 0 23.134-18.82 41.955-41.953 41.955zm-36.96-81.978c-11.967 0-23.097 5.292-30.536 14.519-8.441 10.468-19.645 16.853-31.546 17.978-1.049.099-1.87 1.03-1.87 2.119v3.97c0 21.721 17.671 39.393 39.393 39.393h61.52c20.928 0 37.954-17.026 37.954-37.954-.002-22.071-17.956-40.025-40.025-40.025zm-32.094 13.263h.01z" fill="#3762cc"/></g><g><path d="m103.535 243.46h22.474l37.104-64.266c1.102-1.91.448-4.351-1.461-5.454l-9.94-5.739c-1.91-1.102-4.351-.448-5.454 1.461z" fill="#e0ebfc"/></g><g><path d="m126.009 245.46h-22.474c-.714 0-1.375-.381-1.732-1s-.357-1.381 0-2l42.723-73.998c1.653-2.861 5.326-3.842 8.186-2.193l9.94 5.739c2.861 1.652 3.845 5.324 2.193 8.186l-37.104 64.267c-.357.618-1.018.999-1.732.999zm-19.01-4h17.855l36.527-63.267c.549-.951.222-2.172-.729-2.721l-9.94-5.739c-.461-.267-.997-.337-1.512-.199-.514.138-.944.467-1.21.928z" fill="#3762cc"/></g><g><path d="m120.976 243.46h-58.305v-74.698h54.34c2.189 0 3.964 1.775 3.964 3.964v70.734z" fill="#4671c6"/></g><g><path d="m62.671 243.46h-9.717v-70.734c0-2.189 1.775-3.964 3.964-3.964h5.753z" fill="#f9a7a7"/></g><g><path d="m110.921 196.201h-38.195c-1.133 0-2.051-.918-2.051-2.051v-12.135c0-1.133.918-2.051 2.051-2.051h38.195c1.133 0 2.051.918 2.051 2.051v12.135c0 1.132-.918 2.051-2.051 2.051z" fill="#e0ebfc"/></g><g><path d="m120.976 245.46h-58.305c-1.104 0-2-.896-2-2v-74.698c0-1.104.896-2 2-2h54.34c3.289 0 5.964 2.676 5.964 5.964v70.734c.001 1.104-.895 2-1.999 2zm-56.305-4h54.304v-68.734c0-1.083-.881-1.964-1.964-1.964h-52.34z" fill="#3762cc"/></g><g><path d="m62.671 245.46h-9.718c-1.104 0-2-.896-2-2v-70.734c0-3.288 2.676-5.964 5.964-5.964h5.753c1.104 0 2 .896 2 2v74.698c.001 1.104-.894 2-1.999 2zm-7.717-4h5.718v-70.698h-3.753c-1.083 0-1.964.881-1.964 1.964v68.734z" fill="#3762cc"/></g><g><path d="m140.513 239.517v-26.444c0-1.451-.786-2.788-2.054-3.494l-6.713-3.736c-1.487-.827-3.16-1.262-4.862-1.262h-13.026c-5.105 0-10.125 1.303-14.585 3.785l-.003.002c-.869.483-1.854.716-2.848.673l-62.337-2.718c-9.039-.394-17.215 5.333-19.934 13.962-1.232 3.909-1.232 8.103 0 12.012 2.719 8.629 10.895 14.356 19.934 13.962l62.341-2.718c.993-.043 1.979.19 2.848.673 4.46 2.482 9.48 3.785 14.585 3.785h13.094c1.713 0 3.397-.44 4.891-1.278l6.628-3.717c1.26-.707 2.041-2.041 2.041-3.487z" fill="#f9cfcf"/></g><g><path d="m126.952 250h-13.094c-5.432 0-10.812-1.396-15.558-4.037-.546-.305-1.167-.45-1.787-.423l-62.342 2.718c-9.935.407-18.943-5.885-21.929-15.36-1.361-4.32-1.361-8.89 0-13.213 2.986-9.477 12.004-15.785 21.929-15.359l62.336 2.718c.623.024 1.242-.118 1.788-.423 4.75-2.643 10.129-4.039 15.561-4.039h13.026c2.036 0 4.054.523 5.834 1.514l6.713 3.737c1.9 1.057 3.082 3.064 3.082 5.241v26.443c0 2.167-1.174 4.172-3.063 5.232l-6.629 3.717c-1.787 1.004-3.816 1.534-5.867 1.534zm-30.288-8.463c1.251 0 2.483.318 3.582.93 4.153 2.312 8.86 3.533 13.612 3.533h13.094c1.367 0 2.72-.354 3.912-1.022l6.628-3.717c.629-.354 1.021-1.021 1.021-1.744v-26.443c0-.726-.393-1.395-1.026-1.746l-6.714-3.737c-1.187-.66-2.532-1.009-3.889-1.009h-13.026c-4.752 0-9.459 1.222-13.612 3.533-1.198.666-2.547.986-3.912.925l-62.335-2.718c-8.123-.356-15.497 4.813-17.939 12.564-1.114 3.537-1.114 7.275 0 10.811 2.442 7.752 9.819 12.922 17.939 12.565l62.34-2.718c.108-.005.216-.007.325-.007z" fill="#3762cc"/></g><g><circle cx="192.773" cy="186.051" fill="#6bdddd" r="50"/></g><g><path d="m192.773 223.139c-20.45 0-37.089-16.638-37.089-37.088s16.638-37.088 37.089-37.088 37.087 16.637 37.087 37.088-16.637 37.088-37.087 37.088z" fill="#ffea92"/></g><g><path d="m192.773 238.051c-28.673 0-52-23.327-52-52s23.327-52 52-52 52 23.327 52 52-23.327 52-52 52zm0-100c-26.467 0-48 21.532-48 48s21.533 48 48 48 48-21.532 48-48-21.533-48-48-48z" fill="#3762cc"/></g><g><path d="m183.868 214.841c-.01 0-.019 0-.028 0-2.903-.009-5.639-1.427-7.317-3.794l-12.345-17.388c-1.919-2.705-1.284-6.453 1.421-8.373 2.706-1.922 6.454-1.282 8.373 1.42l9.913 13.962 25.927-36.046c1.937-2.693 5.69-3.304 8.382-1.369 2.692 1.937 3.305 5.689 1.368 8.382l-28.381 39.458c-1.689 2.348-4.422 3.748-7.313 3.748z" fill="#f9a7a7"/></g></g></svg>