<svg id="Capa_1" enable-background="new 0 0 512 512" viewBox="0 0 512 512" xmlns="http://www.w3.org/2000/svg"><g><g><path d="m448.527 410.344h-55.027l39.475 90.574c1.625 3.73 5.307 6.141 9.375 6.141h16.689c6.627 0 11.504-6.206 9.937-12.644z" fill="#676fb2"/><path d="m45.656 410.344h55.028l-39.475 90.574c-1.625 3.73-5.307 6.141-9.375 6.141h-16.69c-6.627 0-11.504-6.206-9.937-12.644z" fill="#4c5699"/><g><g><g><path d="m309.322 281.296v48.522h-59.689l-8.757-48.522c0-21.005 11.034-43.268 38.601-47.821 17.679 8.664 29.845 26.826 29.845 47.821z" fill="#83deff"/><path d="m279.478 233.475c-17.678 8.653-29.844 26.816-29.844 47.821v48.522h-46.729v-48.522c0-29.381 23.818-53.209 53.209-53.209 8.385 0 16.307 1.937 23.364 5.388z" fill="#2ecefb"/><g><path d="m318.82 193.401c0 22.355-14.69 41.65-35.953 50.623-44.875-2.516-56.181-28.268-56.181-50.623s18.059-51.98 56.181-50.633c21.263 8.983 35.953 28.278 35.953 50.633z" fill="#ffddcf"/></g><g><path d="m282.867 244.024c-8.149 3.451-17.276 5.378-26.898 5.378-34.707 0-62.851-25.075-62.851-56.001 0-30.936 28.145-56.011 62.851-56.011 9.622 0 18.749 1.926 26.898 5.378-21.253 8.983-35.953 28.278-35.953 50.633s14.701 41.65 35.953 50.623z" fill="#ffcbbe"/></g></g><g><path d="m464.529 290.763v42.186l-50.314 19.058-13.341-4.533c-22.547-28.232-15.015-91.331 16.483-109.58 26.538 2.998 47.172 25.528 47.172 52.869z" fill="#70dcba"/><path d="m400.874 347.475-42.763-14.526v-42.186c0-29.381 23.818-53.209 53.209-53.209 2.04 0 4.059.113 6.037.34-20.892 29.361-22.386 74.153-16.483 109.581z" fill="#30cd9c"/><path d="m464.529 332.949v57.237h-50.922c-15.735-8.936-25.873-34.7-14.659-57.237z" fill="#676fb2"/><path d="m413.607 390.186h-55.496v-57.237h40.836c2.339 23.53 8.211 44.648 14.66 57.237z" fill="#4c5699"/><path d="m512 311.48v36.633c0 43.917-35.727 79.643-79.654 79.643h-14.505c-35.08-7.481-31.982-40.86-8.53-47.471h23.035c17.75 0 32.183-14.433 32.183-32.173v-36.632c0-13.094 10.642-23.746 23.735-23.746 13.084.001 23.736 10.653 23.736 23.746z" fill="#83deff"/><path d="m417.841 427.757h-101.411l47.481-47.471h45.4c-10.373 7.665-13.577 35.675 8.53 47.471z" fill="#2ecefb"/><g><path d="m474.172 193.401c0 22.355-14.701 41.65-35.953 50.623-41.046-2.704-48.054-28.268-48.054-50.623s17.237-47.924 48.054-50.633c21.252 8.983 35.953 28.278 35.953 50.633z" fill="#ffddcf"/></g><g><path d="m438.218 244.024c-8.149 3.451-17.276 5.378-26.898 5.378-34.717 0-62.862-25.075-62.862-56.001 0-30.936 28.145-56.011 62.862-56.011 9.622 0 18.749 1.926 26.898 5.378-21.263 8.983-35.953 28.278-35.953 50.633s14.69 41.65 35.953 50.623z" fill="#ffcbbe"/></g></g><g><path d="m153.888 290.763v42.186l-56.104 19.058-5.872-2.225c-22.311-30.758-17.944-85.342 15.927-111.754 26.002 3.503 46.049 25.786 46.049 52.735z" fill="#bd9cde"/><path d="m91.913 349.783-44.442-16.833v-42.186c0-29.381 23.828-53.209 53.209-53.209 2.431 0 4.821.165 7.16.474-21.573 33.552-23.221 78.046-15.927 111.754z" fill="#b18cd9"/><path d="m153.888 332.949v57.237h-45.215c-25.966-6.535-32.522-36.01-19.522-57.237z" fill="#676fb2"/><path d="m108.674 390.186h-61.203v-57.237h41.681c2.792 24.58 10.415 45.864 19.522 57.237z" fill="#4c5699"/><path d="m195.57 427.757h-93.201c-31.127-9.374-27.652-41.468 0-47.471h45.719z" fill="#83deff"/><path d="m102.369 427.757h-22.715c-43.927 0-79.654-35.727-79.654-79.643v-36.634c0-13.094 10.652-23.746 23.735-23.746 13.094 0 23.735 10.652 23.735 23.746v36.633c0 17.74 14.433 32.173 32.183 32.173h22.715c-16.945 7.984-17.378 35.425.001 47.471z" fill="#2ecefb"/><g><path d="m163.541 193.401c0 22.355-14.701 41.64-35.953 50.623-38.847-2.734-49.933-28.268-49.933-50.623s12.827-50.633 49.933-50.633c21.253 8.983 35.953 28.278 35.953 50.633z" fill="#ffddcf"/></g><g><path d="m127.588 244.024c-8.159 3.451-17.276 5.378-26.908 5.378-34.707 0-62.851-25.075-62.851-56.001 0-30.936 28.145-56.011 62.851-56.011 9.632 0 18.749 1.926 26.908 5.378-21.263 8.983-35.953 28.278-35.953 50.633s14.69 41.65 35.953 50.623z" fill="#ffcbbe"/></g></g></g><path d="m366.312 337.4v155.897c0 7.601-6.162 13.763-13.763 13.763h-17.029c-7.601 0-13.763-6.162-13.763-13.763v-13.519c0-1.051-.852-1.903-1.903-1.903h-51.924c-61.012-16.069-70.306-102.234-23.272-140.475z" fill="#e4996d"/><path d="m267.93 477.875h-75.556c-1.051 0-1.903.852-1.903 1.903v13.519c0 7.601-6.162 13.763-13.763 13.763h-17.039c-7.601 0-13.763-6.162-13.763-13.763v-155.897h98.753c-28.352 50.355-7.676 116.575 23.271 140.475z" fill="#df8a57"/><path d="m404.593 330.559c0 5.924-2.4 11.291-6.284 15.164-3.874 3.884-9.241 6.284-15.164 6.284h-142.268c-23.459 0-33.96-9.601-33.96-21.448 0-5.924 2.4-11.291 6.284-15.164 3.884-3.884 11.203-6.284 27.676-6.284h142.268c11.847 0 21.448 9.601 21.448 21.448z" fill="#eaaa83"/><path d="m240.877 352.008h-111.795c-11.857 0-21.459-9.601-21.459-21.448 0-5.924 2.4-11.291 6.284-15.164 3.884-3.884 9.241-6.284 15.175-6.284h111.795c-5.924 0-11.291 2.4-15.175 6.284-3.884 3.873-6.284 9.241-6.284 15.164 0 11.846 9.612 21.448 21.459 21.448z" fill="#e4996d"/></g></g><g><path d="m412.948 100.005c1.319 4.141-2.926 7.86-6.861 6.016l-28.124-13.238c-5.058 1.896-10.508 3.379-16.236 4.368-49.98-7.551-51.117-76.498-15.71-92.201 37.468.536 67.59 21.294 67.59 46.832 0 8.283-3.173 16.06-8.726 22.808z" fill="#efedff"/><path d="m361.727 97.151c-5.491.958-11.25 1.463-17.183 1.463-38.148 0-69.063-20.964-69.063-46.832s30.916-46.842 69.063-46.842c.494 0 .989 0 1.473.01-24.333 31.987-11.95 74.029 15.71 92.201z" fill="#d4d4ff"/><path d="m236.519 51.782c0 22.654-23.715 41.547-55.238 45.895-43.686-15.962-43.975-75.371-11.919-92.727 37.261.69 67.157 21.397 67.157 46.832z" fill="#efedff"/><path d="m181.281 97.677c-4.471.618-9.086.937-13.825.937-12.125 0-23.509-2.112-33.419-5.831l-28.124 13.238c-3.935 1.844-8.18-1.875-6.861-6.016l8.066-25.415c-5.553-6.748-8.726-14.526-8.726-22.808 0-25.868 30.916-46.842 69.063-46.842.639 0 1.277.01 1.906.01-17.203 24.529-14.741 67.796 11.92 92.727z" fill="#d4d4ff"/></g><g><path d="m198.9 51.775c0 4.15-3.35 7.5-7.5 7.5h-31.24c-7.841-2.756-7.999-11.152-1.71-15h32.95c4.15 0 7.5 3.36 7.5 7.5z" fill="#676fb2"/><path d="m160.16 59.275h-16.65c-4.15 0-7.5-3.35-7.5-7.5 0-4.14 3.35-7.5 7.5-7.5h14.94c.09 4.98.66 10.02 1.71 15z" fill="#4c5699"/></g><g><path d="m375.99 51.775c0 4.15-3.35 7.5-7.5 7.5h-33.41c-6.924-3.547-7.241-10.201-2.06-15h35.47c4.15 0 7.5 3.36 7.5 7.5z" fill="#676fb2"/><path d="m335.08 59.275h-14.48c-4.15 0-7.5-3.35-7.5-7.5 0-4.14 3.35-7.5 7.5-7.5h12.42c.09 5.1.81 10.13 2.06 15z" fill="#4c5699"/></g></g><g/><g/><g/><g/><g/><g/><g/><g/><g/><g/><g/><g/><g/><g/><g/></svg>