<svg clip-rule="evenodd" fill-rule="evenodd" height="7.111in" image-rendering="optimizeQuality" shape-rendering="geometricPrecision" text-rendering="geometricPrecision" viewBox="0 0 7111 7111" width="7.111in" xmlns="http://www.w3.org/2000/svg"><g id="Layer_x0020_1"><path d="m4801 6657h-4502c-165 0-299-134-299-299v-5605c0-165 134-299 299-299h4502c164 0 298 134 298 299 0 1873 1 3698 1 5605 0 165-135 299-299 299z" fill="#ffe2cf"/><g fill="#5b6d7b"><path d="m4386 1639h-3673c-46 0-83-37-83-83s37-84 83-84h3673c46 0 84 38 84 84s-37 83-84 83z"/><path d="m4334 2576h-3621c-46 0-83-37-83-83s37-83 83-83h3621c46 0 83 37 83 83s-37 83-83 83z"/><path d="m3317 3514h-2604c-46 0-83-37-83-83s37-84 83-84h2604c46 0 83 38 83 84s-37 83-83 83z"/><path d="m4386 4451h-3673c-46 0-83-37-83-83s37-83 83-83h3673c46 0 84 37 84 83s-37 83-84 83z"/><path d="m4386 5389h-3673c-46 0-83-37-83-84 0-46 37-83 83-83h3673c46 0 84 37 84 83 0 47-37 84-84 84z"/></g><path d="m3314 3306 2628-2388c34-31 87-28 118 6l592 651c14 16 22 38 21 60s-11 43-27 57l-2672 2428 46-42z" fill="#335f8c"/><path d="m2962 4416c-23 0-45-10-61-28-22-23-28-57-16-86l363-925c5-12 13-23 22-31l60-55 706 773-62 56c-10 9-21 15-34 19l-955 273c-7 3-15 4-23 4z" fill="#f0b885"/><path d="m5937 923c2-2 3-4 5-5l304-276c97-89 223-134 355-127 132 6 254 63 342 160l40 44c183 202 168 515-33 698l-302 273z" fill="#d62966"/></g></svg>