<svg id="Layer_1" enable-background="new 0 0 512 512" viewBox="0 0 512 512" xmlns="http://www.w3.org/2000/svg"><g clip-rule="evenodd" fill-rule="evenodd"><g><path d="m348.499 340.632-163.333 2.094-36.288 62.269c-1.594 2.736.562 5.736 3.296 5.736h230.535c2.734 0 4.89-3 3.296-5.736z" fill="#003748"/><path d="m477.981 9.001c13.499 0 24.545 11.044 24.545 24.545v295.474c0 13.501-11.046 24.546-24.545 24.546h-421.079c-13.5 0-24.545-11.044-24.545-24.546v-295.474c0-13.501 11.046-24.545 24.545-24.545z" fill="#e6f8ff"/><path d="m502.527 312.468h-470.17v16.553c0 13.501 11.046 24.545 24.545 24.545h421.079c13.499 0 24.545-11.044 24.545-24.545v-16.553z" fill="#004960"/></g><g><path d="m377.13 207.27h22.245c3.145 0 5.71 2.565 5.71 5.71v84.26c0 3.145-2.565 5.71-5.71 5.71h-22.245c-3.145 0-5.71-2.565-5.71-5.71v-84.26c-.001-3.145 2.565-5.71 5.71-5.71z" fill="#ffda2d"/><path d="m318.341 179.322h22.244c3.145 0 5.71 2.565 5.71 5.71v112.207c0 3.145-2.565 5.71-5.71 5.71h-22.244c-3.145 0-5.71-2.565-5.71-5.71v-112.207c0-3.145 2.565-5.71 5.71-5.71z" fill="#72d561"/><path d="m259.552 244.309h22.244c3.145 0 5.71 2.565 5.71 5.71v47.22c0 3.145-2.565 5.71-5.71 5.71h-22.244c-3.145 0-5.71-2.565-5.71-5.71v-47.22c0-3.145 2.565-5.71 5.71-5.71z" fill="#fc685b"/><g fill="#64b5f6"><path d="m435.919 152.991h22.244c3.145 0 5.71 2.565 5.71 5.71v138.538c0 3.145-2.565 5.71-5.71 5.71h-22.244c-3.145 0-5.71-2.565-5.71-5.71v-138.538c-.001-3.145 2.564-5.71 5.71-5.71z"/><path d="m276.682 212.11c-2.562 3.318-7.33 3.93-10.648 1.368s-3.931-7.33-1.368-10.648l58.789-76.435c2.491-3.226 7.067-3.894 10.369-1.573l53.67 35.966 42.739-39.46-5.806-.273c-4.189-.197-7.424-3.753-7.227-7.941s3.753-7.424 7.941-7.227l24.782 1.167c4.189.197 7.424 3.753 7.227 7.941-.022.47-.087.928-.19 1.37l-4.364 24.022c-.739 4.123-4.681 6.866-8.804 6.127s-6.866-4.681-6.127-8.804l.559-3.074-44.827 41.388-.006-.007c-2.52 2.323-6.39 2.711-9.363.72l-52.883-35.438z"/></g></g><path d="m253.842 55.516c-4.205 0-7.614-3.409-7.614-7.614s3.409-7.614 7.614-7.614h114.855c4.205 0 7.614 3.409 7.614 7.614s-3.409 7.614-7.614 7.614zm-175.501 234.069c-4.205 0-7.614-3.409-7.614-7.614s3.409-7.614 7.614-7.614h123.591c4.205 0 7.614 3.409 7.614 7.614s-3.409 7.614-7.614 7.614zm0-31.418c-4.188 0-7.584-3.396-7.584-7.584s3.396-7.584 7.584-7.584h123.591c4.189 0 7.584 3.396 7.584 7.584s-3.396 7.584-7.584 7.584zm0-31.358c-4.205 0-7.614-3.409-7.614-7.614s3.409-7.614 7.614-7.614h123.591c4.205 0 7.614 3.409 7.614 7.614s-3.409 7.614-7.614 7.614zm175.501-108.517c-4.205 0-7.614-3.409-7.614-7.614s3.409-7.614 7.614-7.614h114.855c4.205 0 7.614 3.409 7.614 7.614s-3.409 7.614-7.614 7.614zm0-31.417c-4.188 0-7.584-3.396-7.584-7.584s3.396-7.584 7.584-7.584h114.855c4.189 0 7.584 3.396 7.584 7.584s-3.396 7.584-7.584 7.584z" fill="#8d9ca8"/><g><ellipse cx="140.136" cy="115.705" fill="#64b5f6" rx="75.94" ry="75.94" transform="matrix(.276 -.961 .961 .276 -9.718 218.513)"/><path d="m140.136 39.764-.001 75.941 69.747 30.088c3.986-9.226 6.194-19.399 6.194-30.089.001-41.94-33.999-75.94-75.94-75.94z" fill="#ffda2d"/><path d="m209.883 145.794-69.747-30.089-45.602 60.73c12.699 9.55 28.489 15.211 45.602 15.211 31.252-.001 58.094-18.878 69.747-45.852z" fill="#72d561"/><path d="m140.136 147.577c17.555 0 31.873-14.318 31.873-31.873s-14.318-31.873-31.873-31.873c-17.554 0-31.872 14.318-31.872 31.873 0 17.556 14.318 31.873 31.872 31.873z" fill="#eff4f7"/></g><g><path d="m94.501 433.487-15.001-16.03 30.314-30.314 16.074 14.957z" fill="#8d9ca8"/><ellipse cx="176.073" cy="336.398" fill="#64b5f6" rx="91.891" ry="91.891" transform="matrix(.707 -.707 .707 .707 -186.299 223.031)"/><path d="m176.072 268.046c-37.75 0-68.353 30.603-68.353 68.353s30.603 68.353 68.353 68.353 68.353-30.602 68.353-68.353-30.602-68.353-68.353-68.353z" fill="#e6f8ff"/><path d="m83.407 409.111 19.954 19.954c2.062 2.062 2.062 5.427 0 7.489l-60.785 60.785c-7.547 7.547-19.895 7.547-27.442 0-7.547-7.548-7.547-19.895 0-27.442l60.784-60.785c2.062-2.063 5.427-2.063 7.489-.001z" fill="#c97629"/><path d="m103.36 436.554-13.929 13.928-27.441-27.442 13.929-13.929c2.062-2.062 5.427-2.062 7.489 0 6.651 6.651 13.302 13.303 19.953 19.954 2.062 2.062 2.062 5.427-.001 7.489z" fill="#da8c36"/></g></g></svg>