<svg height="512" viewBox="0 0 128 128" width="512" xmlns="http://www.w3.org/2000/svg"><g><path d="m99.973 7.182h-71.946a5.771 5.771 0 0 0 -5.771 5.771v94.647a5.082 5.082 0 0 0 1.979 4.025l11.929 9.193 13.911-10.718 13.915 10.718 13.91-10.718 13.921 10.719 11.94-9.193a5.083 5.083 0 0 0 1.981-4.026v-94.647a5.771 5.771 0 0 0 -5.769-5.771z" fill="#ecebfd"/><path d="m64 40.023c-.521 0-1.041.03-1.542.079a14.212 14.212 0 0 0 0 28.256 13.254 13.254 0 0 0 1.542.088 14.212 14.212 0 1 0 0-28.423z" fill="#fdcb71"/><path d="m66.786 51.085a1.75 1.75 0 0 0 0-3.5h-1.038v-1.423a1.75 1.75 0 0 0 -3.5 0v1.457a3.114 3.114 0 0 0 -2.788 3.087v2.154a3.124 3.124 0 0 0 3.121 3.121h2.455v1.4h-3.826a1.75 1.75 0 0 0 0 3.5h1.038v1.419a1.75 1.75 0 0 0 3.5 0v-1.457a3.114 3.114 0 0 0 2.788-3.087v-2.156a3.125 3.125 0 0 0 -3.121-3.122h-2.455v-1.4z" fill="#fdb158"/><g fill="#696eaf"><path d="m53.259 18.708a1.75 1.75 0 1 0 0-3.5h-6.969a1.749 1.749 0 0 0 -1.75 1.75v14.3a1.75 1.75 0 0 0 3.5 0v-5.4h5.219a1.75 1.75 0 0 0 0-3.5h-5.219v-3.65z"/><path d="m67.484 18.708a1.75 1.75 0 1 0 0-3.5h-6.968a1.749 1.749 0 0 0 -1.75 1.75v14.3a1.749 1.749 0 0 0 1.75 1.75h6.968a1.75 1.75 0 0 0 0-3.5h-5.218v-3.649h5.218a1.75 1.75 0 0 0 0-3.5h-5.218v-3.651z"/><path d="m81.71 18.708a1.75 1.75 0 1 0 0-3.5h-6.969a1.749 1.749 0 0 0 -1.75 1.75v14.3a1.749 1.749 0 0 0 1.75 1.75h6.969a1.75 1.75 0 0 0 0-3.5h-5.219v-3.649h5.219a1.75 1.75 0 0 0 0-3.5h-5.219v-3.651z"/><path d="m64.929 75.75h-29.429a1.75 1.75 0 0 0 0 3.5h29.429a1.75 1.75 0 0 0 0-3.5z"/><path d="m92.5 75.75h-14.7a1.75 1.75 0 0 0 0 3.5h14.7a1.75 1.75 0 0 0 0-3.5z"/><path d="m64.929 85.179h-29.429a1.75 1.75 0 0 0 0 3.5h29.429a1.75 1.75 0 0 0 0-3.5z"/><path d="m92.5 85.179h-14.7a1.75 1.75 0 0 0 0 3.5h14.7a1.75 1.75 0 0 0 0-3.5z"/><path d="m64.929 94.607h-29.429a1.75 1.75 0 0 0 0 3.5h29.429a1.75 1.75 0 0 0 0-3.5z"/><path d="m92.5 94.607h-14.7a1.75 1.75 0 0 0 0 3.5h14.7a1.75 1.75 0 0 0 0-3.5z"/></g></g></svg>