<svg height="464pt" viewBox="0 0 464 464" width="464pt" xmlns="http://www.w3.org/2000/svg"><path d="m16 208h432v256h-432zm0 0" fill="#cfdfe8"/><path d="m0 0h464v128h-464zm0 0" fill="#f4f4e6"/><g fill="#da1c4b"><path d="m152 104h-32c-4.417969 0-8-3.582031-8-8v-64c0-4.417969 3.582031-8 8-8h32c4.417969 0 8 3.582031 8 8v64c0 4.417969-3.582031 8-8 8zm-24-16h16v-48h-16zm0 0"/><path d="m216 104h-40v-16h32v-16h-24c-4.417969 0-8-3.582031-8-8v-32c0-4.417969 3.582031-8 8-8h40v16h-32v16h24c4.417969 0 8 3.582031 8 8v32c0 4.417969-3.582031 8-8 8zm0 0"/><path d="m80 56h-16v-32h-16v80h16v-32h16v32h16v-80h-16zm0 0"/><path d="m240 40h16v64h16v-64h16v-16h-48zm0 0"/><path d="m352 40v-16h-40c-4.417969 0-8 3.582031-8 8v64c0 4.417969 3.582031 8 8 8h40v-16h-32v-16h32v-16h-32v-16zm0 0"/><path d="m416 104h-40c-4.417969 0-8-3.582031-8-8v-72h16v64h32zm0 0"/></g><path d="m56 240h64v64h-64zm0 0" fill="#2d75bb"/><path d="m152 240h64v64h-64zm0 0" fill="#2d75bb"/><path d="m248 240h64v64h-64zm0 0" fill="#2d75bb"/><path d="m344 240h64v64h-64zm0 0" fill="#2d75bb"/><path d="m56 336h64v64h-64zm0 0" fill="#2d75bb"/><path d="m344 336h64v64h-64zm0 0" fill="#2d75bb"/><path d="m152 336h80v128h-80zm0 0" fill="#aec7d3"/><path d="m232 336h80v128h-80zm0 0" fill="#94b3bf"/><path d="m192 384h16v16h-16zm0 0" fill="#394d5c"/><path d="m256 384h16v16h-16zm0 0" fill="#394d5c"/><path d="m16 432h136v32h-136zm0 0" fill="#394d5c"/><path d="m312 432h136v32h-136zm0 0" fill="#394d5c"/><path d="m48 128h32v80h-32zm0 0" fill="#394d5c"/><path d="m392 128h32v80h-32zm0 0" fill="#394d5c"/></svg>