<svg id="Layer_1" height="512" viewBox="0 0 512 512" width="512" xmlns="http://www.w3.org/2000/svg" data-name="Layer 1"><path d="m32.058 74.011h340.9v411.162h-340.9z" fill="#006694" fill-rule="evenodd"/><path d="m75.541 26.827h258.798l82.098 82.098v329.064h-340.896z" fill="#eaf6ff" fill-rule="evenodd"/><path d="m334.339 26.827v82.098h82.098z" fill="#d3dde6" fill-rule="evenodd"/><path d="m115.643 80.015a7.2 7.2 0 0 1 0-14.4h90.142a7.2 7.2 0 1 1 0 14.4zm0 128.378a7.184 7.184 0 1 1 0-14.368h218.7a7.184 7.184 0 1 1 0 14.368zm0-42.783a7.2 7.2 0 0 1 0-14.4h166.849a7.2 7.2 0 0 1 0 14.4zm0-42.812a7.2 7.2 0 0 1 0-14.4h166.849a7.2 7.2 0 0 1 0 14.4z" fill="#d3dde6"/><path d="m5.129 264h272.234a5.131 5.131 0 0 1 5.129 5.1v104.627a5.137 5.137 0 0 1 -5.129 5.129h-272.234a5.137 5.137 0 0 1 -5.129-5.129v-104.627a5.131 5.131 0 0 1 5.129-5.1z" fill="#e6404d" fill-rule="evenodd"/><path d="m144.933 355.308a7.188 7.188 0 0 1 -13.494-4.955l23.228-63.271a7.182 7.182 0 0 1 13.493 0l23.2 63.271a7.188 7.188 0 0 1 -13.494 4.955l-6.47-17.6h-19.996zm16.467-44.882-4.721 12.882h9.442zm-75.134 46.222a7.176 7.176 0 0 1 -12.153-7.635l17.487-27.833-17.486-27.8a7.176 7.176 0 0 1 12.153-7.636l13.814 21.975 13.844-21.975a7.164 7.164 0 0 1 12.124 7.636l-17.487 27.8 17.487 27.833a7.164 7.164 0 0 1 -12.124 7.635l-13.845-21.974zm-62.484-67.089a7.214 7.214 0 0 1 7.2-7.2 3.548 3.548 0 0 1 .554.029 3.182 3.182 0 0 1 .524-.029h26.869a7.2 7.2 0 0 1 0 14.4h-20.75v17.224h20.75a7.2 7.2 0 0 1 0 14.4h-20.75v17.253h20.75a7.2 7.2 0 0 1 0 14.4h-26.871c-.174 0-.349-.029-.524-.029s-.379.029-.554.029a7.214 7.214 0 0 1 -7.2-7.2zm188.5 63.738a7.2 7.2 0 0 1 -14.4 0v-63.272a7.2 7.2 0 0 1 13.873-2.71l16.529 33.285 16.787-33.748a7.177 7.177 0 0 1 13.61 3.176v63.272a7.184 7.184 0 1 1 -14.368 0v-32.644l-9.588 19.264a7.089 7.089 0 0 1 -3.264 3.264 7.187 7.187 0 0 1 -9.618-3.264l-9.559-19.264z" fill="#eaf6ff"/><g fill-rule="evenodd"><path d="m496.175 101.61a31.8 31.8 0 0 1 11.6 43.308l-116.781 202.259-54.877 31.679v-63.388l116.783-202.259a31.769 31.769 0 0 1 43.279-11.6z" fill="#f93"/><path d="m496.175 101.61a31.8 31.8 0 0 1 11.6 43.308l-116.781 202.259-54.877 31.679z" fill="#fb3"/><path d="m390.994 347.177-54.877 31.679v-63.388z" fill="#4f5c6f"/><path d="m496.175 101.61a31.8 31.8 0 0 1 11.6 43.308l-54.875-31.709a31.769 31.769 0 0 1 43.279-11.6z" fill="#e65c5c"/><path d="m496.175 101.61.7.437c.233.117.467.263.7.408.233.146.437.292.67.467a28.77 28.77 0 0 1 3.119 2.448c.407.35.786.7 1.165 1.049.35.379.729.758 1.079 1.136a26.381 26.381 0 0 1 1.981 2.39c.146.2.321.408.467.613a37.647 37.647 0 0 1 2.04 3.235l.349.7c.234.437.467.9.671 1.37a30.823 30.823 0 0 1 1.369 3.555c.088.233.146.467.234.729.058.233.116.466.2.728q.174.744.349 1.487a6.253 6.253 0 0 1 .146.728c.058.263.088.5.146.758.029.262.087.5.116.758.059.495.146.991.175 1.515.059.5.088 1.02.117 1.516.029.524.029 1.02.029 1.544v.758c0 .262-.029.5-.029.758-.029.262-.029.525-.058.787a7.207 7.207 0 0 1 -.059.757c-.029.263-.058.5-.087.758-.029.263-.058.525-.088.758-.058.262-.087.525-.145.787-.029.233-.088.5-.117.757-.058.263-.117.5-.175.758-.058.263-.116.5-.175.758-.058.262-.145.5-.2.758-.058.262-.145.495-.2.758-.087.233-.175.5-.262.728a5.818 5.818 0 0 1 -.262.758c-.088.262-.175.495-.263.758-.087.233-.2.466-.291.728-.116.234-.2.5-.321.729-.116.233-.233.5-.349.728-.117.234-.233.5-.35.729-.117.233-.262.466-.379.7a5.829 5.829 0 0 1 -.408.729l-27.459-15.856z" fill="#f66"/><path d="m92.794 378.856h-17.253v59.133h17.253zm0-114.856v-237.173h-17.253v237.173z" fill="#d3dde6"/><path d="m14.193 373.727v-104.627a5.131 5.131 0 0 1 5.129-5.1h-14.193a5.131 5.131 0 0 0 -5.129 5.1v104.627a5.137 5.137 0 0 0 5.129 5.129h14.193a5.137 5.137 0 0 1 -5.129-5.129z" fill="#cf3a45"/></g></svg>