<svg enable-background="new 0 0 512 512" height="512" viewBox="0 0 512 512" width="512" xmlns="http://www.w3.org/2000/svg"><g id="_x31_8_Address_Book"><g><path d="m89.552 505.688c-34.13 0-61.839-27.71-61.839-61.839v-375.697c0-34.198 27.709-61.839 61.839-61.839h288.434c34.129 0 61.839 27.641 61.839 61.839v375.697c0 34.129-27.71 61.839-61.839 61.839" fill="#faa629"/><path d="m114.342 6.312v499.375h-24.809c-34.106 0-61.838-27.732-61.838-61.838v-375.7c0-34.212 27.731-61.837 61.838-61.837z" fill="#d81a60"/><path d="m484.305 93.649v53.019c0 5.419-4.409 9.828-9.828 9.828h-34.638v-72.676h34.638c5.418 0 9.828 4.41 9.828 9.829z" fill="#d81a60"/><path d="m484.305 186.086v53.019c0 5.418-4.409 9.828-9.828 9.828h-34.638v-72.675h34.638c5.418.001 9.828 4.41 9.828 9.828z" fill="#3eb655"/><path d="m484.305 278.471v53.019c0 5.419-4.409 9.828-9.828 9.828h-34.638v-72.675h34.638c5.418-.001 9.828 4.409 9.828 9.828z" fill="#41b3e7"/><path d="m439.839 83.82h15.938v72.675h-15.938z" opacity=".1"/><path d="m439.839 176.259h15.938v72.675h-15.938z" opacity=".1"/><path d="m439.839 268.642h15.938v72.675h-15.938z" opacity=".1"/><g fill="#fff"><path d="m313.988 200.654c0 20.376-16.504 36.88-36.88 36.88s-36.928-16.504-36.928-36.88c0-20.424 16.553-36.927 36.928-36.927s36.88 16.503 36.88 36.927z"/><path d="m346.28 323.065h-138.391c-9.722 0-17.106-8.978-14.928-18.435 8.66-38.409 42.979-67.096 84.097-67.096 41.066 0 75.437 28.687 84.15 67.096 2.178 9.457-5.207 18.435-14.928 18.435z"/></g></g></g></svg>