<svg height="512" viewBox="0 0 58 58" width="512" xmlns="http://www.w3.org/2000/svg"><g id="Page-1" fill="none" fill-rule="evenodd"><g id="044---Server-Protection" fill-rule="nonzero"><path id="Shape" d="m16.29 46h-14.29c-1.10320187-.0032948-1.9967052-.8967981-2-2v-8c.0032948-1.1032019.89679813-1.9967052 2-2h12z" fill="#3b97d3"/><circle id="Oval" cx="7" cy="40" fill="#65ddb9" r="2"/><path id="Shape" d="m57 54c-.0032948 1.1032019-.8967981 1.9967052-2 2h-23c1.7231723-1.1296647 3.2957737-2.4737685 4.68-4h18.32c1.1011688.0081672 1.9918328.8988312 2 2z" fill="#f0c419"/><path id="Shape" d="m26 56.0000277-24-.0000277c-.53059053.0028231-1.0395388-.2101411-1.41-.59-.3798589-.3704612-.59282307-.8794095-.59-1.41.0032948-1.1032019.89679813-1.9967052 2-2h19.33c1.3829455 1.5237108 2.9519064 2.8675745 4.67 4.0000277z" fill="#f0c419"/><rect id="Rectangle-path" fill="#3b97d3" height="12" rx="2" width="58"/><path id="Shape" d="m53 5h-9c-.5522847 0-1-.44771525-1-1s.4477153-1 1-1h9c.5522847 0 1 .44771525 1 1s-.4477153 1-1 1z" fill="#285680"/><path id="Shape" d="m53 9h-9c-.5522847 0-1-.44771525-1-1s.4477153-1 1-1h9c.5522847 0 1 .44771525 1 1s-.4477153 1-1 1z" fill="#285680"/><path id="Shape" d="m40 5h-2c-.5522847 0-1-.44771525-1-1s.4477153-1 1-1h2c.5522847 0 1 .44771525 1 1s-.4477153 1-1 1z" fill="#285680"/><path id="Shape" d="m40 9h-2c-.5522847 0-1-.44771525-1-1s.4477153-1 1-1h2c.5522847 0 1 .44771525 1 1s-.4477153 1-1 1z" fill="#285680"/><path id="Shape" d="m44 34h12c1.1032019.0032948 1.9967052.8967981 2 2v8c-.0032948 1.1032019-.8967981 1.9967052-2 2h-14.29z" fill="#3b97d3"/><path id="Shape" d="m53 39h-9.11c-.5522847 0-1-.4477153-1-1s.4477153-1 1-1h9.11c.5522847 0 1 .4477153 1 1s-.4477153 1-1 1z" fill="#285680"/><path id="Shape" d="m53 43h-9.83c-.5522847 0-1-.4477153-1-1s.4477153-1 1-1h9.83c.5522847 0 1 .4477153 1 1s-.4477153 1-1 1z" fill="#285680"/><rect id="Rectangle-path" fill="#3b97d3" height="12" rx="2" width="58" y="17"/><path id="Shape" d="m53 22h-9c-.5522847 0-1-.4477153-1-1s.4477153-1 1-1h9c.5522847 0 1 .4477153 1 1s-.4477153 1-1 1z" fill="#285680"/><path id="Shape" d="m53 26h-6c-.5522847 0-1-.4477153-1-1s.4477153-1 1-1h6c.5522847 0 1 .4477153 1 1s-.4477153 1-1 1z" fill="#285680"/><path id="Shape" d="m40 22h-2c-.5522847 0-1-.4477153-1-1s.4477153-1 1-1h2c.5522847 0 1 .4477153 1 1s-.4477153 1-1 1z" fill="#285680"/><path id="Shape" d="m44 27.68v8.07c-.0067583 6.0096764-2.2488163 11.8019566-6.29 16.25-1.3842263 1.5262315-2.9568277 2.8703353-4.68 4h-.01c-1.0692658.7132762-2.1965631 1.335464-3.37 1.86-.4125151.1899604-.8874849.1899604-1.3 0-3.0571355-1.380045-5.7973653-3.3747961-8.05-5.86-.8008928-.8843226-1.5393396-1.8232526-2.21-2.81-.6811857-1.015435-1.2829732-2.0819362-1.8-3.19-1.5089045-3.2063173-2.2908691-6.7063772-2.29-10.25v-8.07c-.0023846-.8280048.6433134-1.5132353 1.47-1.56 2.76-.18 8.76-.9 12.54-3.78.5833253-.4499124 1.3966747-.4499124 1.98 0 3.78 2.88 9.78 3.6 12.54 3.78.8266866.0467647 1.4723846.7319952 1.47 1.56z" fill="#bdc3c7"/><path id="Shape" d="m29.487 53.823c-.3046031.1670374-.6733969.1670374-.978 0-2.8502289-1.5764637-5.2840373-3.8090543-7.1-6.513-2.2265523-3.31417-3.4135235-7.2173521-3.409-11.21v-4.973c-.0023771-.4943953.3589603-.9153875.848-.988 3.3755838-.4165576 6.6488943-1.4360801 9.664-3.01.3026241-.1719076.6733759-.1719076.976 0 3.0151057 1.5739199 6.2884162 2.5934424 9.664 3.01.4890397.0726125.8503771.4936047.848.988v4.973c-.0257469 7.3784853-4.0501529 14.1628995-10.513 17.723z" fill="#4fba6f"/><path id="Shape" d="m31 38c-.5522847 0-1-.4477153-1-1v-2c0-.5522847-.4477153-1-1-1s-1 .4477153-1 1v2c0 .5522847-.4477153 1-1 1s-1-.4477153-1-1v-2c0-1.6568542 1.3431458-3 3-3s3 1.3431458 3 3v2c0 .5522847-.4477153 1-1 1z" fill="#d1d4d1"/><g fill="#65ddb9"><circle id="Oval" cx="7" cy="6" r="2"/><circle id="Oval" cx="15" cy="6" r="2"/><circle id="Oval" cx="23" cy="6" r="2"/><circle id="Oval" cx="7" cy="23" r="2"/></g><path id="Shape" d="m29 54.6c-.3401622.0005434-.6749146-.085123-.973-.249-2.9868261-1.6567503-5.5385407-3.9977068-7.446-6.831-2.3390098-3.4784944-3.5859524-7.5762384-3.581-11.768v-4.978c.0021883-.9897266.7279491-1.8290071 1.707-1.974 3.2543595-.3975656 6.4100765-1.3800217 9.315-2.9.6072673-.3429172 1.3497327-.3429172 1.957 0 2.9045395 1.5200472 6.0599417 2.5025108 9.314 2.9.9790509.1449929 1.7048117.9842734 1.707 1.974v4.978c-.0214499 7.7424602-4.2448735 14.86281-11.029 18.594-.2969803.1654143-.6310621.2528054-.971.254zm-.005-2h.005c6.1495016-3.3792418 9.9790231-9.8312197 10-16.848v-4.978c-3.4966883-.4205917-6.8863152-1.4801891-10-3.126-3.1166672 1.6475654-6.5097748 2.7078692-10.01 3.128l.01 4.976c-.0042359 3.7927541 1.1239403 7.5004148 3.24 10.648 1.7297562 2.5709909 4.0439366 4.6956642 6.753 6.2z" fill="#ecf0f1"/><rect id="Rectangle-path" fill="#f3d55b" height="8" rx="1" width="8" x="25" y="37"/><circle id="Oval" cx="29" cy="41" fill="#a56a43" r="1"/></g></g></svg>