<svg id="Layer_1" enable-background="new 0 0 68 68" height="512" viewBox="0 0 68 68" width="512" xmlns="http://www.w3.org/2000/svg"><g id="_x31_05"><g><g><g><path d="m43.3936653 6.8258519v54.2589302c0 2.6651764-2.1605797 4.8258553-4.8258514 4.8258553h-31.5036497c-2.6651735 0-4.8257523-2.1606789-4.8257523-4.8258553v-54.2589302c0-2.6652732 2.1605787-4.8258519 4.8257523-4.8258519h31.5036507c2.6652707 0 4.8258504 2.1605787 4.8258504 4.8258519z" fill="#f3f1fc"/></g><g><path d="m2.2384119 54.8299294v6.2546539c0 2.6652718 2.1605787 4.8260536 4.8258524 4.8260536h31.5035496c2.6651726 0 4.8257523-2.1607819 4.8257523-4.8260536v-6.2546539z" fill="#57b3fe"/></g><g><path d="m43.1682816 62.5486374c-.619236 1.9472733-2.4467812 3.3653946-4.6036644 3.3653946h-31.4959593c-2.6662717 0-4.8333416-2.1670723-4.8333416-4.8333435v-6.2512589h2.0571237v3.6251297c0 2.666172 2.1571836 4.8232574 4.8233552 4.8232574h31.5059471c.9386863.0000001 1.807373-.2696227 2.5465393-.7291793z" fill="#497bfe"/></g><g><path d="m43.3935661 10.5337677v-3.7080154c0-2.6651736-2.1605796-4.8257523-4.8257522-4.8257523h-31.5035496c-2.6652737 0-4.8258524 2.1605787-4.8258524 4.8257523v3.7080154z" fill="#57b3fe"/></g><g><path d="m43.3979607 8.6539955v1.8775749h-41.1626444v-3.7050194c0-1.7676282.9488733-3.3052781 2.3667908-4.144105-.3695837.6791501-.569304 1.447875-.569304 2.26683 0 2.0460391 1.6586804 3.7047195 3.7048197 3.7047195z" fill="#497bfe"/></g><g><g><path d="m17.5328255 5.4693489h-.7487526c-.473938 0-.8580999.3841629-.8580999.8580999 0 .4739375.3841619.8581004.8580999.8581004h.7487526c.473938 0 .8581009-.3841629.8581009-.8581004 0-.473937-.3841629-.8580999-.8581009-.8580999z" fill="#497bfe"/></g><g><path d="m20.1060276 6.3274488c0 .4739375.3841629.8581004.8581009.8581004h4.8880653c.4738369 0 .8579998-.3841629.8579998-.8581004 0-.473937-.3841629-.8580999-.8579998-.8580999h-4.8880653c-.473938 0-.8581009.3841629-.8581009.8580999z" fill="#497bfe"/></g></g><g><path d="m25.9611416 60.302578c0 .9241066-.7492523 1.6732597-1.6735611 1.6732597h-5.9390945c-.9241085 0-1.6732597-.7491531-1.6732597-1.6732597 0-.9242096.7491512-1.6733627 1.6732597-1.6733627h5.9390945c.9243088-.0000001 1.6735611.7491531 1.6735611 1.6733627z" fill="#497bfe"/></g><g><path d="m25.9611416 59.8943481c0 .9242058-.7492523 1.6734581-1.6735611 1.6734581h-5.9390945c-.9241085 0-1.6732597-.7492523-1.6732597-1.6734581 0-.9241066.7491512-1.6732597 1.6732597-1.6732597h5.9390945c.9243088 0 1.6735611.7491531 1.6735611 1.6732597z" fill="#f3f1fc"/></g><g><g><path d="m17.5328255 5.2027216h-.7487526c-.473938 0-.8580999.3841629-.8580999.8581004 0 .473937.3841619.8580999.8580999.8580999h.7487526c.473938 0 .8581009-.3841629.8581009-.8580999 0-.4739375-.3841629-.8581004-.8581009-.8581004z" fill="#fff"/></g><g><path d="m20.1060276 6.060822c0 .473937.3841629.8580999.8581009.8580999h4.8880653c.4738369 0 .8579998-.3841629.8579998-.8580999 0-.4739375-.3841629-.8581004-.8579998-.8581004h-4.8880653c-.473938 0-.8581009.3841629-.8581009.8581004z" fill="#fff"/></g></g><g><path d="m7.5196276 13.4129419c0 .8593979-.6936302 1.5588198-1.5531287 1.5588198-.8593984 0-1.5588202-.6994219-1.5588202-1.5588198 0-.859499.6994219-1.55902 1.5588202-1.55902.8594985 0 1.5531287.6995211 1.5531287 1.55902z" fill="#dedffb"/></g><g><g><path d="m6.4865718 14.0764141c-.0443377 0-.0879769-.0168762-.1215301-.0504293l-1.046237-1.0468369c-.0671062-.0671062-.0671062-.1759539 0-.2430601.0678053-.0671062.1766529-.0671062.2431598 0l1.0461373 1.0468369c.0671062.0671062.0671062.1759539 0 .2430601-.0335531.0335531-.0778908.0504293-.12153.0504293z" fill="#fff"/></g></g><g><g><path d="m5.4403348 14.0764141c-.0442381 0-.0878773-.0168762-.1215301-.0504293-.0671062-.0671062-.0671062-.1759539 0-.2430601l1.046237-1.0468369c.0664072-.0671062.1752548-.0671062.2430601 0 .0671062.0671062.0671062.1759539 0 .2430601l-1.0461373 1.0468369c-.0336528.0335531-.077292.0504293-.1216297.0504293z" fill="#fff"/></g></g><g><path d="m41.6420135 12.661293v.8989429c0 .0900736-.072998.1630716-.1631699.1630716h-.4404831v.4761343c0 .0900736-.073101.1630716-.1631737.1630716h-3.722393c-.0900764 0-.1631737-.072998-.1631737-.1630716v-2.1773558c0-.0900736.0730972-.1630716.1631737-.1630716h3.722393c.0900726 0 .1631737.072998.1631737.1630716v.4761343h.4404831c.0901719.0000001.1631699.0729982.1631699.1630727z" fill="#dedffb"/></g></g><g><g><path d="m33.9076653 41.3064728c-3.4565811 5.5194244-10.726347 7.1919136-16.2457714 3.7353325-5.5188808-3.4454231-7.2028008-10.7263489-3.7462187-16.2455006 3.4451494-5.5191536 10.7372351-7.1916409 16.2566605-3.7464905 5.5188798 3.4565811 7.180478 10.7375088 3.7353296 16.2566586z" fill="#4b9534"/></g><g><path d="m34.4444847 35.3446617c-.7802734.119873-1.5200195.4897461-2.0800781 1.0498047-.4296856.4301758-.7299786.9399414-.8999004 1.4799805l-5.1699219-5.1699219c-.7001953-.6999512-1.6201172-1.08008-2.6201172-1.0900898-1.0698242.0100098-2.050293.4499531-2.75 1.2500019-1.2900391 1.4499512-1.1801758 3.6999512.25 5.130127l6.5698242 6.5698242c-3.5 1.6401367-7.7299805 1.5200195-11.25-.6899414-5.5200195-3.4399414-7.199707-10.7299805-3.75-16.2399921 3.4501953-5.5200195 10.7402344-7.1999512 16.2602539-3.75 4.0097637 2.5200195 5.9897442 7.0500488 5.4399395 11.4602069z" fill="#6eb954"/></g><g><g><g><path d="m29.594389 36.0045738c-.0097656.0200195-.0097656.0397949-.0200195.0598145-.1796875.4902344-.4101563.9501953-.6796875 1.3901367-1.1401367 1.8300781-2.9804688 2.9799805-4.9599609 3.3000488-1.6904297.2897949-3.4804688-.0200195-5.0400391-.9899902-.5400391-.3400879-1.0302734-.7399902-1.4599609-1.2001953l-.6401367.4301758c-.3901367.2600098-.9101563-.0700684-.840332-.5300293l.4501953-3.0200195c.0498047-.3200684.3598633-.5300293.6699219-.4499512l2.9599609.7299805c.0102539 0 .0200195.0100098.0302734.0100098.3999023.1298828.5.6298828.2197266.8999023-.0200195.0300293-.0498047.0500488-.0800781.0700684l-.5996094.3999023c.1899414.1801758.409668.3400879.6396484.4902344.3203125.199707.6601563.3598633 1 .4697266 2.0200195.6801758 4.3100586-.0898438 5.4902344-1.9599609.1796875-.2900391.3198242-.5898438.4296875-.9099121.1503906-.3898926.4599609-.6699219.8300781-.7800293h.0102539c.25-.0800781.5297852-.0800781.7998047.0200195.6401366.2199706.9902343.9299315.790039 1.5700682z" fill="#fff"/></g><g><path d="m18.3348827 31.956749c-.2780132.7272606-1.1662064 1.0679398-1.8756905.6242256-.5036287-.3149757-.7355433-.9549866-.5120783-1.5310993.1679201-.4510345.3862276-.8857117.6396017-1.2908325 2.1229153-3.394352 6.6112823-4.4333706 10.0056934-2.3104801.6241894.3903732 1.1735821.8634739 1.6443806 1.4015884l.5483456-.3653984c.3935165-.2641106.9137173.0612278.8431225.5272961l-.448103 3.0175838c-.0478897.3203621-.3606262.52845-.6694221.449585l-2.9615841-.7326508c-.4584274-.1190796-.5691757-.7215252-.1753502-.9855366l.7062511-.4722004c-.2508717-.2559109-.5316181-.4771385-.8435783-.6722412-2.2008343-1.3764191-5.1106853-.7058735-6.4871464 1.4949646-.1643466.2627754-.3048953.5481491-.414442.8451958z" fill="#fff"/></g></g></g></g></g><g><g><path d="m29.594389 36.0045738c-.0097656.0200195-.0097656.0397949-.0200195.0598145-.1796875.4902344-.4101563.9501953-.6796875 1.3901367-1.1401367 1.8300781-2.9804688 2.9799805-4.9599609 3.3000488l-2.6904297-2.6901855c2.0200195.6801758 4.3100586-.0898438 5.4902344-1.9599609.1796875-.2900391.3198242-.5898438.4296875-.9099121.1503906-.3898926.4599609-.6699219.8300781-.7800293h.0102539z" fill="#e9e7fc"/></g><g><path d="m46.1416588 31.2064667 9.1065292 9.106514c.9436111.9436073 1.5630341 2.1626015 1.7688904 3.4810867v.0000038c.2058563 1.3184853.8252792 2.5374794 1.7688904 3.4810829l1.7853966 1.7853966-11.7458077 11.7457046-2.1686287-2.1686249c-1.020134-1.020134-2.3596458-1.6590233-3.7944336-1.8097878l-2.7674942-.2908058c-.7270966-.0764008-1.4619446-.0255928-2.171608.1501465l-6.1644154 1.5265312c-1.5238228.3823433-3.0649242-.553463-3.4415588-2.0715675-.251091-1.0046387.0684147-2.0205574.7478371-2.6999741.3536453-.3536415.8048286-.6220093 1.3298607-.7474136l5.5246944-1.3698235-14.0410556-14.0410308c-1.0154362-1.0154305-1.1594715-2.6789513-.2082653-3.7547798.538866-.6094666 1.2693634-.9067574 2.0126171-.9129028.6907082.0057144 1.3755646.2680931 1.9007378.7932663l7.4879932 7.4879799c-1.0500641-1.0500641-1.0502052-2.7507019-.0001373-3.8007584.5194588-.519455 1.2098885-.7876816 1.894886-.7876778.690567.0055771 1.3755646.2680931 1.9005966.7931252l.6735687.6735687c-1.0444908-1.0444908-1.044632-2.7451286-.0001373-3.7896118.525032-.5250282 1.2098885-.7876816 1.894886-.7876778.6962814.0001411 1.3755646.2569466 1.9005966.7819786l1.015789 1.015789c-1.0443535-1.0443535-1.0500679-2.7394142 0-3.7894726.5253105-.5253086 1.2044563-.7819691 1.894886-.7876797.6907082.0057164 1.3698502.2623807 1.8948861.7874147z" fill="#f4d6d4"/></g><g><path d="m58.7861176 47.2751427c-.9438477-.9436035-1.5629883-2.1625977-1.769043-3.480957-.2060547-1.3186035-.8251953-2.5375977-1.769043-3.4812012l-5.1113281-5.1113281c1.3823242 2.543457 2.2119141 5.4416504 2.3486328 8.4890137.2514648 5.6142578-2.6806641 10.7314453-7.0087891 14.0449219.4223633.2578125.8261719.5476074 1.1801758.9020996l2.1689453 2.168457 11.7456055-11.7456055z" fill="#f5c9c6"/></g><g><path d="m51.4540558 65.526741-3.2935677-3.2935562c-.6304169-.6304169-.6304169-1.652523 0-2.2829361l11.5548706-11.5547676c.6304169-.6304131 1.6525269-.6304092 2.2829475.0000114l3.2935638 3.2935562c.6304169.6304169.6304169 1.652523 0 2.2829361l-11.5548667 11.5547639c-.6304207.6304168-1.6525306.6304092-2.2829475-.0000077z" fill="#4c5c75"/></g><g><path d="m61.9966049 48.3973694.4851799.4851799-11.0663834 11.066288c-.6278687.627861-.6278687 1.6550713 0 2.2829361l2.8079796 2.8079758-.4851837.4851761c-.6334381.6334381-1.6495056.6334305-2.2829437-.0000076l-3.2931633-3.2931557c-.6278687-.6278648-.6334419-1.6495018 0-2.2829361l11.5515671-11.5514641c.6337166-.6337128 1.6550827-.6278573 2.2829475.0000076z" fill="#1d2943"/></g><g><path d="m23.6442032 37.7667084-.8356133-.8356133c-.6546574-.6546555-.7830372-1.7221603-.1983643-2.4399567.6721153-.8250389 1.8943462-.8708763 2.6276131-.1376076l.9098339.9098282c.1815681.1815681.2406788.4646645.1240921.6935539-.4351616.8541336-1.0798645 1.4988327-1.9340591 1.9339371-.2287845.1165887-.5118828.0574761-.6935024-.1241416z" fill="#eabcbb"/></g><g><path d="m23.3923454 37.5148506-.8356647-.8356628c-.6546574-.6546555-.7830372-1.7221642-.1983643-2.4399567.6721153-.8250427 1.8943462-.8708763 2.6276131-.1376114l.9098339.909832c.1816196.1816216.2406788.4646645.1240921.6935501-.4351616.8541374-1.0798645 1.4988365-1.9340591 1.9339409-.2287846.1165886-.5118828.0574761-.693451-.1240921z" fill="#f8f9fe"/></g><g><path d="m24.0889606 37.6392479c-.2007599.1005096-.446085.0670242-.6246414-.0779457.8257618-.4238243 1.4558144-1.0653076 1.879797-1.8907051.1113815-.2345009.0556908-.5132599-.1284313-.6973801l-.9090672-.9090652c-.2342472-.2342491-.5241852-.3903427-.8254051-.4573669.5298519-.0837135 1.098753.0837669 1.5059433.4909554l.9090672.9090652c.1841202.1841202.2399654.4741592.1225605.7026367-.4349575.8478088-1.0819588 1.4948043-1.929823 1.9298057z" fill="#e9e7fc"/></g><g><path d="m34.9241295 41.4599457-.8356133-.8356133c-.6546555-.6546555-.7830353-1.7221642-.1983643-2.4399567.6721153-.8250427 1.8943481-.8708763 2.6276131-.1376114l.9098358.909832c.1815681.1815681.2406769.4646645.1240921.6935501-.4351616.8541374-1.0798683 1.4988365-1.9340591 1.9339409-.2287864.1165887-.5118828.0574761-.6935043-.1241416z" fill="#eabcbb"/></g><g><path d="m34.6722717 41.2080879-.8356628-.8356628c-.6546593-.6546555-.7830391-1.7221642-.1983643-2.4399567.6721153-.8250427 1.8943443-.8708763 2.6276131-.1376114l.909832.909832c.1816216.1816177.2406807.4646645.1240921.6935501-.4351616.8541374-1.0798645 1.4988365-1.9340591 1.9339409-.2287827.1165848-.5118828.0574761-.693451-.1240921z" fill="#f8f9fe"/></g><g><path d="m35.3688889 41.3324852c-.2007637.1005096-.4460869.0670204-.6246414-.0779457.8257599-.4238243 1.4558144-1.0653076 1.8797951-1.8907051.1113815-.2345009.0556908-.5132599-.1284294-.6973801l-.9090691-.9090652c-.2342453-.2342491-.5241852-.3903465-.8254051-.4573669.5298538-.0837135 1.0987549.0837669 1.5059433.4909554l.9090691.9090652c.1841202.1841202.2399635.4741592.1225586.7026367-.4349557.8478088-1.0819589 1.4948043-1.9298211 1.9298057z" fill="#e9e7fc"/></g><g><path d="m39.3953362 38.3444748-.8356133-.8356133c-.6546593-.6546555-.7830391-1.7221642-.1983643-2.4399567.6721153-.8250427 1.8943443-.8708763 2.6276131-.1376114l.9098358.909832c.1815681.1815681.2406769.4646645.1240883.6935501-.4351616.8541374-1.0798645 1.4988365-1.9340553 1.9339409-.2287865.1165887-.5118866.0574761-.6935043-.1241416z" fill="#eabcbb"/></g><g><path d="m39.1434784 38.092617-.8356667-.8356628c-.6546555-.6546555-.7830353-1.7221642-.1983604-2.4399605.6721115-.8250389 1.8943443-.8708725 2.6276131-.1376076l.909832.909832c.1816216.1816177.2406807.4646645.1240921.6935501-.4351616.8541374-1.0798645 1.4988365-1.9340591 1.9339409-.2287865.1165848-.5118829.0574761-.693451-.1240921z" fill="#f8f9fe"/></g><g><path d="m39.8400955 38.2170143c-.2007637.1005096-.4460869.0670204-.6246452-.0779457.8257637-.4238281 1.4558144-1.0653076 1.8797989-1.8907051.1113815-.2345047.0556908-.5132599-.1284294-.6973801l-.9090691-.9090652c-.2342491-.2342491-.5241852-.3903465-.8254051-.4573669.5298538-.0837135 1.0987549.0837669 1.5059433.4909554l.9090652.9090652c.184124.1841202.2399673.4741592.1225624.7026367-.4349594.8478088-1.0819587 1.4948043-1.929821 1.9298057z" fill="#e9e7fc"/></g><g><path d="m44.2054672 35.5679283-.8356133-.8356133c-.6546593-.6546555-.7830391-1.7221642-.1983643-2.4399567.6721153-.8250408 1.8943443-.8708763 2.6276131-.1376114l.9098358.909832c.1815681.1815681.2406769.4646645.1240883.6935501-.4351616.8541374-1.0798645 1.4988365-1.9340553 1.9339409-.2287864.1165887-.5118865.0574762-.6935043-.1241416z" fill="#eabcbb"/></g><g><path d="m43.9536095 35.3160706-.8356667-.8356628c-.6546555-.6546555-.7830353-1.7221642-.1983604-2.4399605.6721115-.8250389 1.8943443-.8708725 2.6276131-.1376076l.909832.909832c.1816216.1816177.2406807.4646645.1240921.6935501-.4351616.8541374-1.0798645 1.4988327-1.9340591 1.9339409-.2287866.1165847-.5118829.057476-.693451-.1240921z" fill="#f8f9fe"/></g><g><path d="m44.6502266 35.4404678c-.2007637.1005096-.4460869.0670204-.6246452-.0779457.8257637-.4238281 1.4558144-1.0653076 1.8797989-1.8907089.1113815-.2345009.0556908-.5132561-.1284294-.6973763l-.9090691-.9090672c-.2342491-.2342472-.5241852-.3903427-.8254051-.4573669.5298538-.0837116 1.0987549.0837688 1.5059433.4909573l.9090691.9090652c.1841202.1841202.2399635.4741592.1225586.7026367-.4349595.8478089-1.0819589 1.4948045-1.9298211 1.9298058z" fill="#e9e7fc"/></g><g><g><path d="m41.3263474 49.1497307c-.1827011.1826973-.4791565.1826973-.6618576-.0000038l-4.6280518-4.6280403c-.1827011-.1827011-.1827011-.4791565 0-.6618538s.4791565-.1826973.6618576.0000038l4.6280518 4.6280403c.1826972.1827011.1826972.4791565 0 .6618538z" fill="#f5c9c6"/></g></g><g><g><path d="m45.0801888 45.3959198c-.1827011.1826973-.4791565.1826973-.6618538-.0000038l-3.771946-3.7719383c-.1827011-.1826973-.1827011-.4791527 0-.66185.1826973-.1827011.4791527-.1826973.6618538 0l3.771946 3.7719383c.1827011.1827011.1827011.4791565 0 .6618538z" fill="#f5c9c6"/></g></g><g><g><path d="m48.834034 41.6421089c-.1827011.1826973-.4791565.1826973-.6618576-.0000038l-2.6304703-2.6304665c-.1827011-.1826973-.1827011-.4791527 0-.66185.1826973-.1827011.4791527-.1826973.6618538 0l2.6304741 2.6304665c.1826973.1827011.1826973.4791565 0 .6618538z" fill="#f5c9c6"/></g></g><g><g><path d="m33.289463 56.8425598-1.2162247.3012962c-.9528465.2360497-1.9924908-.2318077-2.3242283-1.1556854-.3812542-1.0619926.2462063-2.1969223 1.313467-2.4613152l1.3242531-.3280563c.2642708-.0654678.5536995.0358429.6977196.2670174.5373917.8627625.7698898 1.8011322.6973839 2.8149834-.0193748.2715721-.2280273.496273-.4923706.5617599z" fill="#eabcbb"/></g><g><path d="m32.9228859 56.9333725-1.2162991.3013153c-.9528465.2360497-1.9924889-.2318077-2.3242264-1.1556854-.3812561-1.0619965.2462044-2.1969223 1.313467-2.4613152l1.3242531-.3280563c.2643433-.0654869.5536995.0358429.6977158.2670174.5373917.8627625.7698936 1.8011322.6973877 2.8149796-.0193748.2715758-.2280273.4962768-.4922981.5617446z" fill="#f8f9fe"/></g><g><path d="m33.4171944 56.3689232c-.0186348.2373238-.1833382.4417534-.4127274.5245247.0671844-.9818573-.170414-1.9051628-.6878281-2.7420387-.1519699-.2295189-.4355869-.331562-.7035732-.2651749l-1.3231373.3277817c-.3409443.0844612-.6414089.2622795-.8671665.4991035.2140388-.5269547.6775532-.9518509 1.2702141-1.0986671l1.3231373-.3277817c.2679863-.066391.5619278.0416908.7051315.2733841.5317536.859108.7650833 1.8008232.6959496 2.8088684z" fill="#e9e7fc"/></g></g></g></g></svg>