<svg id="Layer_1" enable-background="new 0 0 66 66" viewBox="0 0 66 66" xmlns="http://www.w3.org/2000/svg"><g><g><g><g><g><g><g><circle cx="33.18" cy="31.68" fill="#ffe9e1" r="27.52"/></g><g><g><g><g><g><g><path d="m24.95 53.63s1.14-1.74-2.28-5.02-8.89-3.21-10.08-1.73c-1.2 1.5 3.99 7.33 4.38 7.75.39.43 2.53 1.94 2.53 1.94s1.82-.51 2.33-.74c.52-.23 3.12-2.2 3.12-2.2z"/></g></g><g><path d="m22.96 54.32c-.39.46-1.43 1.66-2.54 2.93-2.63-2.36-5.36-4.61-8.2-6.72l1.1-1.37s.11-4.27.38-7.51c.17-2.02 1.47-3.77 3.35-4.52l2.51-1s2.88-4.02 4.88-5c1.84-.9 5.2-3.18 5.67-1.35.04.15.06.34.05.55 0 0 .3-.29.72-.56.55-.36 1.29-.71 1.81-.37.44.29.38.86.26 1.28-.08.29-.2.5-.2.5s.9.06 1.17.69c.03.06.05.13.06.21.08.5-.18 1.27-1.26 2.46 0 0 1.94.26 1 2.1-.03.07-.07.13-.11.2-1.19 2.02-5.79 8.51-5.79 8.51s-3.87 7.81-4.86 8.97z" fill="#fba986"/></g><g><path d="m27.18 41.57c.56-.65 3.53-4.11 4.24-4.86.78-.83 1.29-1.94 1.29-1.94 1.07-1.19 1.34-1.96 1.26-2.46-.13.01-6.04 8.03-6.68 9.01-.09.14-.15.2-.11.25z" fill="#ef9672"/></g><g><path d="m24.98 39.58c.96-.88 2.92-3.56 3.52-3.97.67-.46 4.24-4.2 4.24-4.2s.11-.21.2-.5c-.06 0-.1 0-.1 0s-7.4 6.46-7.86 8.67z" fill="#ef9672"/></g><g><path d="m22.7 37.29h.01c.94-.85 2.2-2.49 2.2-2.49 1.25-.36 2.35-1.82 2.48-1.86 1.65-.64 2.77-2.61 2.77-2.61 0-.21-.01-.4-.05-.55 0 0-1.73 2.05-2.77 2.5 0 0-2.25 2-2.96 2.33 0 0-1.02 1.47-1.8 2.15-.18.16-.11.46.12.53z" fill="#ef9672"/></g><g><path d="m21.2 33.03c.59.51.69 1.4.49 2.15s-.64 1.41-1 2.09-.66 1.45-.54 2.22c.12.73.61 1.34.93 2.02.39.84.5 1.8.32 2.71-.19.91-.67 1.75-1.36 2.37-.24.21-.56.41-.85.29-.3-.12-.39-.48-.45-.79-.29-1.49-.56-2.98-.82-4.48-.21-1.18-.41-2.39-.17-3.57s.95-2.25 1.93-2.94c.27-.19.57-.36.82-.58s.46-.52.49-.85" fill="#ef9672"/></g><g><g><path d="m22.24 37.87-.16-.3c.14-.07.31-.21.53-.4.92-.83 2.17-2.46 2.18-2.47l.03-.04.05-.02c.92-.26 1.76-1.16 2.17-1.59.18-.19.23-.24.29-.27 1.57-.61 2.68-2.52 2.69-2.53l.3.17c-.05.08-1.17 2.02-2.84 2.68-.03.03-.11.11-.18.19-.42.45-1.28 1.36-2.27 1.67-.21.27-1.32 1.69-2.19 2.47-.24.21-.44.36-.6.44z" fill="#e87e58"/></g><g><path d="m24.76 39.97-.17-.3c.05-.03.13-.09.27-.21.45-.42 1.14-1.26 1.81-2.06.75-.91 1.4-1.7 1.73-1.93.65-.45 4.18-4.14 4.22-4.18l.25.24c-.15.15-3.59 3.76-4.27 4.22-.29.2-.99 1.04-1.66 1.86s-1.37 1.66-1.84 2.1c-.14.12-.25.2-.34.26z" fill="#e87e58"/></g><g><path d="m27.22 41.78-.26-.22.09-.11c.03-.04 3.48-4.04 4.25-4.86.75-.8 1.25-1.88 1.26-1.9l.31.14c-.02.05-.53 1.15-1.32 1.99-.77.81-4.2 4.81-4.24 4.85z" fill="#e87e58"/></g></g></g><g><path d="m21.13 60.94 1.88-3.51 1.95-3.8c-7.24 1.8-12.27-5.39-12.36-6.74-.04.07-3.27 5.46-2.12 3.5.08-.13-2.42 3.23-2.42 3.23s8.08 11.44 13.07 7.32z" fill="#ff4a60"/></g><g><path d="m23.01 57.42 1.95-3.8c-7.24 1.8-12.27-5.39-12.36-6.74-.04.07-.95 1.56-2.12 3.5 1.33 1.7 5.88 6.77 12.53 7.04z" fill="#ef2043"/></g></g><g><g><path d="m39.79 11.41 4.21 32.54c.34 2.66-1.53 4.81-4.19 4.81h-15.1c-2.66 0-5.09-2.15-5.43-4.81l-4.21-32.54c-.34-2.66 1.53-4.81 4.19-4.81h15.1c2.66 0 5.09 2.15 5.43 4.81z" fill="#606c9c"/></g><g><path d="m41.87 11.41 4.21 32.54c.34 2.66-1.53 4.81-4.18 4.81h-15.1c-2.66 0-5.09-2.15-5.43-4.81l-4.21-32.54c-.34-2.66 1.53-4.81 4.18-4.81h15.1c2.65 0 5.08 2.15 5.43 4.81z" fill="#808cbc"/></g><g><path d="m41.41 41.91h-15.91c-1.64 0-3.15-1.33-3.36-2.98l-3.62-27.92c-.21-1.65.95-2.98 2.59-2.98h15.91c1.65 0 3.15 1.33 3.36 2.98l.97 7.51 1.62 12.51 1.02 7.9c.23 1.64-.93 2.98-2.58 2.98z" fill="#fff"/></g><g><path d="m38.91 26.39-15.24.51c-.6.02-1.12-.42-1.2-1.01l-1.87-13.17c-.1-.69.43-1.32 1.12-1.34l15.24-.51c.6-.02 1.12.42 1.2 1.01l1.87 13.17c.1.69-.42 1.32-1.12 1.34z" fill="#eaeef6"/></g><g><path d="m40.11 36.45-13.95.47c-.55.02-.99-.2-1.02-.5l-.73-6.68c-.04-.35.49-.68 1.13-.7l13.95-.47c.55-.02.99.2 1.02.5l.73 6.68c.03.35-.49.68-1.13.7z" fill="#eaeef6"/></g><g><ellipse cx="33.69" cy="44.79" fill="#606c9c" rx="1.57" ry="1.79" transform="matrix(.684 -.73 .73 .684 -22.03 38.742)"/></g></g><g><path d="m13.71 41.65s-.01-2.72.38-3.53c.38-.81 5.8-6.26 6.46-6.12s1.32.89.97 2.38-2.9 4.61-2.9 4.61 1.82 2.92 2.15 4.75-1.67 6.4-1.67 6.4" fill="#fba986"/></g><g><path d="m20.39 47.15-.33-.1c.47-1.5.65-2.64.54-3.28-.32-1.78-2.11-4.66-2.13-4.69l-.07-.1.08-.1c.03-.03 2.53-3.11 2.87-4.54.2-.87.03-1.39-.15-1.68-.17-.26-.41-.44-.69-.5-.47.01-3.62 2.96-5.47 5.03l-.26-.23c.98-1.09 5.06-5.3 5.8-5.14.37.08.69.31.91.65s.42.95.19 1.94c-.32 1.38-2.42 4.04-2.86 4.59.33.55 1.81 3.04 2.11 4.71.14.7-.05 1.86-.54 3.44z" fill="#e87e58"/></g></g><g><g><g><g><g><g><path d="m39.11 43.04c.39 2.12 2.63 4.41 2.63 4.41l4.05-2.03s-2.75-1.54-3.05-2.07c-.17-.3.49-1.78.54-2.67.03-.44-.14-.86-.43-1.16-.13-.14-.28-.25-.45-.33-.1-.05-.21-.09-.32-.11-.5.04-1.04.39-1.48.71-.12.08-1.74 1.89-1.49 3.25z" fill="#fba986"/></g><g><path d="m40.6 39.78c.18.3.44.7.65.84.35.22 1.27-.51 1.6-1.09 0 0 0-.01.01-.01-.13-.14-.28-.25-.45-.33-.1-.05-.21-.09-.32-.11-.51.03-1.05.38-1.49.7z" fill="#ef9672"/></g><g><g><path d="m60.71 46.55s-2.06-.79-4.76.33c-4.12 1.7-6.88 5.59-6.39 6.73.71 1.65 7.84.05 8.37-.07s2.74-1.2 2.74-1.2.41-1.73.45-2.25c.05-.54-.41-3.54-.41-3.54z"/></g></g><g><path d="m61.88 50.78-1.55-2.35s-3.11-7.65-4.15-9.68c-1-1.96-3.59-4.77-4.69-4.63s-1.61 1.33-1.61 1.33-1.51-1.63-2.46-1.2c-1.1.5-.81 1.84-.81 1.84s-1.47-1.06-2.31-.65c-.83.41-.5 1.55-.5 1.55s-3.46-5-4.75-3.45c-2.52 3.03 6.84 9.01 5.76 11.52-.47 1.08-3.05 2.4-3.05 2.4 1.91 2.15 4.98 3.26 8.32 4.12 0 0 1.41 4.83 1.53 4.78.11-.05 10.27-5.58 10.27-5.58z" fill="#fba986"/></g><g><path d="m44.79 45.23c-.02 0-.05 0-.07-.01-.09-.04-.13-.14-.09-.23.44-1.01-1.11-2.77-2.74-4.64-2.1-2.4-4.49-5.12-2.99-6.92.21-.25.48-.37.81-.36 1.61.07 4.11 3.67 4.22 3.82.05.08.03.18-.04.24-.08.05-.18.03-.24-.04-.7-1-2.76-3.62-3.95-3.67-.21-.01-.39.07-.53.23-1.31 1.57.97 4.18 2.98 6.47 1.78 2.03 3.32 3.79 2.8 5-.03.07-.09.11-.16.11z" fill="#ef9672"/></g><g><path d="m51.55 39.03c-.08 0-.15-.05-.17-.13-.33-1.36-1.64-3.32-1.65-3.34-.05-.08-.03-.19.05-.24s.19-.03.24.05c.06.08 1.35 2.03 1.7 3.45.02.09-.03.18-.13.21-.02 0-.03 0-.04 0z" fill="#ef9672"/></g><g><path d="m48.43 39.91c-.07 0-.14-.05-.16-.12-.57-1.86-1.87-3.7-1.88-3.72-.05-.08-.04-.18.04-.24.08-.05.18-.04.24.04.05.08 1.34 1.9 1.93 3.82.03.09-.02.19-.11.21-.03.01-.04.01-.06.01z" fill="#ef9672"/></g><g><path d="m45.82 40.83c-.07 0-.14-.05-.16-.12-.39-1.36-2.05-3.66-2.07-3.68-.06-.08-.04-.18.04-.24s.18-.04.24.04c.07.1 1.72 2.38 2.12 3.79.03.09-.03.19-.12.21-.02-.01-.04 0-.05 0z" fill="#ef9672"/></g></g><g><path d="m49.55 53.64c.04.06.85 1.49 1.91 3.34.4.7 1.06 1.75 1.23 2.08 9.9.53 11.8-4.13 11.81-6.33l-1.55-2.84-2.23-3.33c-1.47 7.05-9.24 8.27-11.17 7.08z" fill="#ff4a60"/></g><g><path d="m62.95 49.88-2.23-3.33c-1.29 6.88-9.22 8.46-11.17 7.09.04.06.85 1.49 1.91 3.34 2.23.32 8.32-1.51 11.49-7.1z" fill="#ef2043"/></g><g><g><path d="m49.78 50.88c0 .01 0 0 .01-.04 0 .01 0 .01-.01.04z" fill="#ffcd3b"/></g></g></g></g></g></g></g><g><g><g><path d="m46.81 17.89c-1.82.93-15.73 1.66-17.62.32-.91-.65-.86-6.36-.39-7.28.6-1.18 16.38-1.2 17.85-.37 1.32.75.82 7 .16 7.33z" fill="#509dff"/></g><g><path d="m30.91 16.77c.05.27.39 2.79.62 4.54.09.67.94 1.06 1.41.65l2.99-3.63z" fill="#509dff"/></g></g><g><g><path d="m32.32 12.78c-.31 0-.62 0-.92-.01-.09 0-.17-.08-.17-.17s.08-.17.17-.17c2.4.03 5.08-.07 7.67-.16 1.97-.07 3.84-.13 5.35-.13.09 0 .17.08.17.17s-.08.17-.17.17c-1.5 0-3.37.07-5.34.13-2.26.09-4.6.17-6.76.17z" fill="#1c7dc6"/></g><g><path d="m31.67 14.84c-.09 0-.17-.07-.17-.16s.07-.17.16-.18c1.58-.06 3.53-.15 5.43-.24 1.89-.09 3.85-.18 5.42-.24.09 0 .17.07.18.16 0 .09-.07.17-.16.18-1.58.06-3.53.15-5.42.24-1.9.08-3.86.17-5.44.24z" fill="#1c7dc6"/></g><g><path d="m31.85 16.62c-.09 0-.17-.07-.17-.16s.07-.17.16-.18l7.37-.29c.09 0 .17.07.18.16 0 .09-.07.17-.16.18z" fill="#1c7dc6"/></g></g></g><g><g><g><path d="m11.56 27.25c1.82.93 15.73 1.66 17.62.32.91-.65.86-6.36.39-7.28-.6-1.18-16.7-2.18-18.16-1.34-1.32.75-.51 7.96.15 8.3z" fill="#ffcd3b"/></g><g><path d="m27.46 26.13c-.05.27-.39 2.79-.62 4.54-.09.67-.94 1.06-1.41.65l-2.99-3.63z" fill="#ffcd3b"/></g></g><g><g><path d="m26.96 21.93c-1.22-.04-3.12-.16-5.14-.3-2.97-.2-6.34-.42-8.38-.42-.09 0-.17-.08-.17-.17s.08-.17.17-.17c2.06 0 5.43.22 8.41.42 2.01.13 3.91.26 5.12.3.09 0 .17.08.17.18-.01.09-.08.16-.18.16z" fill="#f57f35"/></g><g><path d="m26.52 23.88c-1.59-.06-3.54-.15-5.43-.24s-3.85-.18-5.42-.24c-.09 0-.17-.08-.16-.18 0-.09.08-.17.18-.16 1.58.06 3.53.15 5.43.24 1.89.09 3.85.18 5.42.24.09 0 .17.08.16.18-.01.09-.09.16-.18.16z" fill="#f57f35"/></g><g><path d="m26.52 25.98-7.38-.29c-.09 0-.17-.08-.16-.18 0-.09.08-.17.18-.16l7.37.29c.09 0 .17.08.16.18 0 .09-.08.16-.17.16z" fill="#f57f35"/></g></g></g></g><g><path d="m52.02 28.41c-.92 2.58-5.74 4.15-9.21 2.91s-5.54-4.34-4.61-6.92 5.74-4.15 9.21-2.91c3.47 1.23 5.53 4.33 4.61 6.92z" fill="#86bb6b"/></g><g><path d="m39.87 28.77c-.03.16-.36 1.71-.58 2.78-.09.41.33.82.69.67l2.51-1.5z" fill="#86bb6b"/></g><g><path d="m50.52 26.32c-.03 0-.06-.01-.09-.02-.52-.3-1.14-.29-1.79-.29-.69.01-1.4.01-2-.35-.12-.07-.23-.16-.34-.24-.21-.16-.4-.31-.63-.35-.29-.05-.59.09-.9.24-.12.06-.24.12-.37.17-.59.23-1.27.23-1.86-.02-.59-.24-1.07-.72-1.33-1.31-.04-.09 0-.19.09-.23s.19 0 .23.09c.22.51.64.92 1.15 1.13s1.09.22 1.61.02c.11-.04.22-.1.34-.16.35-.17.71-.34 1.11-.27.31.05.55.24.78.42.11.08.21.16.31.22.52.32 1.15.31 1.82.3s1.37-.01 1.97.33c.08.05.11.15.06.23-.05.06-.1.09-.16.09z" fill="#358f48"/></g><g><path d="m45.7 28.57c-.08 0-.16-.01-.24-.02-.5-.09-.87-.44-1.22-.78-.31-.3-.6-.59-.97-.68-.29-.07-.61-.02-.92.02-.31.05-.7.11-1.07 0-.35-.1-.74-.42-.74-.86 0-.09.07-.17.17-.17s.17.07.17.17c0 .26.25.47.5.54.27.08.57.04.92-.01s.71-.11 1.06-.02c.46.12.8.45 1.13.77s.64.62 1.03.69c.35.06.71-.07 1.07-.2.05-.02.11-.04.16-.06.4-.14.98-.29 1.45 0 .08.05.11.15.06.24-.05.08-.15.11-.24.06-.27-.16-.64-.15-1.16.03-.05.02-.1.04-.16.06-.33.1-.66.22-1 .22z" fill="#358f48"/></g></g><g><g><ellipse cx="58.96" cy="31.56" fill="#daacda" rx="4.83" ry="3.78" transform="matrix(.31 -.951 .951 .31 10.664 77.82)"/></g><g><path d="m59.87 34.1c-.53 1.33-3.88-.31-3.41-1.55.48-1.24 1.61-1.98 2.55-1.61 1 .39 1.4 1.81.86 3.16z" fill="#fff"/></g><g><ellipse cx="59.45" cy="29.59" fill="#fff" rx="1.08" ry=".94" transform="matrix(.31 -.951 .951 .31 12.875 76.925)"/></g><g><path d="m58.19 36.38c1.98.65 4.54-.72 5.37-3.25s-.42-5.29-2.4-5.94l-.69-.22c1.98.65 2.92 3.23 2.09 5.76-.83 2.54-3.11 4.07-5.09 3.42z" fill="#b078a7"/></g></g></g><g><g><path d="m50.59 17.19 8.29 4.4c.69.36 1.54.15 1.98-.49l3.05-4.49c.54-.8.21-1.9-.68-2.27l-8.99-3.68c-.69-.28-1.48-.03-1.87.6l-2.35 3.77c-.48.76-.21 1.75.57 2.16z" fill="#ff4a60"/></g><g><path d="m51.31 21.33 6.67-2.42-4.91-2.47z" fill="#ff4a60"/></g><g><path d="m54.72 14.21c-.55 1.08.79 3.75.79 3.75s3.2-.25 3.82-1.47c.45-.87.1-1.89-.75-2.27-.36-.16-.76-.18-1.12-.07-.14-.33-.38-.6-.72-.75-.73-.33-1.63.04-2.02.81z" fill="#fff"/></g></g></g><g><g><g><g><path d="m1.65 35.86c.64 2.57 3.18 4.22 6.14 3.38 2.51-.71 3.67-3.11 3.03-5.68s-3.22-4.14-5.75-3.5-4.07 3.23-3.42 5.8z" fill="#f57f35"/></g><g><ellipse cx="7.02" cy="34.51" fill="#ffcd3b" rx="4.65" ry="4.79" transform="matrix(.97 -.243 .243 .97 -8.182 2.743)"/></g></g><g><path d="m8.63 35.05c.27-.1.56.12.54.41-.07.78-.62 1.46-1.42 1.66s-1.6-.14-2.03-.79c-.16-.25-.01-.58.28-.61.91-.13 1.78-.35 2.63-.67z"/></g></g><g><g><path d="m6.94 32.9c.11.45.93.84 1.39 1.02.19.08.41.02.54-.14.08-.1.18-.22.28-.35.28-.38.55-.87.47-1.2-.11-.45-.57-.72-1.02-.61-.19.05-.35.16-.46.3 0 0 0 .01-.01.01 0 0-.01.01-.01.01-.05-.02-.1-.04-.15-.06-.13-.04-.28-.04-.42 0-.45.12-.73.57-.61 1.02z" fill="#fe515e"/></g><g><path d="m6.94 32.9c.11.45.93.84 1.39 1.02.19.08.41.02.54-.14.08-.1.18-.22.28-.35-.21.11-.45.16-.68.14-.36-.03-.71-.24-.91-.54-.11-.16-.18-.35-.17-.54 0-.19.08-.38.23-.5.1-.08.23-.12.36-.11-.13-.04-.28-.04-.42 0-.46.12-.74.57-.62 1.02z" fill="#ef2043"/></g></g><g><g><path d="m3.62 33.74c.11.45.93.84 1.39 1.02.19.08.41.02.54-.14.08-.1.18-.22.28-.35.28-.38.55-.87.47-1.2-.11-.45-.57-.72-1.02-.61-.19.05-.35.16-.46.3 0 0 0 .01-.01.01 0 0-.01.01-.01.01-.05-.02-.1-.04-.15-.06-.13-.04-.28-.04-.42 0-.45.11-.73.57-.61 1.02z" fill="#fe515e"/></g><g><path d="m3.62 33.74c.11.45.93.84 1.39 1.02.19.08.41.02.54-.14.08-.1.18-.22.28-.35-.21.11-.45.16-.68.14-.36-.03-.71-.24-.91-.54-.11-.16-.18-.35-.17-.54 0-.19.08-.38.23-.5.1-.08.23-.12.36-.11-.13-.04-.28-.04-.42 0-.46.11-.74.57-.62 1.02z" fill="#ef2043"/></g></g></g></g></g></svg>