<svg id="Capa_1" enable-background="new 0 0 513.601 513.601" height="512" viewBox="0 0 513.601 513.601" width="512" xmlns="http://www.w3.org/2000/svg"><g><path d="m445.568 50.695h-380.464c-7.42 0-13.434 6.015-13.434 13.434v90.781h407.332v-90.781c0-7.42-6.015-13.434-13.434-13.434z" fill="#c0d6f2"/><path d="m448.497 50.695h-35.152c7.419 0 13.434 6.015 13.434 13.434v90.781h35.152v-90.781c0-7.42-6.015-13.434-13.434-13.434z" fill="#b2caec"/><path d="m42.37 160.768h425.933v328.852h-425.933z" fill="#d3e1f5"/><path d="m436.08 160.768h35.152v328.852h-35.152z" fill="#c0d6f2"/><path d="m497.754 200.554v-79.572c0-3.995-3.239-7.234-7.234-7.234h-470.369c-3.995 0-7.234 3.239-7.234 7.234v79.572c0 3.995 3.239 7.234 7.234 7.234h470.369c3.996 0 7.234-3.239 7.234-7.234z" fill="#0473ce"/><path d="m421.112 395.509h-171.545c-4.566 0-8.267-3.701-8.267-8.267v-117.808c0-4.566 3.701-8.267 8.267-8.267h171.545c4.566 0 8.267 3.701 8.267 8.267v117.808c0 4.566-3.701 8.267-8.267 8.267z" fill="#82aee3"/><path d="m421.112 261.167h-35.152c4.566 0 8.267 3.701 8.267 8.267v117.808c0 4.566-3.701 8.267-8.267 8.267h35.152c4.566 0 8.267-3.701 8.267-8.267v-117.808c0-4.566-3.701-8.267-8.267-8.267z" fill="#528fd8"/><path d="m202.03 466.44h-117.808v-200.106c0-2.854 2.313-5.167 5.167-5.167h107.474c2.854 0 5.167 2.313 5.167 5.167z" fill="#5a5a5a"/><g><path d="m307.084 261.167h15.501v134.342h-15.501z" fill="#5a5a5a"/></g><g><path d="m269.002 261.167h15.501v134.342h-15.501z" fill="#5a5a5a"/></g><g><path d="m345.165 261.167h15.501v134.342h-15.501z" fill="#5a5a5a"/></g><g><path d="m386.175 261.167h15.501v134.342h-15.501z" fill="#5a5a5a"/></g><g><path d="m115.745 396.026c-4.28 0-7.751-3.47-7.751-7.751v-19.635c0-4.28 3.47-7.751 7.751-7.751s7.751 3.47 7.751 7.751v19.635c0 4.281-3.47 7.751-7.751 7.751z" fill="#838383"/></g><path d="m329.67 29.831c-18.563 4.542-38.398-.203-52.674-12.897l-16.602-14.763c-2.054-1.826-5.132-1.826-7.186 0l-16.603 14.763c-13.76 12.236-33.448 17.602-52.674 12.897l-3.021-.739c-2.436-.596-4.603 1.691-3.899 4.121 11.816 40.801-2.561 75.183 11.236 103.077 6.78 13.708 18.538 24.515 33.027 30.356l35.526 14.321 35.526-14.321c14.489-5.841 26.248-16.648 33.027-30.356 4.122-8.333 6.261-17.456 6.261-26.695 0-43.254-1.198-55.069 4.974-76.382.704-2.43-1.463-4.717-3.899-4.121z" fill="#fdb441"/><path d="m261.092 52.812 9.76 19.776c.697 1.412 2.044 2.391 3.603 2.618l21.824 3.171c3.925.57 5.492 5.394 2.652 8.162l-15.792 15.394c-1.128 1.099-1.642 2.683-1.376 4.235l3.728 21.736c.67 3.909-3.432 6.89-6.943 5.044l-19.52-10.262c-1.394-.733-3.059-.733-4.453 0l-19.52 10.262c-3.51 1.846-7.613-1.135-6.943-5.044l3.728-21.736c.266-1.552-.248-3.136-1.376-4.235l-15.794-15.394c-2.84-2.768-1.273-7.592 2.652-8.162l21.824-3.171c1.559-.226 2.906-1.205 3.603-2.618l9.76-19.776c1.756-3.556 6.827-3.556 8.583 0z" fill="#fe9901"/><path d="m493.45 113.748h-35.152c3.995 0 7.234 3.239 7.234 7.234v79.572c0 3.995-3.239 7.234-7.234 7.234h35.152c3.995 0 7.234-3.239 7.234-7.234v-79.572c0-3.995-3.239-7.234-7.234-7.234z" fill="#0067c5"/><g><path d="m421.112 403.26h-171.545c-8.832 0-16.018-7.185-16.018-16.018v-117.808c0-8.832 7.185-16.018 16.018-16.018h171.545c8.832 0 16.018 7.185 16.018 16.018v117.808c-.001 8.832-7.186 16.018-16.018 16.018zm-171.545-134.343c-.285 0-.517.232-.517.517v117.808c0 .285.232.517.517.517h171.545c.285 0 .517-.232.517-.517v-117.808c0-.285-.232-.517-.517-.517z" fill="#5a5a5a"/></g><g><path d="m332.691 29.092-3.021.739c-7.467 1.827-15.135 2.126-22.568 1.035.333.691.437 1.509.195 2.347-6.172 21.312-4.974 33.128-4.974 76.382 0 9.24-2.14 18.362-6.261 26.695-6.78 13.708-18.538 24.515-33.027 30.356l-20.88 8.417 14.647 5.904 35.526-14.321c14.489-5.841 26.248-16.648 33.027-30.356 4.122-8.333 6.261-17.456 6.261-26.695 0-43.254-1.198-55.069 4.974-76.382.704-2.43-1.463-4.717-3.899-4.121z" fill="#fea613"/></g><path d="m510.672 505.567v-31.893c0-3.995-3.239-7.234-7.234-7.234h-496.204c-3.995 0-7.234 3.239-7.234 7.234v31.893c0 3.995 3.239 7.234 7.234 7.234h496.204c3.995 0 7.234-3.239 7.234-7.234z" fill="#9c9c9c"/><path d="m506.367 466.44h-35.152c3.995 0 7.234 3.239 7.234 7.234v31.893c0 3.995-3.239 7.234-7.234 7.234h35.152c3.995 0 7.234-3.239 7.234-7.234v-31.893c0-3.995-3.238-7.234-7.234-7.234z" fill="#838383"/></g></svg>