<svg id="Layer_1" enable-background="new 0 0 512 512" viewBox="0 0 512 512" xmlns="http://www.w3.org/2000/svg"><g><g clip-rule="evenodd" fill-rule="evenodd"><path d="m12.28 61.3h322.98c6.75 0 12.27 5.53 12.27 12.27v422.7c0 6.75-5.53 12.27-12.27 12.27h-322.98c-6.78.01-12.28-5.52-12.28-12.26v-422.7c0-6.75 5.5-12.28 12.28-12.28z" fill="#0593fc"/><path d="m33.43 61.3h301.83c6.75 0 12.27 5.53 12.27 12.27v401.56h-277.4c-20.18 0-36.71-16.53-36.71-36.74v-377.09z" fill="#0584e3"/><path d="m70.13 3.45h322.98c6.75 0 12.27 5.53 12.27 12.27v422.68c0 6.77-5.53 12.27-12.27 12.27h-322.98c-6.75 0-12.27-5.5-12.27-12.27v-422.68c0-6.75 5.53-12.27 12.27-12.27z" fill="#c4f0f6"/><path d="m123.2 68.9h216.85c1.87 0 3.37 1.53 3.37 3.4v53.23c0 1.87-1.5 3.4-3.37 3.4h-216.85c-1.84 0-3.37-1.53-3.37-3.4v-53.23c0-1.87 1.53-3.4 3.37-3.4z" fill="#0cf"/></g><path d="m119.83 393.35c-4.51 0-8.16-3.63-8.16-8.14s3.66-8.14 8.16-8.14h174.22c4.51 0 8.16 3.63 8.16 8.14s-3.66 8.14-8.16 8.14zm55.64-188.76c-4.48 0-8.14-3.66-8.14-8.14 0-4.51 3.66-8.16 8.14-8.16h112.31c4.48 0 8.14 3.66 8.14 8.16 0 4.48-3.66 8.14-8.14 8.14zm-55.64 62.93c-4.51 0-8.16-3.66-8.16-8.16 0-4.48 3.66-8.14 8.16-8.14h207.27c4.51 0 8.14 3.66 8.14 8.14 0 4.51-3.63 8.16-8.14 8.16zm0 62.93c-4.51 0-8.16-3.66-8.16-8.16 0-4.48 3.66-8.14 8.16-8.14h172.09c4.48 0 8.14 3.66 8.14 8.14 0 4.51-3.66 8.16-8.14 8.16z" fill="#fff"/><path clip-rule="evenodd" d="m480.42 101.78 22.17 12.78c8.53 4.93 11.88 15.22 7.46 22.88l-130.26 225.61c-.31.54-.74.91-1.3 1.19l-43.31 20.75c-1.05.51-2.27.42-3.37-.2-1.11-.65-1.76-1.67-1.87-2.83l-3.69-47.88c-.06-.65.06-1.19.37-1.7l130.25-225.64c4.42-7.65 15.02-9.89 23.55-4.96z" fill="#ffd400" fill-rule="evenodd"/><path d="m467.81 130.58c2.58-4.45 8.25-5.98 12.7-3.43 4.48 2.55 6.01 8.25 3.46 12.7-42.18 73.08-84.39 146.13-126.57 219.2l-16.1-9.33c42.18-73.04 84.33-146.09 126.51-219.14z" fill="#fea832"/><path clip-rule="evenodd" d="m379.22 363.79c-.23.17-.45.34-.74.45l-43.31 20.75c-1.05.51-2.27.42-3.37-.2-1.11-.65-1.76-1.67-1.87-2.83l-3.69-47.88c-.03-.31-.03-.6.03-.85z" fill="#fbbd80" fill-rule="evenodd"/><path clip-rule="evenodd" d="m480.42 101.78 22.17 12.78c8.53 4.93 11.88 15.22 7.46 22.88l-13.78 23.87-53.18-30.7 13.78-23.87c4.42-7.65 15.02-9.89 23.55-4.96z" fill="#ff4646" fill-rule="evenodd"/><path clip-rule="evenodd" d="m70.13 3.45h22c-6.75 0-12.27 5.53-12.27 12.27v422.68c0 6.77 5.53 12.27 12.27 12.27h-22c-6.75 0-12.27-5.5-12.27-12.27v-422.68c0-6.75 5.53-12.27 12.27-12.27z" fill="#b0d8dd" fill-rule="evenodd"/></g></svg>