<svg id="Layer_1" enable-background="new 0 0 53 53" height="512" viewBox="0 0 53 53" width="512" xmlns="http://www.w3.org/2000/svg"><g id="_x38_"><g><g><g><g><path d="m39.8624611 25.1431179v21.5659847c0 1.9446831-1.460762 3.6493225-3.4008331 3.7831268-1.1132011.0767746-2.1260223-.3411293-2.8459625-1.0609665-.6630173-.6631088-1.0699539-1.5748978-1.0699539-2.592144v-23.6533203h5.3594284c1.0809974 0 1.9573211.8763218 1.9573211 1.9573193z" fill="#fd982e"/></g></g><g><g><path d="m35.1001892 4.0084496v36.3267517c0 .8323288-.6747322 1.507061-1.5070572 1.507061h-27.4014039c-.8323264 0-1.5070601-.6747322-1.5070601-1.507061v-36.3267517c0-.8323262.6747336-1.5070598 1.5070601-1.5070598h27.4014039c.832325-.0000001 1.5070572.6747336 1.5070572 1.5070598z" fill="#deddff"/></g></g><g><g><path d="m7.7372975 41.8386383h-1.5499878c-.8300171 0-1.5-.6699829-1.5-1.5v-36.330018c0-.8300173.6699829-1.51001 1.5-1.51001h1.5499878c-.8300171 0-1.5100098.6799927-1.5100098 1.51001v36.3300171c.0000001.830018.6799927 1.5000009 1.5100098 1.5000009z" fill="#c6c6f7"/></g></g><g><g><path d="m20.7138786 25.8978806v-.0000629c0-.345747-.2802849-.6260319-.6260338-.6260319h-9.1618518c-.3457479 0-.6260328.2802849-.6260328.6260319v.0000629c0 .3457489.2802849.6260319.6260328.6260319h9.1618519c.3457489-.0000001.6260337-.280283.6260337-.6260319z" fill="#46cc6b"/></g></g><g><g><path d="m18.033905 26.5267696h-7.1058292c-.3466864 0-.6253967-.2863464-.6253967-.6254444 0-.3465939.2787104-.6329384.6253967-.6329384h7.1058292c-.3466873 0-.6254902.2863445-.6254902.6329384 0 .339098.2788029.6254444.6254902.6254444z" fill="#179c5f"/></g></g><g><g><path d="m36.2004051 50.5012627h-30.0584144c-2.008914 0-3.6546025-1.6210976-3.6546025-3.6621437v-20.6392003c0-.8323269.6747339-1.507061 1.5070601-1.507061h10.7347698c.4590473 0 .8930674.2092228 1.1789989.5683422l1.9507885 2.4501266c.2859325.3591213.7199516.5683422 1.1789989.5683422h12.0006485c.8323269 0 1.5070591.6747341 1.5070591 1.507061v17.0523893c0 1.0172462.4069366 1.9290352 1.0699539 2.592144.6632037.6631088 1.5749431 1.0699997 2.5847392 1.0699997z" fill="#fcb73e"/></g></g><g><g><path d="m9.7750597 50.5013885h-3.6308198c-2.0143461 0-3.6553104-1.6221046-3.6553104-3.6601791v-20.6399307c0-.8318672.6752777-1.5071449 1.5071447-1.5071449h3.6308198c-.8318667 0-1.5071445.6752777-1.5071445 1.5071449v20.6399307c0 1.0129166.4061522 1.9279633 1.0667653 2.5885468.6654816.6654815 1.5756283 1.0716323 2.5885449 1.0716323z" fill="#fd982e"/></g></g><g><g><path d="m29.4848976 19.5828094v-.000061c0-.3457489-.2802849-.6260338-.6260319-.6260338h-17.9328727c-.3457479 0-.6260328.2802849-.6260328.6260338v.000061c0 .3457489.2802849.6260319.6260328.6260319h17.9328728c.3457469 0 .6260318-.280283.6260318-.6260319z" fill="#e83d62"/></g></g><g><g><path d="m14.6203909 20.212183h-3.6923151c-.3466864 0-.6253967-.2863445-.6253967-.6329384 0-.339098.2787104-.6254425.6253967-.6254425h3.6923151c-.3465939 0-.6254883.2863445-.6254883.6254425 0 .3465939.2788944.6329384.6254883.6329384z" fill="#ce2955"/></g></g><g><g><path d="m20.7138786 22.450882v-.000063c0-.3457489-.2802849-.6260319-.6260338-.6260319h-9.1618518c-.3457479 0-.6260328.280283-.6260328.6260319v.0000629c0 .345747.2802849.6260319.6260328.6260319h9.1618519c.3457489 0 .6260337-.2802848.6260337-.6260318z" fill="#65b9ff"/></g></g><g><g><path d="m15.0273266 23.0755882h-4.0992508c-.3466864 0-.6253967-.2788029-.6253967-.6253967 0-.3466396.2787104-.6254425.6253967-.6254425h4.0992508c-.3391438 0-.6254883.2788029-.6254883.6254425 0 .3465939.2863445.6253967.6254883.6253967z" fill="#3e7fff"/></g></g><g><g><path d="m26.3413048 25.8978806v-.0000629c0-.345747-.2802849-.6260319-.6260319-.6260319h-3.1336136c-.345747 0-.6260319.2802849-.6260319.6260319v.0000629c0 .3457489.2802849.6260319.6260319.6260319h3.1336136c.345747-.0000001.6260319-.280283.6260319-.6260319z" fill="#e83d62"/></g></g><g><g><path d="m24.3228283 26.5242233h-1.742012c-.3425369 0-.6263275-.278923-.6263275-.6263275 0-.347435.2837906-.6263561.6263275-.6263561h1.742012c-.3425369 0-.6263256.2789211-.6263256.6263561 0 .3474045.2837887.6263275.6263256.6263275z" fill="#ce2955"/></g></g><g><g><path d="m32.2092209 25.8978806v-.0000629c0-.345747-.2802849-.6260319-.6260338-.6260319h-3.1336117c-.3457489 0-.6260338.2802849-.6260338.6260319v.0000629c0 .3457489.2802849.6260319.6260338.6260319h3.1336117c.3457489-.0000001.6260338-.280283.6260338-.6260319z" fill="#65b9ff"/></g></g><g><g><path d="m30.194788 26.5242233h-1.746912c-.3425064 0-.6263256-.278923-.6263256-.6263275 0-.347435.2838192-.6263561.6263256-.6263561h1.746912c-.3474045 0-.6263256.2789211-.6263256.6263561 0 .3474045.2789211.6263275.6263256.6263275z" fill="#3e7fff"/></g></g></g></g><g><g><g><g><g><path d="m13.5623178 4.9149375v11.1039829c0 .2050819-.1662531.3713341-.371336.3713341h-2.7511463c-.2050829 0-.371335-.1662521-.371335-.3713341v-11.1039829c0-.2050829.1662521-.371335.371335-.371335h2.7511463c.205083 0 .371336.1662521.371336.371335z" fill="#46cc6b"/></g></g></g><g><g><g><path d="m11.2656698 16.3902264h-.8250237c-.2070379 0-.3726845-.1656456-.3726845-.3727036v-11.101119c0-.207058.1656466-.372685.3726845-.372685h.8250237c-.2038698 0-.3694963.165627-.3694963.372685v11.101119c0 .207058.1656265.3727036.3694963.3727036z" fill="#179c5f"/></g></g></g></g><g><g><g><g><path d="m18.9470367 9.9442215v6.0746994c0 .2050819-.166254.3713341-.371336.3713341h-2.7514029c-.2050829 0-.371335-.1662521-.371335-.3713341v-6.0746994c0-.2050829.1662521-.371335.371335-.371335h2.7514029c.205082 0 .371336.1662521.371336.371335z" fill="#e83d62"/></g></g></g><g><g><g><path d="m16.6507454 16.3902264h-.8250237c-.2070389 0-.3726845-.1656456-.3726845-.3727036v-6.0732164c0-.2038698.1656456-.3726854.3726845-.3726854h.8250237c-.2038708 0-.3727055.1688156-.3727055.3726854v6.0732164c0 .207058.1688347.3727036.3727055.3727036z" fill="#ce2955"/></g></g></g></g><g><g><g><g><path d="m24.3317375 8.0555153v7.9634056c0 .2050819-.1662521.3713341-.3713341.3713341h-2.7510872c-.2050838 0-.371336-.1662521-.371336-.3713341v-7.9634056c0-.2050834.1662521-.371336.371336-.371336h2.7510872c.205082 0 .3713341.1662526.3713341.371336z" fill="#65b9ff"/></g></g></g><g><g><g><path d="m22.0361004 16.3902264h-.8281937c-.2038689 0-.3695145-.1656456-.3695145-.3727036v-7.9633055c0-.2038693.1656456-.3695159.3695145-.3695159h.8281937c-.2070389 0-.3726864.1656466-.3726864.3695159v7.9633055c0 .207058.1656475.3727036.3726864.3727036z" fill="#3e7fff"/></g></g></g></g><g><g><g><g><path d="m29.7168961 11.8181028v4.2008181c0 .2050819-.1662521.3713341-.3713341.3713341h-2.7511463c-.2050838 0-.371336-.1662521-.371336-.3713341v-4.2008181c0-.2050829.1662521-.371335.371336-.371335h2.7511463c.2050819 0 .3713341.1662521.3713341.371335z" fill="#fcb73e"/></g></g></g><g><g><g><path d="m27.420248 16.3902264h-.8250217c-.2070389 0-.3726845-.1656456-.3726845-.3727036v-4.1979542c0-.207058.1656456-.3726845.3726845-.3726845h.8250217c-.2038689 0-.3694954.1656265-.3694954.3726845v4.1979542c0 .207058.1656266.3727036.3694954.3727036z" fill="#e87f21"/></g></g></g></g></g><g><g><g><path d="m50.5126114 23.1475525v24.9665947c0 1.3184357-1.0688057 2.3872414-2.3872452 2.3872414h-18.1695766c-1.3184395 0-2.3872452-1.0688057-2.3872452-2.3872414v-24.9665947c0-1.3184376 1.0688057-2.3872433 2.3872452-2.3872433h18.1695766c1.3184395 0 2.3872452 1.0688057 2.3872452 2.3872433z" fill="#5b5e8b"/></g></g><g><g><path d="m33.3722 50.500061h-3.4164104c-1.3182812 0-2.3872452-1.0663071-2.3872452-2.3872414v-24.9652671c0-1.3182812 1.068964-2.3872433 2.3872452-2.3872433h3.4164104c-1.3209343 0-2.3872433 1.0689621-2.3872433 2.3872433v24.9652672c0 1.3209343 1.066309 2.3872413 2.3872433 2.3872413z" fill="#312e4b"/></g></g><g><g><path d="m47.9489746 24.3027115v5.4694481c0 .3449917-.2796707.6246624-.6246605.6246624h-16.5674705c-.3449917 0-.6246624-.2796707-.6246624-.6246624v-5.4694481c0-.3449898.2796707-.6246605.6246624-.6246605h16.5674706c.3449897 0 .6246604.2796707.6246604.6246605z" fill="#65b9ff"/></g></g><g><g><path d="m32.0830956 30.396822h-1.3262482c-.3448372 0-.6233463-.2785091-.6233463-.6233463v-5.4720955c0-.34482.2785091-.6233292.6233463-.6233292h1.3262482c-.3448391 0-.6233482.2785091-.6233482.6233292v5.4720955c-.0000001.3448371.2785091.6233463.6233482.6233463z" fill="#3e7fff"/></g></g><g><g><circle cx="32.331" cy="34.366" fill="#deddff" r="2.199"/></g></g><g><g><circle cx="39.041" cy="34.366" fill="#deddff" r="2.199"/></g></g><g><g><circle cx="45.75" cy="34.366" fill="#deddff" r="2.199"/></g></g><g><g><circle cx="45.75" cy="40.535" fill="#deddff" r="2.199"/></g></g><g><g><circle cx="39.041" cy="40.535" fill="#deddff" r="2.199"/></g></g><g><g><circle cx="32.331" cy="40.535" fill="#deddff" r="2.199"/></g></g><g><g><circle cx="45.75" cy="46.703" fill="#deddff" r="2.199"/></g></g><g><g><path d="m47.769928 47.5664063c-.3368568.785141-1.1166916 1.3342094-2.0211983 1.3342094-1.2148323 0-2.1989136-.9867363-2.1989136-2.198925 0-.9098053.5517235-1.6896362 1.3395081-2.0238533-.772728 1.7970695 1.0412903 3.6610489 2.8806038 2.8885689z" fill="#c6c6f7"/></g></g><g><g><path d="m47.769928 41.3993416c-.3368568.7851448-1.1166916 1.3342133-2.0211983 1.3342133-1.2148323 0-2.1989136-.9867363-2.1989136-2.1989288 0-.9098015.5517235-1.6896362 1.3395081-2.0238533-.7710877 1.7932548 1.0362472 3.663166 2.8806038 2.8885688z" fill="#c6c6f7"/></g></g><g><g><path d="m41.0617676 41.3993416c-.336853.7851448-1.1166878 1.3342133-2.0211983 1.3342133-1.2148285 0-2.1989098-.9867363-2.1989098-2.1989288 0-.9098015.5517235-1.6896362 1.3395042-2.0238533-.7710837 1.7932548 1.0362512 3.663166 2.8806039 2.8885688z" fill="#c6c6f7"/></g></g><g><g><path d="m34.353611 41.3993416c-.3368568.7851448-1.1166878 1.3342133-2.0211983 1.3342133-1.2148304 0-2.1989117-.9867363-2.1989117-2.1989288 0-.9098015.5517235-1.6896362 1.3395061-2.0238533-.7710875 1.7932548 1.0362474 3.663166 2.8806039 2.8885688z" fill="#c6c6f7"/></g></g><g><g><path d="m47.769928 35.2309761c-.3368568.7851448-1.1166916 1.3342133-2.0211983 1.3342133-1.2148323 0-2.1989136-.9867363-2.1989136-2.1989288 0-.9098015.5517235-1.6896362 1.3395081-2.0238533-.7710877 1.7932548 1.0362472 3.663166 2.8806038 2.8885688z" fill="#c6c6f7"/></g></g><g><g><path d="m41.0617676 35.2309761c-.336853.7851448-1.1166878 1.3342133-2.0211983 1.3342133-1.2148285 0-2.1989098-.9867363-2.1989098-2.1989288 0-.9098015.5517235-1.6896362 1.3395042-2.0238533-.7710837 1.7932548 1.0362512 3.663166 2.8806039 2.8885688z" fill="#c6c6f7"/></g></g><g><g><path d="m34.353611 35.2309761c-.3368568.7851448-1.1166878 1.3342133-2.0211983 1.3342133-1.2148304 0-2.1989117-.9867363-2.1989117-2.1989288 0-.9098015.5517235-1.6896362 1.3395061-2.0238533-.7710875 1.7932548 1.0362474 3.663166 2.8806039 2.8885688z" fill="#c6c6f7"/></g></g><g><g><path d="m41.2394905 46.7016907c0 1.1856728-.9442863 2.1564789-2.121994 2.19627v.002655h-6.7850685c-1.2175007 0-2.1989269-.9867363-2.1989269-2.198925 0-1.2148476.9814262-2.1989136 2.1989269-2.1989136h6.7850685v.002655c1.1777077.0397797 2.121994 1.007946 2.121994 2.1962586z" fill="#e83d62"/></g></g><g><g><path d="m33.9026985 48.9006157h-1.5702705c-1.2175007 0-2.1989269-.9867363-2.1989269-2.198925 0-1.2148476.9814262-2.1989136 2.1989269-2.1989136h1.5702705c-1.2174988 0-2.1989098.984066-2.1989098 2.1989136.0000001 1.2121887.981411 2.198925 2.1989098 2.198925z" fill="#ce2955"/></g></g></g></g></svg>