<svg id="Capa_1" enable-background="new 0 0 512 512" height="512" viewBox="0 0 512 512" width="512" xmlns="http://www.w3.org/2000/svg"><g><path d="m38.571 168.728c1.345-3.044-4.035-6.694-2.571-9.672 39.908-81.183 123.429-137.056 220-137.056 135.31 0 245 109.69 245 245 0 8.801-.464 17.494-1.369 26.056h-480.543c-.861-8.355-1.303-16.835-1.303-25.418 0-35.197 7.422-68.66 20.786-98.91z" fill="#93d0fd"/><path d="m500 289.279c-6.95 77.102-49.62 143.904-111.335 183.729-3.482 2.247-9.597-6.634-13.197-4.562-35.932 20.682-71.031 29.277-115.467 29.277-8.783 0-17.457-.462-26.001-1.363-3.584-.378-11.146 13.443-14.682 12.912-78.077-11.722-144.095-60.287-179.789-127.429-1.071-2.015-1.555-9.05-2.571-11.098-3.797-7.653-5.907-11.604-8.902-19.685-.571-1.541-2.986-2.014-3.527-3.57-3.274-9.415-5.989-19.092-8.107-28.99-.266-1.245 10.18-2.493 9.933-3.745-1.649-8.347-2.874-16.847-3.652-25.476z" fill="#65befc"/><path d="m183.224 306.57h15v112.875c0 1.105-.896 2-2 2h-11c-1.104 0-2-.895-2-2v-62.817h-143.695v25.216c-5.838-10.981-10.864-22.458-15-34.353v-40.92h15v35.058h143.695zm231.624 0v35.058h-143.696v-35.058h-15v112.875c0 1.105.896 2 2 2h11c1.104 0 2-.895 2-2v-62.817h143.695v62.817c0 1.105.896 2 2 2h11c1.104 0 2-.895 2-2v-112.875z" fill="#72443b"/><path d="m27.093 203.681v-61.582c0-6.486 5.373-11.745 12-11.745s12 5.258 12 11.745v61.582z" fill="#00c53b"/><path d="m87.785 147.869h-55.692c-2.761 0-5-2.239-5-5v-23.907c0-12.021 8.359-22.341 19.901-24.567l20.855-4.083c.037-.007.57-.029.608-.036 10.052-1.871 19.327 5.896 19.327 16.121v41.472z" fill="#00c53b"/><path d="m151.069 147.869h-95.457c-2.772-.003-5.019-2.24-5.019-5v-34.225c0-.061 0-.122.001-.183.062-8.717 6.514-16.098 15.115-17.741l2.218-.424c3.673-.702 7.372-1.237 11.088-1.605h.002c4.076-.404 8.17-.607 12.27-.607 7.837 0 15.656.74 23.359 2.212l21.452 4.098c11.597 2.227 19.996 12.546 19.996 24.567v23.907c-.001 2.762-2.25 5.001-5.025 5.001z" fill="#4bcd5c"/><path d="m132.093 203.681v-61.582c0-6.486 5.373-11.745 12-11.745s12 5.258 12 11.745v61.582z" fill="#74d579"/><path d="m132.593 117.446v107.659h-82v-107.659z" fill="#4bcd5c"/><path d="m128.404 36.811v11.534c0 16.128-10.373 29.833-24.811 34.81v12.504c0 6.627-5.373 12-12 12s-12-5.373-12-12v-12.504c-14.438-4.976-24.811-18.681-24.811-34.81v-11.534c0-20.33 16.481-36.811 36.811-36.811 20.33 0 36.811 16.481 36.811 36.811z" fill="#ffbfab"/><path d="m128.702 36.027v13.101c0 15.637-10.883 29.043-25.109 34.026-14.226-4.983-24-18.389-24-34.026v-13.101c0-15.637 10.179-28.902 24.405-33.885 14.227 4.984 24.704 18.248 24.704 33.885z" fill="#ffcebf"/><path d="m27.093 168.092c0-6.627 5.258-12 11.745-12h48.75c6.487 0 11.745 5.373 11.745 12s-5.258 12-11.745 12h-48.75c-6.487 0-11.745-5.374-11.745-12z" fill="#00c53b"/><path d="m144.004 180.092h-48.75c-6.487 0-11.745-5.373-11.745-12s5.258-12 11.745-12h48.75c6.486 0 11.745 5.373 11.745 12s-5.259 12-11.745 12z" fill="#74d579"/><path d="m67.601 168.092c0-3.103 1.153-5.93 3.044-8.061.135-.178.284-.348.446-.51l8.148-8.148c1.953-1.953 5.118-1.953 7.071 0 1.279 1.28 1.72 3.08 1.323 4.719h1.753c6.486 0 11.745 5.373 11.745 12s-5.258 12-11.745 12h-10.04c-6.487 0-11.745-5.373-11.745-12z" fill="#ffa78f"/><path d="m106.15 180.092h-10.04c-6.486 0-11.745-5.373-11.745-12s5.258-12 11.745-12h1.753c-.397-1.639.044-3.439 1.323-4.719 1.953-1.953 5.118-1.953 7.071 0l8.148 8.148c.162.162.311.333.446.51 1.892 2.13 3.044 4.958 3.044 8.061 0 6.627-5.258 12-11.745 12z" fill="#ffbfab"/><path d="m303.071 147.201v23.714c0 6.487-5.373 11.745-12 11.745s-12-5.258-12-11.745v-23.714c0-6.486 5.373-11.745 12-11.745s12 5.258 12 11.745z" fill="#bb5d4c"/><path d="m339.762 106.293v41.576h-60.691v-28.907c0-12.021 8.359-22.341 19.901-24.567l21.35-4.098.113-.021c10.038-1.897 19.327 5.801 19.327 16.017z" fill="#fa0"/><path d="m384.571 93.725v131.38h-82v-116.461c0-.061 0-.122.001-.183.062-8.717 6.514-16.098 15.115-17.741l2.218-.424c3.673-.702 7.373-1.237 11.088-1.605h.002c4.076-.404 8.17-.607 12.27-.607 7.837 0 15.656.74 23.359 2.212z" fill="#ffb509"/><path d="m355.571 83.155v12.505c0 6.627-5.373 12-12 12s-12-5.373-12-12v-12.505c-14.438-4.976-24.811-18.681-24.811-34.81v-11.534c0-20.33 16.481-36.811 36.811-36.811 4.305 0 8.565.739 12.405 2.098.683.242 1.229.503 1.893.782-13.228 5.581-22.513 18.671-22.513 33.931v11.534c0 4.236.716 8.304 2.032 12.092 1.806-1.088 3.921-1.714 6.183-1.714 6.627 0 12 5.373 12 12v10.488c.751.38.778 1.675 0 1.944z" fill="#bb5d4c"/><path d="m380.382 36.027v13.101c0 15.637-10.584 29.043-24.811 34.026-14.226-4.983-24-18.389-24-34.026v-13.101c0-15.637 10.179-28.947 24.405-33.93 14.227 4.984 24.406 18.293 24.406 33.93z" fill="#c96e59"/><path d="m466.133 20.818c0 34.933-20.603 65.496-51.151 81.824-.398.213-2.709-1.601-3.111-1.393-1.05.544-2.111 1.071-3.183 1.581-3.844-6.985-4.867-10.1-8.029-17.479.538-.253 1.073-.512 1.604-.776.333-.166.085-2.386.415-2.556 23.548-12.133 39.456-35.021 39.456-61.201z" fill="#bb5d4c"/><path d="m466.133 12.456v10.04c0 6.486-5.373 11.745-12 11.745-3.644 0-6.908-1.59-9.109-4.1-.188-.141-.368-.296-.538-.467l-7.071-7.071c-1.953-1.953-1.953-5.118 0-7.071 1.279-1.28 3.08-1.72 4.719-1.323v-1.753c0-6.486 5.373-11.745 12-11.745s11.999 5.259 11.999 11.745z" fill="#c96e59"/><path d="m414.981 102.642c-14.977 8.005-32.345 12.59-50.848 12.59v-24c14.01 0 27.168-3.352 38.544-9.213z" fill="#ffb509"/><path d="m351.311 168.091c0 6.627-5.258 12-11.745 12h-48.75c-6.486 0-11.745-5.373-11.745-12s5.258-12 11.745-12h48.75c6.487 0 11.745 5.374 11.745 12z" fill="#bb5d4c"/><path d="m361.914 168.092c0 6.627-5.258 12-11.745 12h-10.04c-6.486 0-11.745-5.373-11.745-12 0-3.103 1.153-5.93 3.044-8.061.135-.178.284-.348.446-.51l8.147-8.148c1.953-1.953 5.118-1.953 7.071 0 1.28 1.28 1.72 3.08 1.323 4.719h1.753c6.488 0 11.746 5.373 11.746 12z" fill="#c96e59"/><path d="m11 267c0-19.803 2.35-39.058 6.785-57.5.153-.634 6.535-1.268 6.692-1.9.719-2.887 1.489-5.754 2.31-8.6h26.402c2.761 0 5 2.239 5 5v109.5c0 2.761-2.239 5-5 5h-36.767c-3.552-16.605-5.422-33.834-5.422-51.5zm319.532-68h-78.532c-2.761 0-5 2.239-5 5v109.5c0 2.761 2.239 5 5 5h78.532c2.761 0 5-2.239 5-5v-109.5c0-2.761-2.239-5-5-5z" fill="#7e4c42"/><path d="m186 318.5h-133.468c-2.761 0-5-2.239-5-5v-109.5c0-2.761 2.239-5 5-5h133.468c2.761 0 5 2.239 5 5v109.5c0 2.761-2.239 5-5 5zm253-5v-109.5c0-2.761-2.239-5-5-5h-100.615c-2.761 0-5 2.239-5 5v109.5c0 2.761 2.239 5 5 5h100.615c2.761 0 5-2.239 5-5z" fill="#955b50"/><path d="m444 209.5h-202c-2.761 0-5-2.239-5-5v-20c0-2.761 2.239-5 5-5h202c2.761 0 5 2.239 5 5v20c0 2.761-2.239 5-5 5zm-426.215 0h178.215c2.761 0 5-2.239 5-5v-20c0-2.761-2.239-5-5-5h-168.913c-3.717 9.718-6.833 19.733-9.302 30z" fill="#ac695d"/><path d="m249.225 375.085-91.924 91.924c-3.905 3.905-10.237 3.905-14.142 0l-113.137-113.137c-3.905-3.905-3.905-10.237 0-14.142l91.924-91.924c3.905-3.905 10.237-3.905 14.142 0l113.137 113.137c3.905 3.905 3.905 10.237 0 14.142z" fill="#0055ca"/><path d="m212.624 439.97-27.039 27.039c-3.905 3.905-10.237 3.905-14.142 0l-113.137-113.137c-3.905-3.905-3.905-10.237 0-14.142l27.039-27.039c3.905-3.905 10.237-3.905 14.142 0l113.137 113.137c3.906 3.905 3.906 10.237 0 14.142z" fill="#ececf1"/><path d="m277.509 375.085-66.325 66.325c-3.905 3.905-10.237 3.905-14.142 0l-113.136-113.138c-3.905-3.905-3.905-10.237 0-14.142l66.325-66.325c3.905-3.905 10.237-3.905 14.142 0l113.137 113.137c3.905 3.906 3.905 10.238-.001 14.143z" fill="#ffeee6"/><path d="m175.601 300.27-64.831 64.831c-4.318 4.318-11.318 4.318-15.636 0-4.318-4.318-4.318-11.318 0-15.636l64.831-64.831c4.318-4.318 11.318-4.318 15.636 0 4.318 4.318 4.318 11.318 0 15.636zm4.256 41.725c-4.318-4.318-11.318-4.318-15.636 0l-38.278 38.278c-4.318 4.318-4.318 11.318 0 15.636s11.318 4.318 15.636 0l38.278-38.278c4.318-4.317 4.318-11.318 0-15.636z" fill="#d4d4da"/><path d="m121.946 290.232-21.213 21.213c-3.905 3.905-10.237 3.905-14.142 0l-14.142-14.142c-3.905-3.905-3.905-10.237 0-14.142l21.213-21.213c3.905-3.905 10.237-3.905 14.142 0l14.142 14.142c3.905 3.905 3.905 10.237 0 14.142z" fill="#0077f0"/><path d="m344.007 180.851v18.603c0 26.013-16.729 48.118-40.016 56.143v20.167c0 10.689-8.665 19.354-19.354 19.354-10.689 0-19.354-8.665-19.354-19.354v-20.167c-23.287-8.026-40.016-30.131-40.016-56.143v-18.603c0-32.789 26.581-59.37 59.37-59.37 32.789.001 59.37 26.581 59.37 59.37z" fill="#f6a96c"/><path d="m298.853 236.677h-42.432c-18.54 0-33.57-15.03-33.57-33.57v-22.137c0-34.123 27.663-61.786 61.786-61.786 6.93 0 13.593 1.141 19.812 3.245.48.163.483.837.011 1.022-22.94 9.024-39.177 31.375-39.177 57.519v22.138c0 18.54 15.03 33.569 33.57 33.569z" fill="#929298"/><path d="m312.854 236.677h-17.098c-18.54 0-33.57-15.03-33.57-33.57v-22.137c0-27.247 17.638-50.375 42.118-58.59 24.481 8.214 42.118 31.342 42.118 58.59v22.138c.001 18.54-15.028 33.569-33.568 33.569z" fill="#a1a1a7"/><path d="m219.764 347.773v52.537c0 10.462-8.666 18.942-19.354 18.942s-19.354-8.48-19.354-18.942v-52.537c0-10.461 8.666-18.942 19.354-18.942s19.354 8.481 19.354 18.942z" fill="#0066ed"/><path d="m151.598 409.518c0 10.688-8.481 19.354-18.942 19.354h-33.784v-38.708h33.784c10.461 0 18.942 8.666 18.942 19.354z" fill="#ea9b58"/><path d="m278.941 359.97h-97.885v-46.622c0-19.388 13.482-36.032 32.098-39.623l34.054-6.622.562-.022c16.19-3.059 31.171 9.357 31.171 25.834z" fill="#0066ed"/><path d="m388.665 348.237c0 6.479-5.253 11.732-11.732 11.732h-149.559c-4.45-.004-8.056-3.613-8.056-8.064v-55.199c0-.098 0-.197.001-.295.099-14.024 10.325-25.938 24.097-28.582l3.726-.715c5.896-1.131 11.834-1.995 17.798-2.589h.002c6.542-.651 13.115-.979 19.695-.979 12.579 0 25.132 1.194 37.495 3.567l34.435 6.609c18.616 3.591 32.098 20.235 32.098 39.623z" fill="#0077f0"/><path d="m350.763 493c-29.151 12.238-61.167 19-94.763 19-12.467 0-24.716-.931-36.683-2.728v-198.369h131.446z" fill="#0077f0"/><path d="m388.665 347.773v125.235c-12.201 7.874-25.147 14.693-38.708 20.328v-145.563c0-10.461 8.666-18.942 19.354-18.942s19.354 8.481 19.354 18.942z" fill="#0066ed"/><path d="m200.822 428.872h-71.479v-38.708h71.479c10.461 0 18.942 8.666 18.942 19.354s-8.481 19.354-18.942 19.354z" fill="#0066ed"/><path d="m388.665 399.434v10.496c0 10.462-8.666 18.942-19.354 18.942s-19.354-8.48-19.354-18.942v-10.496c0-10.461 8.666-18.942 19.354-18.942s19.354 8.48 19.354 18.942zm-188.255-18.942c-10.688 0-19.354 8.481-19.354 18.942v10.496c0 10.462 8.666 18.942 19.354 18.942s19.354-8.48 19.354-18.942v-10.496c0-10.462-8.666-18.942-19.354-18.942z" fill="#0055ca"/><path d="m111.376 407.957c0 13.684-10.63 24.885-24.084 25.796-.313.04-.632.06-.956.06h-11.822c-4.082 0-7.626-3.143-7.773-7.223-.032-.894.092-1.754.348-2.556.389-1.22-.547-2.459-1.828-2.459-.504 0-.999-.181-1.36-.532-3.588-3.491-3.963-7.389-2.56-10.259.448-.917.194-2.058-.669-2.604-2.102-1.329-3.497-3.673-3.497-6.343 0-1.195.279-2.324.776-3.327.441-.889.129-2.008-.714-2.53-2.233-1.383-3.686-3.906-3.547-6.757.192-3.927 3.829-7.123 7.761-7.123h9.863c1.742 0 2.651-2.071 1.472-3.354l-2.623-2.854c-2.779-3.023-2.873-7.801.066-10.67 3.041-2.968 7.91-2.819 10.765.287l19.921 21.67c6.347 4.714 10.461 12.265 10.461 20.778z" fill="#f6a96c"/></g></svg>