<svg id="Layer_1" height="512" viewBox="0 0 512 512" width="512" xmlns="http://www.w3.org/2000/svg" data-name="Layer 1"><path d="m82.764 58.605h273.646c15.3 0 27.772 12.91 27.772 28.763v370.981c0 15.854-12.473 28.764-27.772 28.764h-273.646c-15.329 0-27.773-12.91-27.773-28.764v-370.981c0-15.853 12.444-28.763 27.773-28.763z" fill="#60b7ff" fill-rule="evenodd"/><path d="m88.1 100.337v345.044a8.638 8.638 0 0 0 8.626 8.6h245.725a8.631 8.631 0 0 0 8.6-8.6v-345.044a8.631 8.631 0 0 0 -8.6-8.6h-245.728a8.638 8.638 0 0 0 -8.626 8.6z" fill="#eaf6ff" fill-rule="evenodd"/><path d="m170.919 33.863h14.8a33.863 33.863 0 0 1 67.726 0h14.775a27.631 27.631 0 0 1 27.54 27.54v50.212a8.613 8.613 0 0 1 -8.6 8.6h-135.183a8.632 8.632 0 0 1 -8.6-8.6v-50.215a27.63 27.63 0 0 1 27.539-27.54z" fill="#685e68" fill-rule="evenodd"/><path d="m219.7 24.48a7.2 7.2 0 1 1 0 14.4h-.262a7.2 7.2 0 0 1 0-14.4zm-48.23 74.458a7.2 7.2 0 0 1 0-14.4h96.2a7.2 7.2 0 0 1 0 14.4z" fill="#eaf6ff"/><path d="m457.009 422.592a89.394 89.394 0 1 1 -89.379-89.38 89.4 89.4 0 0 1 89.379 89.38z" fill="#3bb54a" fill-rule="evenodd"/><path d="m317.33 431.451a7.2 7.2 0 1 1 10.171-10.2l22.556 22.556 57.672-57.672a7.192 7.192 0 0 1 10.171 10.171l-62.772 62.772a7.213 7.213 0 0 1 -10.171 0z" fill="#eaf6ff"/><path d="m293.987 147.955h-23.139a3.091 3.091 0 0 0 -3.089 3.089v102.93a3.11 3.11 0 0 0 3.089 3.09h23.139a3.11 3.11 0 0 0 3.089-3.09v-102.93a3.091 3.091 0 0 0 -3.089-3.089z" fill="#35a343" fill-rule="evenodd"/><path d="m231.156 171.065h-23.138a3.11 3.11 0 0 0 -3.09 3.089v79.82a3.11 3.11 0 0 0 3.09 3.09h23.138a3.085 3.085 0 0 0 3.06-3.09v-79.82a3.085 3.085 0 0 0 -3.06-3.089z" fill="#cf3a45" fill-rule="evenodd"/><path d="m168.3 194.2h-23.14a3.085 3.085 0 0 0 -3.06 3.089v56.681a3.085 3.085 0 0 0 3.06 3.09h23.14a3.109 3.109 0 0 0 3.088-3.09v-56.677a3.109 3.109 0 0 0 -3.088-3.093z" fill="#e6a82e" fill-rule="evenodd"/><path d="m142.1 299.728a7.2 7.2 0 0 1 0-14.4h154.976a7.2 7.2 0 0 1 0 14.4zm0 105.233a7.2 7.2 0 0 1 0-14.4h101.1a7.2 7.2 0 0 1 0 14.4zm0-35.088a7.184 7.184 0 1 1 0-14.367h101.1a7.184 7.184 0 1 1 0 14.367zm0-35.058a7.2 7.2 0 1 1 0-14.4h154.976a7.2 7.2 0 0 1 0 14.4z" fill="#d3dde6"/><g fill-rule="evenodd"><path d="m160.486 58.605a27.653 27.653 0 0 1 27.394-24.742h14.8a33.869 33.869 0 0 1 25.387-32.785 33.866 33.866 0 0 0 -42.343 32.785h-14.8a27.631 27.631 0 0 0 -27.393 24.742c-.088.932-.146 1.865-.146 2.8v50.212a8.632 8.632 0 0 0 8.6 8.6h16.99a8.638 8.638 0 0 1 -8.626-8.6v-50.217c0-.933.058-1.866.145-2.8z" fill="#5e555e"/><path d="m104.329 453.978v-362.238h-7.606a8.638 8.638 0 0 0 -8.626 8.6v345.041a8.638 8.638 0 0 0 8.626 8.6z" fill="#d3dde6"/><path d="m88.1 445.381v-345.044a8.638 8.638 0 0 1 8.626-8.6h7.606v-33.132h-21.568c-15.329 0-27.773 12.91-27.773 28.763v370.981c0 15.854 12.444 28.764 27.773 28.764h21.565v-33.135h-7.606a8.638 8.638 0 0 1 -8.626-8.6z" fill="#56a5e6"/><path d="m275.19 147.955v109.109h18.8a3.11 3.11 0 0 0 3.089-3.09v-102.93a3.091 3.091 0 0 0 -3.089-3.089z" fill="#3bb54a"/><path d="m212.36 171.065v86h18.8a3.085 3.085 0 0 0 3.06-3.09v-79.82a3.085 3.085 0 0 0 -3.06-3.089z" fill="#e6404d"/><path d="m149.85 194.2a2.728 2.728 0 0 0 -.35 1.37v61.49h18.8a3.109 3.109 0 0 0 3.088-3.09v-56.677a3.109 3.109 0 0 0 -3.088-3.093z" fill="#fb3"/><path d="m302.147 422.592a89.377 89.377 0 0 1 77.431-88.592 89.862 89.862 0 0 0 -11.948-.787 89.394 89.394 0 1 0 0 178.788 89.679 89.679 0 0 0 11.948-.816 89.255 89.255 0 0 1 -77.431-88.592z" fill="#35a343"/></g></svg>