<svg height="464pt" viewBox="0 0 464 464" width="464pt" xmlns="http://www.w3.org/2000/svg"><path d="m224 137.601562-10.398438-50.402343c-9.601562-43.199219-51.203124-70.398438-93.601562-61.597657-30.398438 6.398438-54.398438 30.398438-60.800781 60.796876l-11.199219 51.203124c-4 17.597657 7.199219 34.398438 24.800781 37.597657 2.398438.800781 4 .800781 6.398438.800781h112.800781c17.601562 0 32-14.398438 32-32 .800781-2.398438 0-4.800781 0-6.398438zm0 0" fill="#5b4349"/><path d="m256 120 19.199219-19.199219c3.199219-3.199219 4.800781-7.199219 4.800781-11.199219v-73.601562c0-8.800781 7.199219-16 16-16h152c8.800781 0 16 7.199219 16 16v96c0 8.800781-7.199219 16-16 16h-192zm0 0" fill="#878b9b"/><path d="m88 72v54.398438c0 14.402343 2.398438 19.203124 7.199219 22.402343l9.601562 6.398438c4.800781 3.199219 7.199219 8 7.199219 13.601562v39.199219h48v-39.199219c0-5.601562 2.398438-10.402343 7.199219-13.601562l9.601562-6.398438c4.800781-3.199219 7.199219-8 7.199219-13.601562v-63.199219zm0 0" fill="#efccbf"/><path d="m223.199219 228.800781-63.199219-20.800781h-48l-63.199219 20.800781c-19.199219 6.398438-32.800781 24.800781-32.800781 45.597657v109.601562h240v-109.601562c0-20.796876-13.601562-39.199219-32.800781-45.597657zm0 0" fill="#5da364"/><path d="m64 280h16v104h-16zm0 0" fill="#538457"/><path d="m192 312h16v72h-16zm0 0" fill="#538457"/><path d="m0 384h272v80h-272zm0 0" fill="#b5a58c"/><path d="m96 416h80v16h-80zm0 0" fill="#d3c6af"/><g fill="#676b7f"><path d="m304 24h136v16h-136zm0 0"/><path d="m304 56h136v16h-136zm0 0"/><path d="m304 88h104v16h-104zm0 0"/></g><path d="m160 280h48v16h-48zm0 0" fill="#71bf79"/><path d="m136 24c-37.601562 0-69.601562 26.398438-76.800781 62.398438l-4 17.601562 35.199219-19.199219c13.601562-8 29.601562-7.199219 43.203124.800781 12 7.199219 26.398438 8 38.398438 2.398438l36-16c-12.800781-29.601562-40.800781-48-72-48zm0 0" fill="#704d4d"/><path d="m70.398438 222.398438 33.601562 33.601562 32-24v-24h-24zm0 0" fill="#71bf79"/><path d="m168 256 33.601562-33.601562-41.601562-14.398438h-24v24zm0 0" fill="#71bf79"/><path d="m128 208h16v176h-16zm0 0" fill="#538457"/><path d="m317.601562 302.398438c-18.402343-10.398438-29.601562-30.398438-29.601562-52v-58.398438c0-17.601562 14.398438-32 32-32h88v90.398438c0 21.601562-11.199219 40.800781-29.601562 52-18.398438 10.402343-42.398438 10.402343-60.796876 0zm0 0" fill="#704d4d"/><path d="m436 331.199219-60-27.199219h-56l-60 27.199219c-16.800781 8-28 24.800781-28 44v88.800781h232v-88.800781c0-19.199219-11.199219-36-28-44zm0 0" fill="#f4c167"/></svg>