<svg clip-rule="evenodd" fill-rule="evenodd" height="1.707in" image-rendering="optimizeQuality" shape-rendering="geometricPrecision" text-rendering="geometricPrecision" viewBox="0 0 1706.66 1706.66" width="1.707in" xmlns="http://www.w3.org/2000/svg" xmlns:xodm="http://www.corel.com/coreldraw/odm/2003"><g id="Layer_x0020_1"><g id="_898849648"><path d="m1687.79 1410.38h-541.08c13.14-23.93 28.25-51.61 31.97-58.47 123.96-228.73 122.45-373.8 110.29-440.46l-.07-.37-.07-.38-.07-.38-.08-.39-.08-.39-.08-.4-.08-.4-.09-.41-.09-.41-.09-.41-.09-.42v-.01l-.09-.42v-.01l-.1-.43v-.01l-.1-.43v-.01l-.1-.43v-.01l-.1-.44v-.01l-.1-.44v-.01l-.11-.44v-.01l-.11-.44v-.01l-.11-.45v-.02l-.11-.45v-.01l-.11-.46v-.02l-.12-.46v-.02l-.12-.46v-.02l-.12-.46-.25-.98v-.02l-.13-.48v-.02l-.13-.48v-.02l-.4-1.49v-.02l-.13-.49v-.02l-.13-.49v-.02l-.14-.49v-.02l-.14-.5v-.03l-.14-.5v-.03l-.14-.5-.01-.03-.14-.5v-.03l-.44-1.58-.01-.03-.15-.51-.01-.03-.3-1.06-.01-.04-.15-.51-.01-.04-.48-1.63-.01-.04-.15-.52-.01-.04-.16-.52-.01-.04-.16-.52-.01-.04-.16-.53-.01-.04-.16-.53-.01-.04-.16-.53-.01-.04-.33-1.1-.01-.05-.16-.53-.01-.04-.34-1.11-.01-.05-.17-.54-.01-.05-.17-.54-.01-.05-.17-.54-.01-.05-.17-.54-.01-.05c-4.3-13.99-9.5-29.46-13.98-42.37 1.57-.17 3.18-.15 4.81.09 371.08 59.6 388.32 193.41 429.98 516.69l4.63 35.82c.69 5.22-.93 10.48-4.39 14.44-3.48 3.96-8.5 6.22-13.76 6.22zm-748.97 0h-541.08c-5.26 0-10.27-2.27-13.75-6.22-3.48-3.96-5.08-9.22-4.4-14.44l4.63-35.82c41.66-323.27 58.9-457.09 429.97-516.69 1.65-.25 3.27-.28 4.85-.11l-.03.02c-4.47 12.91-9.67 28.37-13.96 42.37l-.02.06c-3.84 12.52-7.01 24-8.45 31.9-12.16 66.66-13.67 211.74 110.29 440.46 3.72 6.86 18.83 34.54 31.97 58.47zm188.51-554.61-84.57 122.78-.38-.55.48.4zm-100.54 190.24-38.83 29.57-5.59 4.26-23.6 17.97-53.15 40.47 76.75-58.44 44.43-33.83z" fill="#1a3b55"/><path d="m938.82 1410.38h-218.01l-106.56-263.8c-2.62-6.52-1.28-13.95 3.46-19.15l59.45-65.22-100.5-18.96c-5.91-1.11-10.89-5.05-13.34-10.55-2.43-5.5-2.03-11.82 1.1-16.97l65.88-108.16 20.55-31.96c45.09-15.44 98.86-28.04 163.33-38.4 1.64-.26 3.26-.29 4.83-.11-8.49 24.48-19.39 57.56-22.45 74.35-12.16 66.66-13.67 211.74 110.29 440.46 3.72 6.86 18.83 34.54 31.97 58.47z" fill="#31597a"/><path d="m902.48 794.49c-.1-1.39-.15-2.52-.15-3.32v-78.57c46.47 38.7 79.31 62.03 144.38 62.03 61.44 0 91.24-20.8 136.49-55.72v75.63c-2.56-.77-4.56-1.12-5.85-.94-5.11.73-9.7 3.57-12.61 7.86l-121.81 176.83-.18.26-.38-.55-121.6-176.55c-2.91-4.28-7.49-7.13-12.61-7.86-1.26-.18-3.21.16-5.69.9z" fill="#e6b88a"/><path d="m894.52 1142.01h-.01-.08-.01-.08-.01-.08-.01-.08-.01-.08-.01-.08-.01-.08-.01-.08-.01-.08-.01-.08-.01l-.08-.01h-.01-.08-.01-.08-.01l-.08-.01h-.01-.08-.01l-.08-.01h-.01l-.08-.01h-.01l-.08-.01h-.01l-.08-.01h-.01l-.08-.01h-.01l-.08-.01h-.01l-.08-.01h-.01l-.08-.01h-.01l-.08-.01h-.01l-.08-.01h-.01l-.17-.02h-.01l-.17-.03h-.01l-.08-.01h-.01l-.17-.03h-.01l-.08-.02h-.01l-.44-.08h-.01l-.08-.02h-.01l-.26-.06-.09-.02-.08-.02h-.01l-.08-.02h-.01l-.26-.06h-.01l-.26-.07-.27-.07-.26-.07-.09-.02-.53-.16c-5.73-1.89-10.48-6.31-12.15-12.11l-63.69-222.09-7.38-25.59-.52-1.7-.02-.07c-3.84 12.52-7.01 24-8.45 31.9-12.16 66.66-13.67 211.74 110.29 440.46 3.72 6.86 18.83 34.54 31.97 58.47h24.77 158.28.22 24.62c13.14-23.93 28.25-51.61 31.97-58.47 123.96-228.73 122.45-373.8 110.29-440.46-1.44-7.91-4.62-19.43-8.47-31.96l-71.91 249.31c-1.67 5.8-6.11 10.41-11.85 12.3-1.87.63-3.81.92-5.74.92-3.96 0-7.87-1.28-11.09-3.74l-53.19-40.51-29.21-22.23-54.74-41.69-15.98 12.17-38.83 29.57-5.59 4.26-23.6 17.97-53.15 40.47-.02.01-.14.11-.02.01-.29.22-.02.01c-.3.22-.61.43-.93.62h-.01l-.63.38h-.01l-.31.18h-.01l-.49.26h-.01l-.33.16h-.01l-.16.08h-.01l-.16.08h-.01l-.16.07h-.01l-.17.07h-.01l-.16.07h-.01l-.17.07h-.01l-.17.07h-.01l-.17.07-.17.07h-.01l-.17.06-.17.06-.17.06-.17.06-.18.06-.18.06-.18.05-.18.05-.18.05-.18.05-.18.05-.18.04-.18.04-.18.04-.18.04-.18.04-.18.04-.18.03-.18.03h-.01l-.18.03-.18.03h-.01l-.18.02-.18.02h-.01l-.18.02h-.01l-.18.02-.18.02h-.01l-.18.02h-.01l-.18.01h-.01l-.18.01h-.01l-.18.01h-.01l-.18.01h-.01l-.18.01h-.01-.18-.01-.18-.01-.18z" fill="#d8d8d8"/><path d="m942.4 1410.38h21.19 158.28.22 19.82l-33.55-300.73c-.8-7.2-5.8-13.26-12.73-15.42-6.9-2.16-14.47-.04-19.24 5.42l-33.65 38.47-33.69-38.47c-4.78-5.46-12.33-7.57-19.25-5.42-6.91 2.17-11.9 8.22-12.72 15.42z" fill="#db352c"/><path d="m1042.76 1184.23c-5.28 0-10.3-2.28-13.77-6.24l-70.22-80.18 84-63.96 83.95 63.93-70.19 80.22c-3.46 3.98-8.49 6.24-13.77 6.24z" fill="#c53028"/><path d="m1191.01 1142.01c-3.96 0-7.87-1.28-11.09-3.74l-148.24-112.88c-7.74-5.89-9.52-16.8-4.06-24.85l15.37-22.31 121.77-176.79c2.91-4.28 7.49-7.13 12.61-7.86 11.09-1.54 75.28 36.21 89.17 43.52 4.48 12.92 9.69 28.41 13.99 42.42l-.02.07-.52 1.7-7.38 25.59-63.69 222.09c-1.67 5.8-6.42 10.21-12.15 12.11-1.87.63-3.81.92-5.74.92z" fill="#c4c4c4"/><path d="m1364.72 1410.38h-218.01c13.14-23.93 28.25-51.61 31.97-58.47 123.96-228.73 122.45-373.8 110.29-440.46-3.06-16.79-13.95-49.85-22.44-74.33 1.57-.17 3.18-.15 4.81.09 64.48 10.35 118.26 22.96 163.35 38.41l20.54 31.95 65.88 108.16c3.13 5.15 3.53 11.47 1.09 16.97-2.45 5.5-7.43 9.44-13.34 10.55l-100.5 18.96 59.44 65.22c4.74 5.2 6.08 12.63 3.46 19.15l-106.56 263.8z" fill="#31597a"/><path d="m894.51 1142.01c3.95 0 7.88-1.27 11.11-3.73l148.24-112.88c7.74-5.89 9.51-16.81 4.06-24.85l-137.14-199.1c-2.91-4.28-7.49-7.13-12.61-7.86-11.09-1.54-75.28 36.21-89.17 43.52-4.48 12.92-9.69 28.41-13.98 42.42l.02.07.52 1.7 7.38 25.59 63.69 222.09c1.67 5.8 6.42 10.21 12.15 12.11 1.87.63 3.81.92 5.74.92z" fill="#c4c4c4"/><path d="m794.18 509.02c-8.73 0-16.76-5.04-20.54-13-68.05-143.98-67.37-259.19 2.03-342.45 51.19-61.41 123.73-95.84 221.74-105.26 18.95-1.81 34.09-2.66 47.65-2.66 42.13 0 75 7.99 125.56 30.52 18.87 8.41 30.12 26.51 36.88 40.5 4.85-2.09 10.97-3.97 18.41-3.97 12.95 0 25.85 5.78 39.43 17.69 99.89 87.54 78.91 251.63 8.44 361.6-5.13 8-14.71 11.98-24.02 9.92-9.3-2.05-16.32-9.69-17.6-19.13-1.63-12.13-2-27.98-2.43-46.37-.57-24.74-1.88-81.7-11.87-93.46-.92.27-2.49.84-4.75 2.07-49.7 27.28-89.24 30.23-103.92 30.23-2.87 0-4.9-.11-6.05-.19-35.75-.8-68.26-17.62-96.99-32.46-24.8-12.83-48.22-24.94-69.02-24.94-15.26 0-61.68 0-121.46 175.95-2.98 8.76-10.98 14.84-20.21 15.37-.42.03-.87.05-1.28.05z" fill="#883f2e"/><path d="m1024.43 795.61c-139.48 0-252.96-113.48-252.96-252.95v-56.35c0-2.49.4-4.94 1.2-7.31 49.24-144.93 98.42-206.76 164.47-206.76 31.85 0 61.35 15.25 89.89 30.01 26.86 13.88 52.24 27.01 77.62 27.4.62 0 1.24.04 1.87.11.85.03 35.62 2.41 84.76-24.56 9.56-5.25 18.87-7.89 27.69-7.89 53.02 0 54.78 76.55 56.18 138.04.38 16.32.73 31.71 2.03 41.32.13 1.01.2 2.03.2 3.04v62.94c0 139.49-113.45 252.96-252.95 252.96z" fill="#fc9"/><path d="m243.8 1661.02c-10.68 0-19.39-8.61-19.5-19.31l-.75-76.21c-5.43-1.93-10.78-4.1-16.02-6.47l-53.36 54.43c-3.63 3.69-8.56 5.81-13.74 5.85-4.99.23-10.16-1.96-13.85-5.57l-75.38-73.9c-3.69-3.63-5.79-8.56-5.84-13.74s1.95-10.16 5.57-13.84l53.38-54.43c-2.48-5.2-4.74-10.5-6.78-15.89l-76.22.74c-.06 0-.13 0-.2 0-10.68 0-19.39-8.61-19.5-19.31l-1.04-105.55c-.05-5.17 1.95-10.15 5.57-13.84s8.56-5.8 13.74-5.85l76.21-.76c1.94-5.42 4.09-10.77 6.47-16.04l-54.43-53.37c-7.69-7.54-7.81-19.89-.26-27.57l73.89-75.37c7.54-7.7 19.89-7.84 27.57-.27l54.44 53.36c5.2-2.47 10.5-4.74 15.89-6.77l-.76-76.22c-.11-10.78 8.54-19.6 19.31-19.69l105.54-1.06c5.16.09 10.16 1.96 13.84 5.57 3.69 3.63 5.81 8.56 5.85 13.74l.76 76.22c5.42 1.93 10.77 4.08 16.03 6.47l53.37-54.43c3.63-3.69 8.56-5.8 13.74-5.85 5.41.16 10.16 1.95 13.84 5.57l75.38 73.9c3.69 3.63 5.81 8.56 5.85 13.74.06 5.17-1.95 10.16-5.57 13.84l-53.36 54.43c2.48 5.2 4.74 10.5 6.77 15.89l76.22-.74h.2c10.69 0 19.4 8.61 19.5 19.31l1.06 105.56c.06 5.17-1.95 10.15-5.57 13.84-3.63 3.69-8.56 5.8-13.74 5.85l-76.22.76c-1.93 5.43-4.09 10.77-6.47 16.02l54.44 53.36c3.69 3.63 5.81 8.57 5.86 13.75.05 5.16-1.96 10.16-5.58 13.84l-73.9 75.38c-7.53 7.7-19.89 7.8-27.57.28l-54.44-53.37c-5.2 2.48-10.51 4.74-15.89 6.78l.74 76.22c.06 5.17-1.96 10.16-5.57 13.84-3.63 3.69-8.56 5.81-13.74 5.85l-105.55 1.04c-.1 0-.17 0-.24 0z" fill="#225362"/><path d="m293.82 1498.48c-71.68 0-130.59-58.1-131.3-129.49-.72-72.1 57.62-131.36 130.04-132.09.07 0 1.24-.01 1.31-.01 71.71 0 130.61 58.1 131.33 129.49.35 34.96-13 67.95-37.57 92.89-24.56 24.93-57.39 38.86-92.46 39.2-.07 0-1.27.02-1.33.02z" fill="#4f8496"/><path d="m293.83 1449.56c-44.87 0-81.75-36.37-82.19-81.06-.45-45.13 36.07-82.23 81.4-82.69.04 0 .78-.01.82-.01 44.89 0 81.76 36.37 82.21 81.06.22 21.89-8.13 42.54-23.52 58.15-15.37 15.61-35.93 24.33-57.88 24.54-.04 0-.79.01-.83.01z" fill="#fff"/></g></g></svg>