<svg enable-background="new 0 0 512 512" viewBox="0 0 512 512" xmlns="http://www.w3.org/2000/svg"><g id="_x30_6_x2C__salery_x2C__wage_x2C__money_x2C__payroll_x2C__dollar_x2C__finance"><g><g><path d="m310.994 1h-273.509c-15.686 0-28.4 12.715-28.4 28.401v399.921c0 15.686 12.715 28.401 28.401 28.401h101.234l200.675-261.256v-167.066c0-15.686-12.715-28.401-28.401-28.401z" fill="#d5e8fe"/><path d="m391.136 198.63c-7.244-13.051-23.687-17.744-36.737-10.499-12.253 6.807-233.658 129.813-255.639 142.025-13.04 7.245-17.744 23.687-10.499 36.737 7.039 12.671 55.437 99.79 65.537 117.971 7.255 13.04 23.697 17.744 36.748 10.489l3.916-2.173 198.858-290.644z" fill="#00cb75"/><path d="m397.236 200.362c13.04-7.245 29.493-2.541 36.737 10.499l65.537 117.971c7.245 13.04 2.551 29.493-10.499 36.737l-255.639 142.026c-13.04 7.245-29.493 2.551-36.737-10.499-81.817-147.275-62.284-112.115-65.537-117.971-7.255-13.04-2.551-29.493 10.489-36.737 5.277-2.932 234.738-130.408 255.649-142.026z" fill="#70d840"/><path d="m216.028 142.742 7.732 19.686-7.732 19.686h-83.997l-11.308-19.686 11.308-19.686z" fill="#0094ff"/><path d="m216.028 142.742h83.997v39.373h-83.997z" fill="#72bbff"/><path d="m48.034 142.742h83.997v39.373h-83.997z" fill="#72bbff"/><path d="m422.267 254.644 33.882 61.001c-13.565 7.539-18.447 24.653-10.919 38.218l-198.67 110.37c-7.539-13.565-24.653-18.447-38.218-10.919l-33.892-61.001c13.576-7.539 18.458-24.642 10.919-38.207l198.68-110.38c7.538 13.564 24.642 18.457 38.218 10.918z" fill="#00cb75"/><path d="m342.839 338.681c8.441 15.214 2.971 34.385-12.242 42.837-15.203 8.441-34.385 2.961-42.827-12.242-8.452-15.203-2.971-34.385 12.232-42.827 15.213-8.452 34.385-2.971 42.837 12.232z" fill="#70d840"/><path d="m280.884 373.102c-10.542-18.978-3.681-42.996 15.297-53.54 18.978-10.543 42.997-3.681 53.539 15.297 10.569 19.021 3.729 42.97-15.296 53.539-18.856 10.476-42.929 3.804-53.54-15.296zm22.946-39.772c-11.387 6.326-15.504 20.737-9.178 32.124 6.325 11.387 20.734 15.505 32.123 9.178 11.387-6.326 15.504-20.736 9.179-32.123-6.295-11.329-20.686-15.535-32.124-9.179z" fill="#00ad64"/><path d="m370.371 323.387c-2.111-3.802-.742-8.596 3.06-10.709l27.534-15.297c3.806-2.109 8.596-.74 10.709 3.06 2.111 3.802.742 8.596-3.06 10.709l-27.534 15.297c-3.795 2.106-8.592.75-10.709-3.06z" fill="#70d840"/><path d="m218.932 407.52c-2.111-3.802-.742-8.596 3.06-10.709l27.534-15.297c3.804-2.111 8.596-.74 10.709 3.06 2.111 3.802.742 8.596-3.06 10.709l-27.534 15.297c-3.795 2.105-8.592.749-10.709-3.06z" fill="#70d840"/><g fill="#bedfff"><path d="m221.274 111.24h-165.366c-4.349 0-7.875-3.525-7.875-7.875s3.525-7.875 7.875-7.875h165.365c4.349 0 7.875 3.525 7.875 7.875s-3.525 7.875-7.874 7.875z"/><path d="m158.277 229.358h-102.369c-4.349 0-7.875-3.525-7.875-7.875s3.525-7.875 7.875-7.875h102.369c4.349 0 7.875 3.525 7.875 7.875s-3.525 7.875-7.875 7.875z"/><path d="m221.274 71.868h-165.366c-4.349 0-7.875-3.525-7.875-7.875s3.525-7.875 7.875-7.875h165.365c4.349 0 7.875 3.525 7.875 7.875s-3.525 7.875-7.874 7.875z"/></g></g></g></g><g id="Layer_1"/></svg>