<svg enable-background="new 0 0 512 512" height="512" viewBox="0 0 512 512" width="512" xmlns="http://www.w3.org/2000/svg"><g id="_x32_3_Customization"><g><path d="m504.094 235.067v41.789c0 4.449-3.03 8.326-7.346 9.401l-30.726 7.654c-3.576.891-6.26 3.759-7.059 7.356-5.296 23.858-14.665 46.181-27.379 66.191-1.973 3.105-2.097 7.016-.206 10.172l16.296 27.196c2.282 3.809 1.683 8.681-1.453 11.824l-29.524 29.58c-3.145 3.151-8.033 3.753-11.849 1.459l-27.174-16.337c-3.158-1.899-7.076-1.777-10.186.199-20 12.712-42.264 22.079-66.112 27.374-3.593.798-6.459 3.477-7.353 7.047l-7.72 30.825c-1.08 4.311-4.954 7.335-9.398 7.335h-41.807c-4.444 0-8.318-3.024-9.398-7.335l-7.72-30.825c-.894-3.57-3.761-6.249-7.354-7.047-23.842-5.294-46.097-14.658-66.038-27.366-3.109-1.981-7.028-2.107-10.189-.211l-27.248 16.349c-3.815 2.289-8.699 1.686-11.842-1.463l-29.529-29.584c-3.137-3.143-3.736-8.015-1.453-11.824l16.135-26.927c1.974-3.294 1.732-7.38-.436-10.55-13.106-19.167-21.818-42.193-26.993-66.032-.788-3.63-3.506-6.522-7.11-7.42l-30.67-7.64c-4.317-1.075-7.346-4.952-7.346-9.401v-41.789c0-4.449 3.03-8.326 7.346-9.401l30.693-7.646c3.592-.895 6.288-3.781 7.084-7.397 5.247-23.837 14.661-46.141 27.371-66.136 1.981-3.116 2.104-7.047.203-10.213l-16.269-27.097c-2.287-3.809-1.69-8.686 1.449-11.831l29.52-29.576c3.145-3.151 8.033-3.753 11.849-1.459l27.156 16.326c3.168 1.904 7.097 1.775 10.211-.217 19.949-12.763 42.264-22.13 66.171-27.423 3.599-.797 6.471-3.483 7.362-7.06l7.654-30.723c1.075-4.317 4.952-7.346 9.401-7.346h41.788c4.449 0 8.326 3.03 9.401 7.346l7.646 30.694c.895 3.592 3.781 6.288 7.397 7.084 23.839 5.248 46.145 14.663 66.142 27.375 3.114 1.979 7.041 2.104 10.206.207l27.166-16.278c3.815-2.286 8.695-1.681 11.837 1.466l29.527 29.583c3.139 3.145 3.736 8.022 1.449 11.831l-16.269 27.097c-1.901 3.166-1.778 7.097.203 10.213 12.71 19.995 22.124 42.299 27.371 66.136.796 3.615 3.492 6.502 7.084 7.397l30.693 7.646c4.315 1.076 7.345 4.953 7.345 9.402z" fill="#f77953"/><path d="m410.351 255.957c0 85.251-69.127 154.379-154.322 154.379-85.252 0-154.379-69.128-154.379-154.379 0-85.252 69.127-154.322 154.379-154.322 85.194 0 154.322 69.07 154.322 154.322z" fill="#fff"/><g><path d="m186.371 357.788c-2.918 0-5.279-2.364-5.279-5.279v-48.033c0-2.916 2.361-5.279 5.279-5.279s5.279 2.364 5.279 5.279v48.033c.001 2.915-2.36 5.279-5.279 5.279z" fill="#84405f"/></g><g><path d="m186.371 253.37c-2.918 0-5.279-2.364-5.279-5.279v-88.598c0-2.916 2.361-5.279 5.279-5.279s5.279 2.364 5.279 5.279v88.598c.001 2.915-2.36 5.279-5.279 5.279z" fill="#84405f"/></g><g><path d="m255.999 212.803c-2.918 0-5.279-2.364-5.279-5.279v-48.03c0-2.916 2.361-5.279 5.279-5.279s5.279 2.364 5.279 5.279v48.03c0 2.915-2.361 5.279-5.279 5.279z" fill="#84405f"/></g><g><path d="m255.999 357.788c-2.918 0-5.279-2.364-5.279-5.279v-88.6c0-2.916 2.361-5.279 5.279-5.279s5.279 2.364 5.279 5.279v88.6c0 2.915-2.361 5.279-5.279 5.279z" fill="#84405f"/></g><g><path d="m325.632 357.788c-2.918 0-5.279-2.364-5.279-5.279v-54.859c0-2.916 2.361-5.279 5.279-5.279s5.279 2.364 5.279 5.279v54.859c0 2.915-2.361 5.279-5.279 5.279z" fill="#84405f"/></g><g><path d="m325.632 246.544c-2.918 0-5.279-2.364-5.279-5.279v-81.772c0-2.916 2.361-5.279 5.279-5.279s5.279 2.364 5.279 5.279v81.772c0 2.915-2.361 5.279-5.279 5.279z" fill="#84405f"/></g><path d="m373.118 155.53c-26.978-23.23-62.086-37.22-100.414-37.22-85.21 0-154.371 69.107-154.371 154.317 0 38.487 14.096 73.648 37.431 100.678-33.102-28.298-54.114-70.374-54.114-117.361 0-85.263 69.108-154.318 154.37-154.318 46.881.001 88.853 20.908 117.098 53.904z" opacity=".1"/><circle cx="186.37" cy="276.284" fill="#f77953" r="28.192"/><circle cx="256" cy="235.716" fill="#4f8aff" r="28.192"/><circle cx="325.63" cy="269.457" fill="#543843" r="28.192"/></g></g></svg>