<?xml version="1.0" encoding="UTF-8"?>
<!DOCTYPE svg PUBLIC "-//W3C//DTD SVG 1.1//EN" "http://www.w3.org/Graphics/SVG/1.1/DTD/svg11.dtd">
<!-- Creator: CorelDRAW 2021 (64-Bit) -->
<svg xmlns="http://www.w3.org/2000/svg" xml:space="preserve" width="9.37898in" height="2.04304in" version="1.1" style="shape-rendering:geometricPrecision; text-rendering:geometricPrecision; image-rendering:optimizeQuality; fill-rule:evenodd; clip-rule:evenodd"
viewBox="0 0 9428.42 2053.81"
 xmlns:xlink="http://www.w3.org/1999/xlink"
 xmlns:xodm="http://www.corel.com/coreldraw/odm/2003">
 <defs>
  <style type="text/css">
   <![CDATA[
    .fil0 {fill:#FEFEFE}
    .fil1 {fill:#FEFEFE;fill-rule:nonzero}
   ]]>
  </style>
 </defs>
 <g id="Layer_x0020_1">
  <metadata id="CorelCorpID_0Corel-Layer"/>
  <g id="_2640533197200">
   <path class="fil0" d="M347.8 1293.52l14.78 -68.91c46.81,-17.86 13.48,17.44 31.92,13.1 1.92,-103.22 -8.57,-63.65 16.14,-115.97 15.79,-33.42 27.7,-23.77 2.24,-90.45 -47.83,-12.46 -19.69,-387.58 -18.56,-448.96l144.19 41.68 12.82 391.93c1.83,-2.21 10.39,-12.56 12.76,-15.57 200.6,-449.55 935.58,-499.7 1237.34,9.51 13.22,15.39 9.34,10.63 22.36,21.39l-2.11 -402.01c26.99,-3.54 493.9,-153.96 536.51,-177.13 -23.06,-17.28 -28.41,-16.84 -63.02,-27.9 -21.78,-6.96 -47.65,-14.4 -69.99,-21.54l-1034.21 -402.68c-7.12,-0.05 -1118.08,413.1 -1182.1,448.93 -2.09,1.18 -6.08,3.55 -8.88,5.69l318.03 101.26c1.08,125.17 3.05,253.96 2.09,381.38 -0.79,103.36 -40.3,92.6 -27.11,164.9l24.37 172c28.63,-44.12 -0.26,-43.94 25.96,-88.15l4.46 107.51z"/>
   <path class="fil0" d="M747.86 1497.9c-94.95,-457.19 414.05,-753.83 738.24,-430.41l-738.24 430.41zm1108.23 -106.19c-42.88,16.36 -224.42,114.34 -248.02,142.66 -69.84,83.76 -60.22,133.49 -173.98,217.48 -163.86,120.98 -472.36,88.06 -566.76,-58.04l946.1 -529.83c-0.28,-120.99 -172.61,-291.6 -279.35,-358.19 -481.14,-300.16 -1126.87,116.08 -1018.27,703.2 145.63,787.26 1326.44,698.03 1340.27,-117.28z"/>
   <path class="fil1" d="M2285.71 1787.31c-36.87,0 -71.07,-6.06 -102.6,-18.19 -31.53,-12.13 -58.7,-28.86 -81.5,-50.21 -22.8,-21.35 -40.75,-46.57 -53.85,-75.68 -13.1,-29.11 -19.65,-60.64 -19.65,-94.6 0,-35.9 7.76,-68.4 23.28,-97.51 15.53,-29.11 37.6,-54.33 66.22,-75.68 28.62,-21.34 62.58,-37.84 101.87,-49.48 39.29,-11.64 82.71,-17.46 130.25,-17.46 35.9,0 71.31,3.15 106.24,9.46 34.93,6.3 66.46,14.79 94.59,25.47l0 -52.39c0,-56.27 -16.01,-100.17 -48.03,-131.71 -32.01,-31.53 -78.1,-47.3 -138.25,-47.3 -40.75,0 -80.77,7.52 -120.07,22.56 -39.29,15.04 -79.8,36.63 -121.52,64.76l-49.48 -101.87c97.99,-65.97 199.86,-98.96 305.62,-98.96 104.78,0 186.28,26.68 244.49,80.04 58.21,53.36 87.32,130.01 87.32,229.94l0 275.05c0,33.96 14.07,51.42 42.21,52.39l0 136.8c-15.52,2.91 -28.86,4.85 -40.02,5.82 -11.16,0.97 -22.07,1.46 -32.75,1.46 -31.04,0 -55.06,-7.77 -72.04,-23.29 -16.98,-15.52 -27.41,-35.41 -31.29,-59.67l-4.37 -48.03c-33.96,44.63 -75.92,78.83 -125.89,102.6 -49.96,23.77 -103.57,35.66 -160.81,35.66zm43.66 -117.88c38.81,0 75.43,-7.03 109.88,-21.1 34.44,-14.07 61.37,-33.72 80.77,-58.94 20.37,-17.46 30.56,-35.9 30.56,-55.3l0 -100.42c-27.17,-10.67 -56.03,-18.92 -86.59,-24.74 -30.56,-5.82 -60.4,-8.73 -89.5,-8.73 -57.25,0 -104.06,12.37 -140.44,37.11 -36.38,24.74 -54.57,57.49 -54.57,98.24 0,37.84 14.07,69.61 42.21,95.32 28.14,25.71 64.03,38.56 107.69,38.56zm525.37 -277.97c0,-53.36 9.22,-103.81 27.65,-151.35 18.44,-47.54 44.87,-89.26 79.32,-125.16 34.44,-35.9 75.92,-64.28 124.43,-85.14 48.51,-20.86 102.84,-31.29 163,-31.29 78.59,0 146.26,17.22 203.02,51.66 56.76,34.44 99.21,80.29 127.34,137.53l-155.72 49.48c-18.44,-32.02 -43.18,-57 -74.22,-74.95 -31.04,-17.95 -65.49,-26.92 -103.33,-26.92 -32.02,0 -61.85,6.3 -89.5,18.92 -27.65,12.61 -51.66,30.32 -72.04,53.12 -20.37,22.8 -36.38,49.73 -48.02,80.77 -11.64,31.04 -17.47,65.49 -17.47,103.33 0,36.87 6.07,71.07 18.19,102.6 12.13,31.53 28.62,58.94 49.48,82.23 20.86,23.28 45.11,41.48 72.77,54.57 27.65,13.1 57,19.65 88.04,19.65 19.4,0 38.81,-2.67 58.21,-8 19.4,-5.34 37.11,-12.85 53.12,-22.56 16.01,-9.7 30.08,-20.86 42.21,-33.47 12.13,-12.61 21.1,-26.2 26.92,-40.75l157.17 46.57c-25.23,57.24 -67.43,104.05 -126.61,140.44 -59.18,36.38 -129.04,54.57 -209.57,54.57 -59.18,0 -113.03,-10.67 -161.54,-32.02 -48.51,-21.34 -89.99,-50.21 -124.43,-86.59 -34.44,-36.38 -61.12,-78.35 -80.04,-125.89 -18.92,-47.54 -28.38,-97.99 -28.38,-151.35zm1065.3 395.85c-36.87,0 -71.07,-6.06 -102.6,-18.19 -31.53,-12.13 -58.7,-28.86 -81.5,-50.21 -22.8,-21.35 -40.75,-46.57 -53.85,-75.68 -13.1,-29.11 -19.65,-60.64 -19.65,-94.6 0,-35.9 7.76,-68.4 23.28,-97.51 15.53,-29.11 37.6,-54.33 66.22,-75.68 28.62,-21.34 62.58,-37.84 101.87,-49.48 39.29,-11.64 82.71,-17.46 130.25,-17.46 35.9,0 71.31,3.15 106.24,9.46 34.93,6.3 66.46,14.79 94.59,25.47l0 -52.39c0,-56.27 -16.01,-100.17 -48.03,-131.71 -32.01,-31.53 -78.1,-47.3 -138.25,-47.3 -40.75,0 -80.77,7.52 -120.07,22.56 -39.29,15.04 -79.8,36.63 -121.52,64.76l-49.48 -101.87c97.99,-65.97 199.86,-98.96 305.62,-98.96 104.78,0 186.28,26.68 244.49,80.04 58.21,53.36 87.32,130.01 87.32,229.94l0 275.05c0,33.96 14.07,51.42 42.21,52.39l0 136.8c-15.52,2.91 -28.86,4.85 -40.02,5.82 -11.16,0.97 -22.07,1.46 -32.75,1.46 -31.04,0 -55.06,-7.77 -72.04,-23.29 -16.98,-15.52 -27.41,-35.41 -31.29,-59.67l-4.37 -48.03c-33.96,44.63 -75.92,78.83 -125.89,102.6 -49.96,23.77 -103.57,35.66 -160.81,35.66zm43.66 -117.88c38.81,0 75.43,-7.03 109.88,-21.1 34.44,-14.07 61.37,-33.72 80.77,-58.94 20.37,-17.46 30.56,-35.9 30.56,-55.3l0 -100.42c-27.17,-10.67 -56.03,-18.92 -86.59,-24.74 -30.56,-5.82 -60.4,-8.73 -89.5,-8.73 -57.25,0 -104.06,12.37 -140.44,37.11 -36.38,24.74 -54.57,57.49 -54.57,98.24 0,37.84 14.07,69.61 42.21,95.32 28.14,25.71 64.03,38.56 107.69,38.56zm884.83 117.88c-51.42,0 -98.96,-10.43 -142.62,-31.29 -43.66,-20.86 -81.5,-49.24 -113.52,-85.14 -32.01,-35.9 -57,-77.86 -74.95,-125.88 -17.95,-48.03 -26.92,-99.69 -26.92,-154.99 0,-53.36 8.49,-103.57 25.47,-150.62 16.97,-47.05 40.75,-88.53 71.31,-124.43 30.56,-35.9 66.46,-64.28 107.69,-85.14 41.24,-20.86 86.59,-31.29 136.07,-31.29 61.12,0 114.97,14.79 161.54,44.39 46.57,29.59 82.95,67.19 109.15,112.79l0 -445.33 160.08 0 0 873.19c0,18.44 3.15,31.53 9.46,39.3 6.3,7.76 17.7,12.13 34.2,13.1l0 136.8c-16.5,2.91 -29.83,4.85 -40.02,5.82 -10.19,0.97 -18.68,1.46 -25.47,1.46 -32.02,0 -58.21,-8.25 -78.59,-24.74 -20.37,-16.49 -31.53,-37.84 -33.47,-64.03l-2.91 -56.76c-28.14,47.54 -66.46,84.89 -114.97,112.06 -48.51,27.17 -102.36,40.75 -161.54,40.75zm39.29 -136.8c23.29,0 46.57,-3.88 69.85,-11.64 23.29,-7.76 44.63,-18.43 64.04,-32.01 19.4,-13.58 36.14,-29.59 50.21,-48.03 14.07,-18.44 24.01,-38.32 29.83,-59.67l0 -199.38c-8.73,-24.25 -21.1,-46.57 -37.11,-66.95 -16.01,-20.37 -34.2,-37.84 -54.57,-52.39 -20.37,-14.55 -41.96,-25.71 -64.76,-33.47 -22.8,-7.76 -45.84,-11.64 -69.13,-11.64 -32.01,0 -61.37,7.27 -88.04,21.83 -26.68,14.56 -49.73,33.96 -69.13,58.21 -19.4,24.25 -34.68,51.91 -45.84,82.95 -11.16,31.04 -16.74,63.06 -16.74,96.05 0,34.93 6.06,67.92 18.19,98.96 12.13,31.05 28.86,58.21 50.21,81.5 21.34,23.28 45.84,41.72 73.5,55.3 27.65,13.58 57.48,20.37 89.5,20.37zm922.67 136.8c-59.18,0 -113.03,-10.43 -161.54,-31.29 -48.51,-20.86 -89.99,-49.24 -124.43,-85.14 -34.44,-35.9 -61.12,-77.62 -80.04,-125.16 -18.92,-47.54 -28.38,-97.99 -28.38,-151.35 0,-53.36 9.46,-104.06 28.38,-152.08 18.92,-48.03 45.6,-90.23 80.04,-126.61 34.44,-36.38 75.92,-65.01 124.43,-85.86 48.51,-20.86 102.84,-31.29 163,-31.29 59.18,0 112.79,10.67 160.81,32.01 48.03,21.34 89.02,49.73 122.98,85.14 33.96,35.41 59.91,76.65 77.86,123.7 17.95,47.06 26.92,96.3 26.92,147.72 0,11.64 -0.48,22.56 -1.46,32.75 -0.97,10.19 -1.94,18.68 -2.91,25.47l-609.78 0c2.91,33.96 10.92,64.52 24.02,91.68 13.1,27.17 30.08,50.69 50.93,70.59 20.86,19.89 44.63,35.17 71.31,45.84 26.68,10.67 54.58,16.01 83.68,16.01 21.34,0 42.45,-2.67 63.3,-8 20.86,-5.34 40.02,-13.1 57.49,-23.28 17.47,-10.19 32.99,-22.56 46.57,-37.11 13.58,-14.55 24.25,-30.56 32.02,-48.03l136.8 39.3c-26.2,57.24 -69.61,104.05 -130.25,140.44 -60.64,36.38 -131.22,54.57 -211.75,54.57zm231.39 -452.61c-2.91,-32.01 -10.91,-61.61 -24.01,-88.77 -13.1,-27.17 -29.83,-50.21 -50.21,-69.13 -20.37,-18.92 -44.14,-33.72 -71.31,-44.39 -27.17,-10.67 -55.79,-16.01 -85.86,-16.01 -30.08,0 -58.46,5.34 -85.14,16.01 -26.68,10.67 -50.21,25.47 -70.58,44.39 -20.37,18.92 -36.87,41.96 -49.48,69.13 -12.61,27.17 -20.37,56.76 -23.29,88.77l459.88 0zm1453.86 438.05l-160.08 0 0 -426.41c0,-70.82 -11.64,-122.73 -34.93,-155.72 -23.28,-32.99 -57.24,-49.48 -101.87,-49.48 -45.6,0 -87.07,16.73 -124.43,50.21 -37.35,33.47 -64.28,76.89 -80.77,130.25l0 451.15 -160.08 0 0 -426.41c0,-71.79 -11.64,-123.95 -34.93,-156.45 -23.28,-32.5 -56.76,-48.75 -100.42,-48.75 -45.6,0 -87.32,16.49 -125.16,49.48 -37.84,32.99 -65,76.16 -81.5,129.52l0 452.61 -160.08 0 0 -761.13 145.53 0 0 152.81c30.08,-53.36 69.61,-94.35 118.61,-122.98 49,-28.62 105.03,-42.93 168.09,-42.93 63.06,0 112.79,16.49 149.17,49.48 36.38,32.99 58.94,74.22 67.67,123.7 32.02,-56.28 72.28,-99.21 120.79,-128.8 48.51,-29.59 103.81,-44.39 165.91,-44.39 44.63,0 81.74,8.49 111.33,25.47 29.59,16.98 53.12,39.53 70.58,67.67 17.46,28.14 29.59,60.88 36.38,98.24 6.79,37.35 10.19,76.89 10.19,118.61l0 464.25zm184.83 0l0 -761.13 160.08 0 0 761.13 -160.08 0zm0 -886.29l0 -176.09 160.08 0 0 176.09 -160.08 0zm302.71 504.99c0,-53.36 9.22,-103.81 27.65,-151.35 18.44,-47.54 44.87,-89.26 79.32,-125.16 34.44,-35.9 75.92,-64.28 124.43,-85.14 48.51,-20.86 102.84,-31.29 163,-31.29 78.59,0 146.26,17.22 203.02,51.66 56.76,34.44 99.21,80.29 127.34,137.53l-155.72 49.48c-18.44,-32.02 -43.18,-57 -74.22,-74.95 -31.04,-17.95 -65.49,-26.92 -103.33,-26.92 -32.02,0 -61.85,6.3 -89.5,18.92 -27.65,12.61 -51.66,30.32 -72.04,53.12 -20.37,22.8 -36.38,49.73 -48.02,80.77 -11.64,31.04 -17.47,65.49 -17.47,103.33 0,36.87 6.07,71.07 18.19,102.6 12.13,31.53 28.62,58.94 49.48,82.23 20.86,23.28 45.11,41.48 72.77,54.57 27.65,13.1 57,19.65 88.04,19.65 19.4,0 38.81,-2.67 58.21,-8 19.4,-5.34 37.11,-12.85 53.12,-22.56 16.01,-9.7 30.08,-20.86 42.21,-33.47 12.13,-12.61 21.1,-26.2 26.92,-40.75l157.17 46.57c-25.23,57.24 -67.43,104.05 -126.61,140.44 -59.18,36.38 -129.04,54.57 -209.57,54.57 -59.18,0 -113.03,-10.67 -161.54,-32.02 -48.51,-21.34 -89.99,-50.21 -124.43,-86.59 -34.44,-36.38 -61.12,-78.35 -80.04,-125.89 -18.92,-47.54 -28.38,-97.99 -28.38,-151.35zm1139.52 395.85c-61.12,0 -122.01,-9.95 -182.64,-29.83 -60.64,-19.89 -112.79,-48.27 -156.45,-85.14l64.04 -101.87c45.6,32.99 90.72,57.97 135.34,74.95 44.63,16.98 90.23,25.47 136.8,25.47 47.54,0 85.14,-9.22 112.79,-27.65 27.65,-18.44 41.48,-44.63 41.48,-78.59 0,-32.02 -15.53,-55.3 -46.57,-69.85 -31.05,-14.55 -79.56,-30.56 -145.53,-48.03 -47.54,-12.61 -88.29,-24.74 -122.25,-36.38 -33.96,-11.64 -61.61,-25.22 -82.95,-40.75 -21.34,-15.52 -36.87,-33.47 -46.57,-53.85 -9.7,-20.37 -14.55,-45.11 -14.55,-74.22 0,-38.81 7.52,-73.25 22.56,-103.33 15.04,-30.08 35.9,-55.54 62.58,-76.4 26.68,-20.86 57.97,-36.63 93.87,-47.3 35.9,-10.67 74.71,-16.01 116.43,-16.01 57.24,0 110.6,8.73 160.08,26.2 49.48,17.46 93.62,42.69 132.43,75.68l-68.4 96.05c-70.83,-56.28 -146.02,-84.41 -225.58,-84.41 -40.75,0 -74.95,8.49 -102.6,25.47 -27.65,16.98 -41.47,43.9 -41.47,80.77 0,15.53 2.91,28.62 8.73,39.3 5.82,10.67 15.28,19.89 28.38,27.65 13.1,7.76 30.08,14.8 50.94,21.1 20.86,6.3 46.81,13.34 77.86,21.1 51.42,12.61 95.81,25.23 133.16,37.84 37.35,12.61 68.16,27.41 92.41,44.39 24.26,16.98 42.21,36.87 53.85,59.67 11.64,22.8 17.46,50.21 17.46,82.23 0,72.76 -27.41,130.25 -82.23,172.46 -54.82,42.2 -129.28,63.3 -223.39,63.3z"/>
  </g>
 </g>
</svg>
