<?xml version="1.0" encoding="UTF-8"?>
<!DOCTYPE svg PUBLIC "-//W3C//DTD SVG 1.1//EN" "http://www.w3.org/Graphics/SVG/1.1/DTD/svg11.dtd">
<!-- Creator: CorelDRAW 2021 (64-Bit) -->
<svg xmlns="http://www.w3.org/2000/svg" xml:space="preserve" width="11in" height="8.5in" version="1.1" style="shape-rendering:geometricPrecision; text-rendering:geometricPrecision; image-rendering:optimizeQuality; fill-rule:evenodd; clip-rule:evenodd"
viewBox="0 0 11000 8500"
 xmlns:xlink="http://www.w3.org/1999/xlink"
 xmlns:xodm="http://www.corel.com/coreldraw/odm/2003">
 <defs>
  <style type="text/css">
   <![CDATA[
    .fil0 {fill:#FEFEFE}
    .fil1 {fill:#FEFEFE;fill-rule:nonzero}
   ]]>
  </style>
 </defs>
 <g id="Layer_x0020_1">
  <metadata id="CorelCorpID_0Corel-Layer"/>
  <g id="_2611859304896">
   <path class="fil0" d="M1181.07 4865.32l14.7 -68.55c46.57,-17.77 13.41,17.35 31.75,13.03 1.91,-102.68 -8.52,-63.31 16.06,-115.36 15.71,-33.24 27.55,-23.64 2.23,-89.98 -47.58,-12.4 -19.58,-385.55 -18.46,-446.61l143.43 41.46 12.75 389.87c1.82,-2.2 10.34,-12.49 12.69,-15.49 199.55,-447.19 930.67,-497.08 1230.85,9.46 13.15,15.31 9.29,10.57 22.24,21.28l-2.09 -399.91c26.85,-3.52 491.31,-153.15 533.69,-176.2 -22.94,-17.19 -28.26,-16.76 -62.69,-27.75 -21.66,-6.93 -47.4,-14.32 -69.63,-21.43l-1039.2 -320.7c-7.07,-0.05 -1101.8,331.06 -1165.48,366.71 -2.07,1.17 -6.04,3.54 -8.83,5.66l316.36 100.73c1.08,124.51 3.03,252.63 2.08,379.38 -0.79,102.82 -40.09,92.12 -26.97,164.03l24.24 171.09c28.48,-43.89 -0.26,-43.7 25.83,-87.69l4.43 106.94z"/>
   <path class="fil0" d="M1579.04 5068.63c-94.45,-454.79 411.87,-749.87 734.37,-428.15l-734.37 428.15zm1102.41 -105.64c-42.66,16.28 -223.24,113.74 -246.72,141.91 -69.47,83.32 -59.9,132.79 -173.06,216.33 -163,120.35 -469.88,87.59 -563.78,-57.73l941.14 -527.05c-0.28,-120.36 -171.71,-290.07 -277.89,-356.31 -478.62,-298.59 -1120.96,115.47 -1012.93,699.51 144.87,783.13 1319.49,694.37 1333.24,-116.67z"/>
   <path class="fil1" d="M3108.82 5356.52c-36.67,0 -70.69,-6.03 -102.06,-18.09 -31.37,-12.07 -58.39,-28.71 -81.07,-49.94 -22.68,-21.24 -40.53,-46.33 -53.56,-75.28 -13.03,-28.96 -19.54,-60.32 -19.54,-94.1 0,-35.71 7.72,-68.04 23.16,-97 15.44,-28.95 37.4,-54.05 65.87,-75.28 28.47,-21.23 62.25,-37.64 101.34,-49.22 39.09,-11.58 82.28,-17.37 129.57,-17.37 35.71,0 70.93,3.13 105.68,9.41 34.74,6.27 66.11,14.72 94.1,25.33l0 -52.12c0,-55.98 -15.93,-99.65 -47.78,-131.02 -31.85,-31.37 -77.69,-47.05 -137.53,-47.05 -40.54,0 -80.35,7.48 -119.44,22.44 -39.09,14.96 -79.38,36.43 -120.88,64.42l-49.22 -101.34c97.48,-65.63 198.81,-98.44 304.02,-98.44 104.23,0 185.3,26.54 243.21,79.62 57.91,53.08 86.86,129.33 86.86,228.74l0 273.61c0,33.78 14,51.15 41.98,52.12l0 136.08c-15.44,2.89 -28.71,4.83 -39.81,5.79 -11.1,0.96 -21.96,1.45 -32.57,1.45 -30.88,0 -54.77,-7.72 -71.66,-23.17 -16.89,-15.44 -27.27,-35.23 -31.13,-59.35l-4.34 -47.78c-33.78,44.4 -75.52,78.42 -125.23,102.06 -49.7,23.65 -103.02,35.47 -159.97,35.47zm43.43 -117.26c38.6,0 75.04,-7 109.3,-20.99 34.26,-14 61.04,-33.54 80.35,-58.63 20.27,-17.37 30.4,-35.71 30.4,-55.01l0 -99.89c-27.02,-10.62 -55.74,-18.82 -86.14,-24.61 -30.4,-5.79 -60.08,-8.69 -89.03,-8.69 -56.94,0 -103.51,12.31 -139.7,36.92 -36.19,24.61 -54.29,57.19 -54.29,97.72 0,37.64 14,69.25 41.98,94.82 27.99,25.57 63.7,38.36 107.13,38.36zm522.61 -276.51c0,-53.08 9.17,-103.27 27.5,-150.56 18.34,-47.29 44.64,-88.79 78.9,-124.5 34.26,-35.71 75.52,-63.94 123.78,-84.69 48.26,-20.75 102.3,-31.13 162.14,-31.13 78.18,0 145.49,17.13 201.95,51.39 56.46,34.26 98.69,79.87 126.67,136.81l-154.9 49.22c-18.34,-31.85 -42.95,-56.7 -73.83,-74.56 -30.88,-17.85 -65.15,-26.78 -102.78,-26.78 -31.85,0 -61.53,6.27 -89.04,18.82 -27.5,12.55 -51.39,30.16 -71.66,52.84 -20.27,22.68 -36.19,49.46 -47.77,80.35 -11.58,30.88 -17.37,65.15 -17.37,102.78 0,36.68 6.04,70.7 18.1,102.06 12.06,31.37 28.47,58.63 49.22,81.8 20.75,23.16 44.88,41.26 72.39,54.29 27.5,13.03 56.7,19.54 87.58,19.54 19.3,0 38.61,-2.65 57.91,-7.96 19.3,-5.31 36.92,-12.79 52.84,-22.44 15.93,-9.65 29.92,-20.75 41.98,-33.3 12.06,-12.55 20.99,-26.06 26.78,-40.54l156.35 46.33c-25.09,56.94 -67.08,103.51 -125.95,139.7 -58.87,36.19 -128.36,54.29 -208.47,54.29 -58.87,0 -112.44,-10.61 -160.69,-31.85 -48.26,-21.23 -89.52,-49.94 -123.78,-86.13 -34.26,-36.19 -60.8,-77.94 -79.62,-125.23 -18.82,-47.29 -28.23,-97.48 -28.23,-150.56zm1059.71 393.77c-36.67,0 -70.69,-6.03 -102.06,-18.09 -31.37,-12.07 -58.39,-28.71 -81.07,-49.94 -22.68,-21.24 -40.53,-46.33 -53.56,-75.28 -13.03,-28.96 -19.54,-60.32 -19.54,-94.1 0,-35.71 7.72,-68.04 23.16,-97 15.44,-28.95 37.4,-54.05 65.87,-75.28 28.47,-21.23 62.25,-37.64 101.34,-49.22 39.09,-11.58 82.28,-17.37 129.57,-17.37 35.71,0 70.93,3.13 105.68,9.41 34.74,6.27 66.11,14.72 94.1,25.33l0 -52.12c0,-55.98 -15.93,-99.65 -47.78,-131.02 -31.85,-31.37 -77.69,-47.05 -137.53,-47.05 -40.54,0 -80.35,7.48 -119.44,22.44 -39.09,14.96 -79.38,36.43 -120.88,64.42l-49.22 -101.34c97.48,-65.63 198.81,-98.44 304.02,-98.44 104.23,0 185.3,26.54 243.21,79.62 57.91,53.08 86.86,129.33 86.86,228.74l0 273.61c0,33.78 14,51.15 41.98,52.12l0 136.08c-15.44,2.89 -28.71,4.83 -39.81,5.79 -11.1,0.96 -21.96,1.45 -32.57,1.45 -30.88,0 -54.77,-7.72 -71.66,-23.17 -16.89,-15.44 -27.27,-35.23 -31.13,-59.35l-4.34 -47.78c-33.78,44.4 -75.52,78.42 -125.23,102.06 -49.7,23.65 -103.02,35.47 -159.97,35.47zm43.43 -117.26c38.6,0 75.04,-7 109.3,-20.99 34.26,-14 61.04,-33.54 80.35,-58.63 20.27,-17.37 30.4,-35.71 30.4,-55.01l0 -99.89c-27.02,-10.62 -55.74,-18.82 -86.14,-24.61 -30.4,-5.79 -60.08,-8.69 -89.03,-8.69 -56.94,0 -103.51,12.31 -139.7,36.92 -36.19,24.61 -54.29,57.19 -54.29,97.72 0,37.64 14,69.25 41.98,94.82 27.99,25.57 63.7,38.36 107.13,38.36zm880.19 117.26c-51.15,0 -98.44,-10.37 -141.87,-31.13 -43.43,-20.75 -81.07,-48.98 -112.92,-84.69 -31.85,-35.71 -56.7,-77.45 -74.56,-125.22 -17.85,-47.78 -26.78,-99.17 -26.78,-154.18 0,-53.08 8.44,-103.02 25.33,-149.83 16.89,-46.81 40.53,-88.07 70.93,-123.78 30.4,-35.71 66.11,-63.94 107.13,-84.69 41.02,-20.75 86.14,-31.13 135.36,-31.13 60.8,0 114.37,14.72 160.7,44.15 46.32,29.44 82.52,66.83 108.57,112.2l0 -442.99 159.24 0 0 868.61c0,18.34 3.14,31.37 9.41,39.09 6.27,7.72 17.61,12.06 34.02,13.03l0 136.08c-16.41,2.89 -29.68,4.83 -39.81,5.79 -10.13,0.96 -18.58,1.45 -25.33,1.45 -31.85,0 -57.91,-8.2 -78.18,-24.61 -20.27,-16.41 -31.37,-37.64 -33.3,-63.7l-2.9 -56.46c-27.99,47.29 -66.11,84.45 -114.37,111.47 -48.26,27.02 -101.82,40.54 -160.69,40.54zm39.09 -136.08c23.17,0 46.33,-3.86 69.49,-11.58 23.17,-7.72 44.4,-18.33 63.7,-31.85 19.3,-13.51 35.95,-29.44 49.94,-47.78 13.99,-18.34 23.89,-38.12 29.68,-59.35l0 -198.33c-8.69,-24.13 -20.99,-46.33 -36.92,-66.59 -15.93,-20.27 -34.02,-37.64 -54.29,-52.11 -20.27,-14.48 -41.74,-25.57 -64.42,-33.3 -22.68,-7.72 -45.6,-11.58 -68.77,-11.58 -31.85,0 -61.04,7.24 -87.58,21.71 -26.54,14.48 -49.46,33.78 -68.77,57.91 -19.3,24.13 -34.5,51.63 -45.6,82.52 -11.1,30.88 -16.65,62.73 -16.65,95.55 0,34.74 6.03,67.56 18.09,98.44 12.06,30.89 28.71,57.91 49.94,81.07 21.23,23.16 45.6,41.5 73.11,55.01 27.5,13.51 57.18,20.27 89.03,20.27zm917.83 136.08c-58.87,0 -112.44,-10.37 -160.69,-31.13 -48.26,-20.75 -89.52,-48.98 -123.78,-84.69 -34.26,-35.71 -60.8,-77.21 -79.62,-124.5 -18.82,-47.29 -28.23,-97.48 -28.23,-150.56 0,-53.08 9.41,-103.51 28.23,-151.28 18.82,-47.78 45.36,-89.76 79.62,-125.95 34.26,-36.19 75.52,-64.67 123.78,-85.41 48.26,-20.75 102.3,-31.13 162.14,-31.13 58.87,0 112.2,10.61 159.97,31.85 47.78,21.23 88.55,49.46 122.33,84.69 33.78,35.22 59.59,76.24 77.45,123.05 17.86,46.81 26.78,95.79 26.78,146.94 0,11.58 -0.48,22.44 -1.45,32.57 -0.96,10.13 -1.93,18.58 -2.89,25.33l-606.58 0c2.9,33.78 10.86,64.18 23.89,91.2 13.03,27.02 29.92,50.43 50.67,70.22 20.75,19.78 44.4,34.98 70.94,45.6 26.54,10.61 54.29,15.92 83.24,15.92 21.23,0 42.22,-2.65 62.97,-7.96 20.75,-5.31 39.81,-13.03 57.19,-23.16 17.37,-10.13 32.81,-22.44 46.33,-36.92 13.51,-14.48 24.13,-30.4 31.85,-47.78l136.08 39.09c-26.06,56.94 -69.25,103.51 -129.57,139.7 -60.32,36.19 -130.53,54.29 -210.64,54.29zm230.18 -450.23c-2.89,-31.85 -10.85,-61.28 -23.89,-88.31 -13.03,-27.02 -29.68,-49.94 -49.94,-68.76 -20.27,-18.82 -43.91,-33.54 -70.94,-44.16 -27.02,-10.61 -55.5,-15.93 -85.41,-15.93 -29.92,0 -58.15,5.31 -84.69,15.93 -26.54,10.62 -49.94,25.33 -70.21,44.16 -20.27,18.82 -36.68,41.74 -49.22,68.76 -12.55,27.02 -20.27,56.46 -23.17,88.31l457.47 0zm1446.24 435.76l-159.24 0 0 -424.17c0,-70.45 -11.58,-122.09 -34.74,-154.9 -23.16,-32.81 -56.94,-49.22 -101.34,-49.22 -45.36,0 -86.62,16.65 -123.78,49.94 -37.16,33.3 -63.94,76.48 -80.35,129.57l0 448.78 -159.24 0 0 -424.17c0,-71.42 -11.58,-123.3 -34.74,-155.63 -23.16,-32.33 -56.46,-48.5 -99.89,-48.5 -45.36,0 -86.86,16.41 -124.5,49.22 -37.64,32.81 -64.66,75.76 -81.07,128.84l0 450.23 -159.24 0 0 -757.14 144.77 0 0 152.01c29.92,-53.08 69.25,-93.86 117.99,-122.33 48.74,-28.47 104.48,-42.7 167.21,-42.7 62.73,0 112.2,16.41 148.39,49.22 36.19,32.81 58.63,73.83 67.32,123.06 31.85,-55.98 71.9,-98.69 120.16,-128.12 48.26,-29.44 103.27,-44.15 165.04,-44.15 44.39,0 81.31,8.44 110.75,25.33 29.43,16.89 52.84,39.33 70.21,67.31 17.37,27.99 29.43,60.56 36.19,97.72 6.76,37.16 10.13,76.48 10.13,117.99l0 461.81zm183.86 0l0 -757.14 159.24 0 0 757.14 -159.24 0zm0 -881.64l0 -175.17 159.24 0 0 175.17 -159.24 0zm301.12 502.35c0,-53.08 9.17,-103.27 27.5,-150.56 18.34,-47.29 44.64,-88.79 78.9,-124.5 34.26,-35.71 75.52,-63.94 123.78,-84.69 48.26,-20.75 102.3,-31.13 162.14,-31.13 78.18,0 145.49,17.13 201.95,51.39 56.46,34.26 98.69,79.87 126.67,136.81l-154.9 49.22c-18.34,-31.85 -42.95,-56.7 -73.83,-74.56 -30.88,-17.85 -65.15,-26.78 -102.78,-26.78 -31.85,0 -61.53,6.27 -89.04,18.82 -27.5,12.55 -51.39,30.16 -71.66,52.84 -20.27,22.68 -36.19,49.46 -47.77,80.35 -11.58,30.88 -17.37,65.15 -17.37,102.78 0,36.68 6.04,70.7 18.1,102.06 12.06,31.37 28.47,58.63 49.22,81.8 20.75,23.16 44.88,41.26 72.39,54.29 27.5,13.03 56.7,19.54 87.58,19.54 19.3,0 38.61,-2.65 57.91,-7.96 19.3,-5.31 36.92,-12.79 52.84,-22.44 15.93,-9.65 29.92,-20.75 41.98,-33.3 12.06,-12.55 20.99,-26.06 26.78,-40.54l156.35 46.33c-25.09,56.94 -67.08,103.51 -125.95,139.7 -58.87,36.19 -128.36,54.29 -208.47,54.29 -58.87,0 -112.44,-10.61 -160.69,-31.85 -48.26,-21.23 -89.52,-49.94 -123.78,-86.13 -34.26,-36.19 -60.8,-77.94 -79.62,-125.23 -18.82,-47.29 -28.23,-97.48 -28.23,-150.56zm1133.54 393.77c-60.8,0 -121.37,-9.89 -181.69,-29.68 -60.32,-19.78 -112.2,-48.02 -155.63,-84.69l63.7 -101.34c45.36,32.81 90.24,57.67 134.63,74.56 44.4,16.89 89.76,25.33 136.08,25.33 47.29,0 84.69,-9.17 112.2,-27.5 27.5,-18.34 41.26,-44.4 41.26,-78.18 0,-31.85 -15.44,-55.01 -46.33,-69.49 -30.89,-14.48 -79.14,-30.4 -144.77,-47.78 -47.29,-12.55 -87.83,-24.61 -121.61,-36.19 -33.78,-11.58 -61.29,-25.09 -82.52,-40.54 -21.23,-15.44 -36.67,-33.3 -46.33,-53.56 -9.65,-20.27 -14.48,-44.88 -14.48,-73.83 0,-38.61 7.48,-72.87 22.44,-102.79 14.96,-29.92 35.71,-55.25 62.25,-76 26.54,-20.75 57.67,-36.43 93.38,-47.05 35.71,-10.62 74.31,-15.93 115.81,-15.93 56.94,0 110.02,8.69 159.24,26.06 49.22,17.37 93.13,42.46 131.74,75.28l-68.04 95.55c-70.46,-55.98 -145.25,-83.97 -224.39,-83.97 -40.54,0 -74.56,8.44 -102.06,25.33 -27.5,16.89 -41.26,43.67 -41.26,80.35 0,15.44 2.89,28.47 8.69,39.09 5.79,10.61 15.2,19.78 28.23,27.5 13.03,7.72 29.92,14.72 50.67,20.99 20.75,6.27 46.57,13.27 77.45,20.99 51.15,12.55 95.31,25.09 132.46,37.64 37.16,12.55 67.8,27.27 91.93,44.16 24.13,16.89 41.98,36.67 53.57,59.35 11.58,22.68 17.37,49.94 17.37,81.8 0,72.38 -27.26,129.57 -81.8,171.55 -54.53,41.98 -128.6,62.97 -222.22,62.97z"/>
  </g>
 </g>
</svg>
