<svg xmlns="http://www.w3.org/2000/svg" xmlns:xlink="http://www.w3.org/1999/xlink" version="1.1" width="1000" height="1000" viewBox="0 0 1000 1000" xml:space="preserve">
<desc>Created with Fabric.js 3.5.0</desc>
<defs>
</defs>
<rect x="0" y="0" width="100%" height="100%" fill="#ffffff"/>
<g transform="matrix(3.4514 0 0 3.1803 494.0076 497.0007)" id="922594">
<g style="" vector-effect="non-scaling-stroke">
		<g transform="matrix(0.1333 0 0 -0.1333 0.0327 -0.0328)">
<path style="stroke: none; stroke-width: 1; stroke-dasharray: none; stroke-linecap: butt; stroke-dashoffset: 0; stroke-linejoin: miter; stroke-miterlimit: 4; is-custom-font: none; font-file-url: none; fill: rgb(122,201,218); fill-rule: nonzero; opacity: 1;" transform=" translate(-1080.5123, -1164.9549)" d="M 975 2316 c -66 -29 -95 -92 -95 -208 l 0 -83 l -72 -32 l -71 -33 l -58 55 c -64 61 -92 75 -151 75 c -62 0 -99 -24 -201 -129 c -147 -152 -153 -205 -36 -326 l 69 -72 l -25 -61 c -14 -34 -25 -68 -25 -77 c 0 -12 -15 -15 -79 -15 c -166 0 -210 -50 -219 -247 c -6 -149 15 -220 82 -273 c 13 -10 52 -17 123 -20 l 104 -5 l 33 -75 l 33 -75 l -63 -66 c -69 -73 -85 -114 -66 -178 c 17 -55 222 -255 277 -270 c 63 -17 106 0 185 75 l 69 66 l 75 -29 l 74 -28 l 4 -92 c 4 -107 18 -134 89 -171 c 41 -22 54 -23 194 -20 c 129 3 155 6 183 23 c 57 34 75 75 80 184 l 4 97 l 71 32 l 70 32 l 62 -59 c 71 -69 118 -87 180 -70 c 30 8 65 36 143 112 c 57 56 110 114 118 129 c 8 15 14 49 14 77 c 0 42 -5 56 -39 98 c -21 26 -52 61 -69 77 l -30 28 l -144 -4 c -164 -5 -179 -10 -305 -94 c -147 -99 -280 -139 -429 -131 c -255 15 -453 169 -540 422 c -24 69 -28 96 -28 195 c 0 103 3 124 30 200 c 38 107 86 181 172 262 c 183 172 434 216 647 113 c 28 -13 102 -61 165 -106 c 164 -116 170 -119 322 -119 l 128 0 l -25 56 l -25 57 l 55 58 c 61 64 75 92 75 150 c 0 57 -17 82 -127 190 c -112 110 -128 121 -188 121 c -56 0 -78 -12 -151 -84 l -61 -60 l -75 27 l -76 27 l -4 87 c -5 106 -29 153 -92 182 c -34 15 -66 19 -186 18 c -98 0 -155 -4 -175 -13 z" stroke-linecap="round"/>
</g>
		<g transform="matrix(0.1333 0 0 -0.1333 45.3126 4.0734)">
<path style="stroke: none; stroke-width: 1; stroke-dasharray: none; stroke-linecap: butt; stroke-dashoffset: 0; stroke-linejoin: miter; stroke-miterlimit: 4; is-custom-font: none; font-file-url: none; fill: rgb(122,201,218); fill-rule: nonzero; opacity: 1;" transform=" translate(-1420, -1134.3512)" d="M 1043 1512 c -55 -20 -117 -58 -152 -95 l -21 -23 l 71 -12 c 168 -29 264 -132 237 -256 c -12 -54 -41 -91 -96 -123 c -40 -24 -57 -28 -122 -27 c -42 1 -94 8 -117 17 c -24 9 -43 13 -43 8 c 0 -4 17 -34 38 -67 c 76 -117 180 -183 302 -192 c 101 -7 157 14 291 109 c 183 130 188 132 417 137 l 192 4 l 0 168 l 0 169 l -212 3 l -213 3 l -65 31 c -36 17 -88 47 -116 67 c -91 65 -159 91 -254 94 c -64 3 -98 -1 -137 -15 z" stroke-linecap="round"/>
</g>
</g>
</g>
</svg>