<?xml version="1.0" standalone="no"?>
<!DOCTYPE svg PUBLIC "-//W3C//DTD SVG 20010904//EN"
 "http://www.w3.org/TR/2001/REC-SVG-20010904/DTD/svg10.dtd">
<svg version="1.0" xmlns="http://www.w3.org/2000/svg"
 width="225.000000pt" height="225.000000pt" viewBox="0 0 225.000000 225.000000"
 preserveAspectRatio="xMidYMid meet">

<g transform="translate(0.000000,225.000000) scale(0.100000,-0.100000)"
fill="#7ac9da" stroke="none">
<path d="M485 2121 c-40 -24 -71 -60 -84 -94 -8 -19 -11 -267 -11 -763 l0
-734 -128 0 c-86 0 -132 -4 -140 -12 -8 -8 -12 -55 -12 -147 0 -124 2 -137 24
-175 13 -23 42 -51 64 -64 l40 -22 746 0 c624 0 751 2 774 14 36 19 78 65 91
99 8 19 11 268 11 763 l0 734 128 0 c86 0 132 4 140 12 8 8 12 55 12 146 0
121 -2 138 -22 174 -13 22 -41 51 -64 64 l-41 24 -749 0 c-713 0 -750 -1 -779
-19z m1345 -46 c0 -3 -8 -18 -17 -32 -17 -25 -18 -89 -21 -919 l-3 -892 -24
-25 c-35 -34 -80 -41 -124 -20 -53 26 -61 51 -61 194 0 84 -4 129 -12 137 -9
9 -148 12 -563 12 l-550 0 3 744 2 744 26 25 c14 14 35 28 47 30 33 6 1297 8
1297 2z m207 -21 c30 -19 43 -72 43 -176 l0 -88 -110 0 -110 0 0 100 c0 72 4
110 16 131 28 55 103 70 161 33z m-526 -1707 c3 -86 8 -119 22 -140 9 -14 17
-29 17 -32 0 -10 -1264 -5 -1303 6 -58 16 -71 45 -76 171 l-3 108 670 0 670 0
3 -113z"/>
<path d="M931 1910 c-167 -85 -194 -103 -188 -125 2 -5 41 -30 88 -55 l84 -45
3 -116 3 -117 37 -24 c54 -36 97 -48 167 -48 70 0 113 12 168 48 l37 25 0 113
0 114 33 20 c17 11 35 20 39 20 4 0 8 -21 10 -47 3 -44 5 -48 28 -48 24 0 25
3 28 60 2 43 9 66 23 81 11 12 17 28 13 37 -7 18 -353 197 -381 197 -10 -1
-96 -41 -192 -90z m292 -27 c51 -26 110 -57 131 -69 l39 -22 -134 -67 -134
-67 -133 66 c-74 37 -132 69 -129 72 8 8 252 133 260 134 5 0 50 -21 100 -47z
m-164 -270 c62 -31 65 -31 100 -17 20 8 51 24 69 35 18 10 35 19 38 19 2 0 4
-36 4 -79 l0 -79 -37 -23 c-55 -34 -144 -37 -203 -7 l-45 23 -3 83 c-2 46 1
82 5 80 4 -2 37 -18 72 -35z"/>
<path d="M1410 1545 c0 -32 2 -35 30 -35 28 0 30 3 30 35 0 32 -2 35 -30 35
-28 0 -30 -3 -30 -35z"/>
<path d="M1396 1348 c-9 -12 -16 -28 -16 -35 0 -17 -37 -36 -45 -23 -10 17
-71 11 -88 -8 -19 -21 -22 -63 -6 -79 16 -16 -5 -51 -33 -55 -12 -2 -29 -15
-38 -30 -13 -25 -13 -31 0 -55 9 -16 26 -29 38 -31 28 -4 49 -39 33 -55 -14
-14 -14 -53 0 -79 10 -18 3 -28 -51 -83 -77 -78 -78 -99 -3 -103 l51 -3 19
-52 c29 -83 49 -77 123 33 l62 92 59 -88 c70 -105 94 -115 119 -49 23 62 27
65 80 65 75 0 74 21 -6 101 -62 63 -66 69 -50 84 18 19 21 48 5 76 -13 26 -2
59 20 59 23 0 51 31 51 56 0 28 -28 64 -49 64 -26 0 -34 26 -19 65 10 28 9 37
-6 60 -17 26 -21 27 -72 21 -53 -6 -54 -6 -70 26 -20 40 -31 48 -66 48 -17 0
-33 -9 -42 -22z m114 -126 c97 -48 109 -189 21 -251 -22 -16 -44 -21 -94 -21
-55 0 -68 4 -91 25 -30 28 -56 82 -56 117 0 12 9 41 21 65 36 74 124 103 199
65z m-126 -367 c5 -19 -3 -40 -30 -82 -34 -53 -37 -56 -50 -38 -8 10 -14 22
-14 27 0 4 -9 8 -20 8 -11 0 -20 2 -20 5 0 14 97 105 111 105 10 0 20 -11 23
-25z m198 -22 c26 -26 48 -50 48 -54 0 -4 -9 -9 -21 -12 -11 -3 -23 -15 -26
-26 -8 -31 -17 -26 -56 32 -25 39 -34 61 -30 80 8 39 31 34 85 -20z"/>
<path d="M1415 1177 c-3 -7 -5 -52 -3 -98 3 -82 4 -84 28 -84 25 0 25 0 25 95
0 91 -1 95 -23 98 -12 2 -24 -3 -27 -11z"/>
<path d="M539 1284 c-9 -11 -10 -20 -2 -32 9 -15 39 -17 273 -17 234 0 264 2
273 17 8 12 7 21 -2 32 -12 14 -48 16 -271 16 -223 0 -259 -2 -271 -16z"/>
<path d="M539 1144 c-9 -11 -10 -20 -2 -32 9 -15 39 -17 273 -17 234 0 264 2
273 17 8 12 7 21 -2 32 -12 14 -48 16 -271 16 -223 0 -259 -2 -271 -16z"/>
<path d="M539 1004 c-9 -11 -10 -20 -2 -32 9 -15 39 -17 273 -17 234 0 264 2
273 17 8 12 7 21 -2 32 -12 14 -48 16 -271 16 -223 0 -259 -2 -271 -16z"/>
<path d="M542 868 c-19 -19 -14 -47 11 -53 12 -3 134 -4 271 -3 219 3 250 5
259 20 8 12 7 21 -2 32 -12 14 -48 16 -270 16 -187 0 -260 -3 -269 -12z"/>
</g>
</svg>
