<?xml version="1.0" encoding="iso-8859-1"?>
<!-- Generator: Adobe Illustrator 19.0.0, SVG Export Plug-In . SVG Version: 6.00 Build 0)  -->
<svg xmlns="http://www.w3.org/2000/svg" xmlns:xlink="http://www.w3.org/1999/xlink" version="1.1" id="Layer_1" x="0px" y="0px" viewBox="0 0 512 512" style="enable-background:new 0 0 512 512;" xml:space="preserve" width="512px" height="512px">
<g>
	<g>
		<g transform="translate(0.000000,512.000000) scale(0.100000,-0.100000)"
fill="#7ac9da" stroke="none">
<path d="M1295 4517 c-666 -334 -1220 -614 -1232 -624 -82 -69 -83 -224 -1
-300 38 -35 103 -56 156 -50 36 4 310 137 1195 578 l1147 574 1148 -573 c740
-370 1161 -576 1187 -579 86 -11 167 32 206 110 31 59 24 150 -16 207 -28 40
-84 70 -1239 647 -1162 581 -1214 606 -1276 611 l-65 4 -1210 -605z"/>
<path d="M1195 3544 c-16 -2 -73 -9 -125 -15 -217 -24 -440 -89 -635 -184
-221 -107 -387 -230 -421 -310 -12 -29 -14 -229 -14 -1362 0 -1275 1 -1330 19
-1369 21 -45 67 -85 120 -103 24 -8 303 -11 993 -11 l959 0 63 -45 c272 -194
540 -194 812 0 l62 45 978 2 979 3 44 30 c26 17 54 48 68 74 l23 44 0 1330 c0
1321 0 1331 -21 1373 -38 79 -197 194 -414 299 -191 93 -396 153 -635 187
-140 19 -487 16 -633 -5 -285 -43 -563 -139 -779 -271 l-78 -47 -77 47 c-216
132 -497 229 -774 269 -107 16 -448 28 -514 19z m415 -415 c232 -26 475 -107
673 -226 l77 -47 0 -1033 c0 -977 -1 -1033 -17 -1033 -10 0 -70 21 -133 46
-262 104 -510 148 -830 148 -337 1 -597 -48 -862 -159 -45 -19 -90 -35 -100
-35 -17 0 -18 49 -18 1034 l0 1034 53 35 c299 199 718 284 1157 236z m2312 6
c251 -15 550 -112 745 -242 l53 -35 0 -1034 c0 -985 -1 -1034 -18 -1034 -10 0
-55 16 -100 35 -265 111 -525 160 -862 159 -320 0 -568 -44 -830 -148 -63 -25
-123 -46 -132 -46 -17 0 -18 56 -18 1033 l0 1033 78 47 c239 144 528 227 832
240 65 3 91 2 252 -8z"/>
</g>
	</g>
</g>
<g>
</g>
<g>
</g>
<g>
</g>
<g>
</g>
<g>
</g>
<g>
</g>
<g>
</g>
<g>
</g>
<g>
</g>
<g>
</g>
<g>
</g>
<g>
</g>
<g>
</g>
<g>
</g>
<g>
</g>
</svg>
