<svg xmlns="http://www.w3.org/2000/svg" xmlns:xlink="http://www.w3.org/1999/xlink" version="1.1" width="1000" height="1000" viewBox="0 0 1000 1000" xml:space="preserve">
<desc>Created with Fabric.js 3.5.0</desc>
<defs>
</defs>
<rect x="0" y="0" width="100%" height="100%" fill="#ffffff"/>
<g transform="matrix(3.7308 0 0 2.9762 498.7189 497.4441)" id="985142">
<g style="" vector-effect="non-scaling-stroke">
		<g transform="matrix(0.1333 0 0 -0.1333 36.6928 -153.2854)">
<path style="stroke: none; stroke-width: 1; stroke-dasharray: none; stroke-linecap: butt; stroke-dashoffset: 0; stroke-linejoin: miter; stroke-miterlimit: 4; is-custom-font: none; font-file-url: none; fill: rgb(122,201,218); fill-rule: nonzero; opacity: 1;" transform=" translate(-1275.2098, -2409.6132)" d="M 1251 2511 c -14 -9 -29 -79 -30 -143 c -1 -42 20 -68 53 -68 c 36 0 47 22 53 105 c 5 64 3 78 -12 95 c -19 21 -41 25 -64 11 z" stroke-linecap="round"/>
</g>
		<g transform="matrix(0.1333 0 0 -0.1333 -38.5293 -138.0675)">
<path style="stroke: none; stroke-width: 1; stroke-dasharray: none; stroke-linecap: butt; stroke-dashoffset: 0; stroke-linejoin: miter; stroke-miterlimit: 4; is-custom-font: none; font-file-url: none; fill: rgb(122,201,218); fill-rule: nonzero; opacity: 1;" transform=" translate(-711.053, -2295.4824)" d="M 642 2374 c -36 -25 -27 -54 36 -117 c 57 -56 87 -68 110 -45 c 27 27 13 64 -47 121 c -33 32 -63 57 -68 57 c -5 0 -19 -7 -31 -16 z" stroke-linecap="round"/>
</g>
		<g transform="matrix(0.1333 0 0 -0.1333 98.2803 -126.9277)">
<path style="stroke: none; stroke-width: 1; stroke-dasharray: none; stroke-linecap: butt; stroke-dashoffset: 0; stroke-linejoin: miter; stroke-miterlimit: 4; is-custom-font: none; font-file-url: none; fill: rgb(122,201,218); fill-rule: nonzero; opacity: 1;" transform=" translate(-1737.1229, -2211.9331)" d="M 1738 2297 c -7 -8 -31 -39 -52 -69 c -42 -62 -42 -92 1 -109 c 33 -12 44 -4 92 63 c 42 57 51 94 29 116 c -16 16 -53 15 -70 -1 z" stroke-linecap="round"/>
</g>
		<g transform="matrix(0.1333 0 0 -0.1333 27.3459 -57.5809)">
<path style="stroke: none; stroke-width: 1; stroke-dasharray: none; stroke-linecap: butt; stroke-dashoffset: 0; stroke-linejoin: miter; stroke-miterlimit: 4; is-custom-font: none; font-file-url: none; fill: rgb(122,201,218); fill-rule: nonzero; opacity: 1;" transform=" translate(-1205.2178, -1691.7247)" d="M 1076 2209 c -275 -69 -431 -370 -335 -648 c 19 -57 41 -94 132 -225 c 15 -21 37 -65 48 -98 c 12 -32 31 -64 42 -69 c 24 -13 444 27 465 44 c 33 27 198 258 223 312 c 57 126 62 251 15 380 c -45 125 -163 237 -301 286 c -68 25 -225 34 -289 18 z m 344 -366 c -73 -77 -184 -224 -255 -336 l -49 -77 l -34 65 c -19 36 -61 94 -93 129 l -59 64 l 49 12 c 41 10 54 9 79 -4 c 17 -9 37 -25 45 -36 c 13 -19 17 -16 75 59 c 34 43 89 103 121 134 c 59 57 60 57 121 57 l 62 0 l -62 -67 z" stroke-linecap="round"/>
</g>
		<g transform="matrix(0.1333 0 0 -0.1333 -62.7274 -68.0522)">
<path style="stroke: none; stroke-width: 1; stroke-dasharray: none; stroke-linecap: butt; stroke-dashoffset: 0; stroke-linejoin: miter; stroke-miterlimit: 4; is-custom-font: none; font-file-url: none; fill: rgb(122,201,218); fill-rule: nonzero; opacity: 1;" transform=" translate(-529.5723, -1770.3791)" d="M 436 1804 c -9 -8 -16 -24 -16 -34 c 0 -38 27 -50 110 -50 c 58 0 83 4 94 16 c 21 21 20 47 -2 67 c -26 23 -164 24 -186 1 z" stroke-linecap="round"/>
</g>
		<g transform="matrix(0.1333 0 0 -0.1333 117.9965 -67.2161)">
<path style="stroke: none; stroke-width: 1; stroke-dasharray: none; stroke-linecap: butt; stroke-dashoffset: 0; stroke-linejoin: miter; stroke-miterlimit: 4; is-custom-font: none; font-file-url: none; fill: rgb(122,201,218); fill-rule: nonzero; opacity: 1;" transform=" translate(-1885, -1764.1073)" d="M 1855 1813 c -59 -5 -75 -16 -75 -52 c 0 -42 17 -51 95 -51 c 80 0 115 17 115 55 c 0 27 -35 56 -65 53 c -11 -1 -42 -3 -70 -5 z" stroke-linecap="round"/>
</g>
		<g transform="matrix(0.1333 0 0 -0.1333 24.8626 28.5705)">
<path style="stroke: none; stroke-width: 1; stroke-dasharray: none; stroke-linecap: butt; stroke-dashoffset: 0; stroke-linejoin: miter; stroke-miterlimit: 4; is-custom-font: none; font-file-url: none; fill: rgb(122,201,218); fill-rule: nonzero; opacity: 1;" transform=" translate(-1186.5255, -1045.703)" d="M 1177 1095 c -114 -12 -210 -25 -213 -27 c -5 -6 11 -86 19 -95 c 3 -3 95 5 205 16 c 110 12 204 21 211 21 c 7 0 11 21 11 55 c 0 38 -4 55 -12 54 c -7 -1 -107 -12 -221 -24 z" stroke-linecap="round"/>
</g>
		<g transform="matrix(0.1333 0 0 -0.1333 27.1468 51.9984)">
<path style="stroke: none; stroke-width: 1; stroke-dasharray: none; stroke-linecap: butt; stroke-dashoffset: 0; stroke-linejoin: miter; stroke-miterlimit: 4; is-custom-font: none; font-file-url: none; fill: rgb(122,201,218); fill-rule: nonzero; opacity: 1;" transform=" translate(-1203.6438, -870)" d="M 1175 904 c -60 -7 -118 -13 -129 -13 c -16 -1 -16 -3 -5 -17 c 25 -30 87 -54 140 -54 c 61 0 122 26 164 70 l 29 30 l -45 -1 c -24 -1 -93 -7 -154 -15 z" stroke-linecap="round"/>
</g>
		<g transform="matrix(0.1333 0 0 -0.1333 -114.671 96.6542)">
<path style="stroke: none; stroke-width: 1; stroke-dasharray: none; stroke-linecap: butt; stroke-dashoffset: 0; stroke-linejoin: miter; stroke-miterlimit: 4; is-custom-font: none; font-file-url: none; fill: rgb(122,201,218); fill-rule: nonzero; opacity: 1;" transform=" translate(-140, -535)" d="M 10 535 l 0 -375 l 130 0 l 130 0 l 0 375 l 0 375 l -130 0 l -130 0 l 0 -375 z" stroke-linecap="round"/>
</g>
		<g transform="matrix(0.1333 0 0 -0.1333 19.7192 111.1861)">
<path style="stroke: none; stroke-width: 1; stroke-dasharray: none; stroke-linecap: butt; stroke-dashoffset: 0; stroke-linejoin: miter; stroke-miterlimit: 4; is-custom-font: none; font-file-url: none; fill: rgb(122,201,218); fill-rule: nonzero; opacity: 1;" transform=" translate(-1148.0915, -425.9976)" d="M 362 534 l 3 -317 l 190 -98 c 309 -158 363 -158 675 -4 c 269 134 547 301 654 396 c 67 59 70 143 6 204 c -24 23 -41 29 -87 33 c -56 4 -64 1 -229 -81 c -162 -81 -172 -87 -187 -124 c -42 -105 -120 -149 -286 -163 c -134 -11 -161 -4 -161 39 c 0 16 6 33 12 38 c 7 4 60 8 118 9 c 87 0 114 4 158 24 c 95 41 122 113 61 164 c -29 25 -36 26 -154 26 l -124 0 l -107 60 c -167 92 -202 102 -387 108 l -157 4 l 2 -318 z" stroke-linecap="round"/>
</g>
</g>
</g>
</svg>