<svg xmlns="http://www.w3.org/2000/svg" xmlns:xlink="http://www.w3.org/1999/xlink" version="1.1" width="1000" height="1000" viewBox="0 0 1000 1000" xml:space="preserve">
<desc>Created with Fabric.js 3.5.0</desc>
<defs>
</defs>
<rect x="0" y="0" width="100%" height="100%" fill="#ffffff"/>
<g transform="matrix(3.0738 0 0 3.016 500.0047 513.9416)" id="533152">
<g style="" vector-effect="non-scaling-stroke">
		<g transform="matrix(0.1333 0 0 -0.1333 49.6743 -0.4992)">
<path style="stroke: none; stroke-width: 1; stroke-dasharray: none; stroke-linecap: butt; stroke-dashoffset: 0; stroke-linejoin: miter; stroke-miterlimit: 4; is-custom-font: none; font-file-url: none; fill: rgb(122,201,218); fill-rule: nonzero; opacity: 1;" transform=" translate(-1592.7686, -1033.487)" d="M 1348 2049 c -15 -8 -18 -24 -18 -92 c 0 -51 5 -88 12 -95 c 8 -8 45 -12 100 -12 l 88 0 l 0 -75 l 0 -74 l -37 -6 c -219 -35 -375 -116 -520 -269 c -93 -98 -170 -238 -204 -371 c -29 -112 -29 -299 0 -410 c 100 -379 425 -634 811 -638 c 250 -2 451 82 622 261 c 397 415 278 1084 -239 1345 c -57 30 -212 77 -249 77 c -23 0 -24 2 -24 80 l 0 80 l 95 0 c 112 0 115 3 115 109 c 0 104 8 101 -290 101 c -148 0 -252 -5 -262 -11 z m 412 -505 c 247 -56 467 -276 526 -529 c 25 -108 15 -296 -21 -395 c -64 -178 -193 -324 -357 -404 c -108 -54 -199 -76 -316 -76 c -275 0 -521 155 -642 405 c -127 264 -80 574 120 788 c 180 193 429 269 690 211 z" stroke-linecap="round"/>
</g>
		<g transform="matrix(0.1333 0 0 -0.1333 49.3682 -1.7188)">
<path style="stroke: none; stroke-width: 1; stroke-dasharray: none; stroke-linecap: butt; stroke-dashoffset: 0; stroke-linejoin: miter; stroke-miterlimit: 4; is-custom-font: none; font-file-url: none; fill: rgb(122,201,218); fill-rule: nonzero; opacity: 1;" transform=" translate(-1590.2961, -1042.8074)" d="M 1564 1368 c -37 -18 -44 -51 -44 -222 l 0 -164 l -30 -32 c -81 -87 -30 -226 88 -238 c 89 -8 152 48 152 138 c 0 47 -28 106 -55 116 c -13 5 -15 35 -15 184 c 0 155 -2 180 -17 198 c -23 26 -52 33 -79 20 z" stroke-linecap="round"/>
</g>
		<g transform="matrix(0.1333 0 0 -0.1333 -35.6713 -73.6216)">
<path style="stroke: none; stroke-width: 1; stroke-dasharray: none; stroke-linecap: butt; stroke-dashoffset: 0; stroke-linejoin: miter; stroke-miterlimit: 4; is-custom-font: none; font-file-url: none; fill: rgb(122,201,218); fill-rule: nonzero; opacity: 1;" transform=" translate(-952.5, -1582.13)" d="M 900 1688 c -66 -34 -85 -66 -85 -146 c 0 -109 5 -111 77 -36 c 34 36 93 89 130 117 c 38 29 68 55 68 59 c 0 10 -69 28 -110 28 c -20 0 -56 -10 -80 -22 z" stroke-linecap="round"/>
</g>
		<g transform="matrix(0.1333 0 0 -0.1333 134.6619 -73.5309)">
<path style="stroke: none; stroke-width: 1; stroke-dasharray: none; stroke-linecap: butt; stroke-dashoffset: 0; stroke-linejoin: miter; stroke-miterlimit: 4; is-custom-font: none; font-file-url: none; fill: rgb(122,201,218); fill-rule: nonzero; opacity: 1;" transform=" translate(-2230, -1581.4503)" d="M 2123 1698 c -18 -6 -33 -14 -33 -17 c 0 -3 17 -17 37 -31 c 21 -14 81 -67 134 -118 c 108 -103 109 -103 109 9 c 0 61 -22 105 -72 142 c -33 24 -125 32 -175 15 z" stroke-linecap="round"/>
</g>
		<g transform="matrix(0.1333 0 0 -0.1333 -109.9534 -27.3355)">
<path style="stroke: none; stroke-width: 1; stroke-dasharray: none; stroke-linecap: butt; stroke-dashoffset: 0; stroke-linejoin: miter; stroke-miterlimit: 4; is-custom-font: none; font-file-url: none; fill: rgb(122,201,218); fill-rule: nonzero; opacity: 1;" transform=" translate(-395.4126, -1235)" d="M 157 1282 c -23 -25 -21 -68 3 -92 c 19 -19 33 -20 233 -20 c 240 0 257 4 257 64 c 0 63 -11 66 -257 66 c -200 0 -221 -2 -236 -18 z" stroke-linecap="round"/>
</g>
		<g transform="matrix(0.1333 0 0 -0.1333 -124.0215 24.6644)">
<path style="stroke: none; stroke-width: 1; stroke-dasharray: none; stroke-linecap: butt; stroke-dashoffset: 0; stroke-linejoin: miter; stroke-miterlimit: 4; is-custom-font: none; font-file-url: none; fill: rgb(122,201,218); fill-rule: nonzero; opacity: 1;" transform=" translate(-289.9117, -845)" d="M 20 890 c -26 -26 -26 -64 0 -90 c 19 -19 33 -20 270 -20 c 237 0 251 1 270 20 c 24 24 26 57 4 88 c -15 22 -18 22 -270 22 c -241 0 -255 -1 -274 -20 z" stroke-linecap="round"/>
</g>
		<g transform="matrix(0.1333 0 0 -0.1333 -109.2837 77.9978)">
<path style="stroke: none; stroke-width: 1; stroke-dasharray: none; stroke-linecap: butt; stroke-dashoffset: 0; stroke-linejoin: miter; stroke-miterlimit: 4; is-custom-font: none; font-file-url: none; fill: rgb(122,201,218); fill-rule: nonzero; opacity: 1;" transform=" translate(-400.4366, -445)" d="M 160 490 c -26 -26 -25 -60 0 -88 c 20 -21 27 -22 240 -22 c 207 0 221 1 240 20 c 11 11 20 31 20 45 c 0 14 -9 34 -20 45 c -19 19 -33 20 -240 20 c -207 0 -221 -1 -240 -20 z" stroke-linecap="round"/>
</g>
</g>
</g>
</svg>