<svg xmlns="http://www.w3.org/2000/svg" xmlns:xlink="http://www.w3.org/1999/xlink" version="1.1" width="1000" height="1000" viewBox="0 0 1000 1000" xml:space="preserve">
<desc>Created with Fabric.js 3.5.0</desc>
<defs>
</defs>
<rect x="0" y="0" width="100%" height="100%" fill="#ffffff"/>
<g transform="matrix(0.4433 0 0 -0.5196 495.5004 504.4482)" id="71283">
<path style="stroke: none; stroke-width: 1; stroke-dasharray: none; stroke-linecap: butt; stroke-dashoffset: 0; stroke-linejoin: miter; stroke-miterlimit: 4; is-custom-font: none; font-file-url: none; fill: rgb(122,201,218); fill-rule: nonzero; opacity: 1;" vector-effect="non-scaling-stroke" transform=" translate(-1122.9875, -1125.8922)" d="M 446 2074 c -9 -9 -16 -33 -16 -57 c -1 -109 -46 -213 -125 -286 c -59 -55 -115 -79 -207 -91 c -50 -6 -76 -14 -85 -26 c -17 -23 -18 -700 -2 -807 c 60 -387 405 -666 794 -644 c 118 7 194 26 292 73 c 137 65 276 199 336 322 l 21 42 l 239 0 c 200 0 245 3 273 16 c 43 21 68 66 61 111 c -5 30 -3 33 19 33 c 83 0 146 96 115 175 c -6 16 -2 24 20 37 c 87 53 87 176 1 225 c -26 15 -28 19 -19 53 c 13 47 4 82 -32 123 l -29 32 l -164 5 l -163 5 l -5 225 c -5 242 -8 253 -60 290 c -46 33 -100 37 -152 11 c -64 -31 -88 -78 -88 -174 c 0 -41 -3 -89 -6 -106 c -6 -27 -10 -31 -40 -31 c -100 0 -230 93 -285 205 c -24 49 -32 81 -36 145 c -4 51 -11 87 -20 96 c -12 11 -69 14 -318 14 c -263 0 -306 -2 -319 -16 z m 594 -99 c 0 -62 29 -158 64 -213 c 54 -85 175 -171 264 -188 c 17 -3 32 -9 32 -13 c 0 -12 -204 -135 -241 -145 c -35 -9 -39 -8 -72 27 l -34 37 l -132 0 l -133 0 l -30 -30 c -28 -29 -33 -30 -114 -30 c -85 0 -118 -9 -141 -39 c -9 -12 -12 -100 -13 -333 l 0 -316 l 31 -26 c 28 -24 38 -26 120 -26 l 89 0 l 0 -160 l 0 -160 l -28 0 c -47 0 -142 29 -206 62 c -83 44 -194 157 -235 239 c -58 117 -61 143 -61 489 l 0 316 l 58 12 c 84 17 159 58 223 121 c 64 65 104 140 123 232 l 13 64 l 56 3 l 57 3 l 0 -155 c 0 -139 2 -156 18 -165 c 39 -21 43 -3 40 190 l -3 184 l -115 0 l -115 0 l -8 -70 c -20 -184 -162 -331 -339 -351 c -32 -4 -63 -12 -69 -20 c -7 -9 -9 -116 -6 -356 c 3 -288 7 -353 21 -403 c 49 -168 175 -320 326 -394 c 89 -43 209 -74 269 -69 l 36 3 l 3 163 l 2 162 l 128 0 c 101 0 132 3 150 16 c 22 15 27 14 75 -7 c 38 -16 78 -24 145 -27 c 50 -2 92 -7 92 -11 c 0 -15 -74 -114 -120 -160 c -90 -90 -203 -154 -330 -187 c -86 -23 -244 -23 -330 0 c -251 65 -444 255 -512 503 c -19 71 -21 110 -26 449 l -4 371 l 68 11 c 194 32 345 191 361 381 l 6 71 l 273 0 l 274 0 l 0 -55 z m 615 -89 c 18 -8 38 -23 44 -34 c 7 -13 11 -103 11 -243 c 0 -193 2 -225 17 -241 c 14 -16 34 -18 173 -18 c 136 0 161 -2 178 -17 c 31 -28 35 -56 11 -86 c -20 -26 -24 -27 -124 -27 c -57 0 -110 -3 -119 -6 c -21 -8 -21 -50 0 -58 c 9 -3 80 -6 158 -6 c 129 0 145 -2 161 -20 c 22 -24 23 -67 1 -88 c -14 -14 -45 -18 -174 -22 l -157 -5 l 0 -25 c 0 -25 1 -25 110 -31 c 61 -3 117 -9 126 -13 c 39 -17 43 -89 7 -113 c -7 -4 -65 -10 -128 -13 c -115 -5 -115 -5 -115 -30 c 0 -23 5 -25 54 -30 c 64 -7 90 -31 67 -64 c -13 -21 -22 -21 -383 -24 l -369 -2 l -45 23 c -41 22 -44 27 -47 68 c -3 46 -23 72 -48 62 c -10 -4 -14 -22 -14 -62 c 0 -31 -5 -62 -12 -69 c -16 -16 -220 -16 -236 0 c -16 16 -17 680 -2 709 c 10 17 22 19 119 19 c 78 0 112 -4 120 -13 c 7 -9 12 -96 13 -248 l 3 -234 l 25 0 l 25 0 l 3 211 l 2 211 l 49 5 c 40 4 72 19 168 81 c 134 86 153 104 182 167 c 16 35 21 66 21 136 c 0 78 3 95 21 118 c 18 22 44 40 67 45 c 1 1 18 -5 37 -13 z m -925 -831 l 0 -306 l -87 3 l -88 3 l -3 289 c -2 205 1 293 9 302 c 8 10 36 14 90 14 l 79 0 l 0 -305 z" stroke-linecap="round"/>
</g>
</svg>