<?xml version="1.0" standalone="no"?>
<!DOCTYPE svg PUBLIC "-//W3C//DTD SVG 20010904//EN"
 "http://www.w3.org/TR/2001/REC-SVG-20010904/DTD/svg10.dtd">
<svg version="1.0" xmlns="http://www.w3.org/2000/svg"
 width="202.000000pt" height="249.000000pt" viewBox="0 0 202.000000 249.000000"
 preserveAspectRatio="xMidYMid meet">

<g transform="translate(0.000000,249.000000) scale(0.100000,-0.100000)"
fill="#7ac9da" stroke="none">
<path d="M667 2325 c-247 -35 -451 -66 -455 -69 -9 -10 -1 -15 208 -150 188
-122 195 -126 204 -104 57 150 88 168 316 175 155 6 257 -5 315 -33 48 -22 40
-27 -15 -7 -60 21 -292 29 -388 14 -84 -13 -146 -41 -163 -74 -12 -20 -71
-259 -66 -263 1 -2 31 4 67 11 182 39 458 39 640 0 36 -7 66 -13 67 -11 1 1
-4 27 -11 59 -16 67 -21 63 102 73 l82 7 0 97 0 97 -183 122 c-168 112 -186
121 -227 120 -25 -1 -247 -30 -493 -64z"/>
<path d="M1587 1958 c-3 -112 -13 -259 -22 -327 -10 -80 -13 -127 -6 -134 10
-10 89 -12 98 -3 3 3 1 47 -6 98 -19 154 -35 357 -29 363 3 3 44 10 92 17 47
6 86 14 86 18 0 5 -40 34 -90 65 -73 46 -90 61 -90 81 0 14 -6 24 -14 24 -11
0 -14 -41 -19 -202z"/>
<path d="M875 1814 c-16 -2 -66 -9 -110 -15 -44 -5 -96 -15 -117 -20 -36 -9
-36 -10 -41 -67 -3 -31 -11 -83 -18 -116 -20 -92 7 -220 61 -281 9 -11 22 -34
28 -51 29 -87 129 -196 221 -241 110 -54 221 -28 330 79 57 56 96 112 114 162
6 17 23 47 37 66 15 19 33 50 39 69 18 56 24 162 11 211 -7 25 -15 71 -19 102
-4 31 -9 59 -11 61 -23 23 -432 54 -525 41z m385 -79 c7 -8 15 -44 18 -80 2
-36 8 -65 12 -65 4 0 15 11 24 25 49 75 84 -30 55 -167 -8 -34 -22 -62 -40
-81 -16 -16 -29 -34 -29 -40 0 -31 -54 -123 -101 -172 -54 -58 -135 -105 -180
-105 -40 0 -105 26 -155 62 -53 38 -120 134 -137 195 -6 24 -19 45 -28 48 -26
8 -51 81 -56 160 -7 109 24 159 63 100 24 -36 34 -31 34 18 l0 43 88 1 c94 1
228 22 332 52 83 24 85 24 100 6z"/>
<path d="M650 968 c-30 -15 -100 -39 -155 -54 -183 -48 -293 -127 -378 -272
-52 -90 -53 -86 8 -136 133 -108 317 -180 585 -228 116 -20 529 -17 647 5 220
42 413 120 531 217 l62 51 -37 72 c-49 92 -148 194 -228 235 -34 17 -110 45
-170 62 -60 18 -130 42 -155 55 l-47 24 -43 -105 c-43 -107 -125 -253 -160
-289 -20 -19 -20 -19 -20 0 0 11 -5 53 -10 94 l-10 74 41 74 c45 82 43 99 -11
83 -44 -13 -122 -12 -179 1 -24 5 -46 7 -50 3 -3 -3 13 -41 36 -84 l42 -78
-11 -91 c-9 -76 -14 -89 -25 -79 -29 24 -114 175 -159 282 -26 61 -47 111 -48
111 0 0 -26 -12 -56 -27z"/>
</g>
</svg>
