<svg xmlns="http://www.w3.org/2000/svg" xmlns:xlink="http://www.w3.org/1999/xlink" version="1.1" width="1000" height="1000" viewBox="0 0 1000 1000" xml:space="preserve">
<desc>Created with Fabric.js 3.5.0</desc>
<defs>
</defs>
<rect x="0" y="0" width="100%" height="100%" fill="#ffffff"/>
<g transform="matrix(1.4574 0 0 1.4499 493.6229 497.4567)" id="876961">
<g style="" vector-effect="non-scaling-stroke">
		<g transform="matrix(0.1333 0 0 -0.1333 0.0586 -271.9285)">
<path style="stroke: none; stroke-width: 1; stroke-dasharray: none; stroke-linecap: butt; stroke-dashoffset: 0; stroke-linejoin: miter; stroke-miterlimit: 4; is-custom-font: none; font-file-url: none; fill: rgb(122,201,218); fill-rule: nonzero; opacity: 1;" transform=" translate(-2560.5, -4599.3936)" d="M 2509 4857 c -84 -56 -159 -253 -183 -479 l -6 -58 l 240 0 l 241 0 l -6 53 c -31 256 -106 446 -195 492 c -39 20 -51 19 -91 -8 z" stroke-linecap="round"/>
</g>
		<g transform="matrix(0.1333 0 0 -0.1333 -61.7912 -267.1502)">
<path style="stroke: none; stroke-width: 1; stroke-dasharray: none; stroke-linecap: butt; stroke-dashoffset: 0; stroke-linejoin: miter; stroke-miterlimit: 4; is-custom-font: none; font-file-url: none; fill: rgb(122,201,218); fill-rule: nonzero; opacity: 1;" transform=" translate(-2096.609, -4563.5659)" d="M 2193 4761 c -136 -96 -235 -248 -259 -400 l -7 -41 l 116 0 l 116 0 l 5 58 c 12 113 47 275 76 350 c 16 42 28 77 26 79 c -1 2 -34 -19 -73 -46 z" stroke-linecap="round"/>
</g>
		<g transform="matrix(0.1333 0 0 -0.1333 61.3271 -267.223)">
<path style="stroke: none; stroke-width: 1; stroke-dasharray: none; stroke-linecap: butt; stroke-dashoffset: 0; stroke-linejoin: miter; stroke-miterlimit: 4; is-custom-font: none; font-file-url: none; fill: rgb(122,201,218); fill-rule: nonzero; opacity: 1;" transform=" translate(-3019.9952, -4564.1119)" d="M 2855 4794 c 50 -120 84 -258 100 -416 l 6 -58 l 115 0 c 129 0 124 -4 100 87 c -42 157 -153 302 -297 387 c -32 19 -32 19 -24 0 z" stroke-linecap="round"/>
</g>
		<g transform="matrix(0.1333 0 0 -0.1333 -61.7912 -180.8469)">
<path style="stroke: none; stroke-width: 1; stroke-dasharray: none; stroke-linecap: butt; stroke-dashoffset: 0; stroke-linejoin: miter; stroke-miterlimit: 4; is-custom-font: none; font-file-url: none; fill: rgb(122,201,218); fill-rule: nonzero; opacity: 1;" transform=" translate(-2096.609, -3916.291)" d="M 1934 4119 c 16 -100 72 -213 149 -304 c 35 -41 175 -150 183 -142 c 2 2 -10 37 -26 79 c -29 75 -64 237 -76 351 l -5 57 l -116 0 l -116 0 l 7 -41 z" stroke-linecap="round"/>
</g>
		<g transform="matrix(0.1333 0 0 -0.1333 -0.0081 -176.2584)">
<path style="stroke: none; stroke-width: 1; stroke-dasharray: none; stroke-linecap: butt; stroke-dashoffset: 0; stroke-linejoin: miter; stroke-miterlimit: 4; is-custom-font: none; font-file-url: none; fill: rgb(122,201,218); fill-rule: nonzero; opacity: 1;" transform=" translate(-2560, -3881.8685)" d="M 2325 4113 c 24 -187 48 -279 96 -374 c 74 -147 153 -175 228 -80 c 74 94 121 238 146 449 l 6 52 l -241 0 l -241 0 l 6 -47 z" stroke-linecap="round"/>
</g>
		<g transform="matrix(0.1333 0 0 -0.1333 61.7226 -180.8467)">
<path style="stroke: none; stroke-width: 1; stroke-dasharray: none; stroke-linecap: butt; stroke-dashoffset: 0; stroke-linejoin: miter; stroke-miterlimit: 4; is-custom-font: none; font-file-url: none; fill: rgb(122,201,218); fill-rule: nonzero; opacity: 1;" transform=" translate(-3022.9622, -3916.2892)" d="M 2956 4123 c -3 -21 -8 -65 -11 -98 c -9 -85 -40 -213 -70 -286 c -14 -34 -23 -64 -22 -66 c 8 -8 148 100 184 142 c 77 91 133 204 149 304 l 7 41 l -116 0 l -115 0 l -6 -37 z" stroke-linecap="round"/>
</g>
		<g transform="matrix(0.1333 0 0 -0.1333 -288.0053 10.6373)">
<path style="stroke: none; stroke-width: 1; stroke-dasharray: none; stroke-linecap: butt; stroke-dashoffset: 0; stroke-linejoin: miter; stroke-miterlimit: 4; is-custom-font: none; font-file-url: none; fill: rgb(122,201,218); fill-rule: nonzero; opacity: 1;" transform=" translate(-400, -2480)" d="M 240 2480 l 0 -880 l 160 0 l 160 0 l 0 880 l 0 880 l -160 0 l -160 0 l 0 -880 z" stroke-linecap="round"/>
</g>
		<g transform="matrix(0.1333 0 0 -0.1333 287.9947 10.6373)">
<path style="stroke: none; stroke-width: 1; stroke-dasharray: none; stroke-linecap: butt; stroke-dashoffset: 0; stroke-linejoin: miter; stroke-miterlimit: 4; is-custom-font: none; font-file-url: none; fill: rgb(122,201,218); fill-rule: nonzero; opacity: 1;" transform=" translate(-4720, -2480)" d="M 4560 2480 l 0 -880 l 160 0 l 160 0 l 0 880 l 0 880 l -160 0 l -160 0 l 0 -880 z" stroke-linecap="round"/>
</g>
		<g transform="matrix(0.1333 0 0 -0.1333 -26.7158 90.5603)">
<path style="stroke: none; stroke-width: 1; stroke-dasharray: none; stroke-linecap: butt; stroke-dashoffset: 0; stroke-linejoin: miter; stroke-miterlimit: 4; is-custom-font: none; font-file-url: none; fill: rgb(122,201,218); fill-rule: nonzero; opacity: 1;" transform=" translate(-2360.0416, -1880.4675)" d="M 720 2580 l 0 -620 l 133 -100 l 134 -100 l 128 0 l 129 0 l 135 133 c 165 162 200 182 316 182 c 63 -1 90 -6 127 -23 c 93 -46 163 -143 175 -242 l 5 -48 l 48 -5 c 135 -16 251 -132 267 -267 l 5 -48 l 48 -5 c 135 -16 251 -132 267 -267 l 5 -48 l 48 -5 c 65 -8 130 -40 179 -89 c 56 -57 83 -119 88 -203 l 5 -70 l 87 -88 c 93 -94 131 -115 195 -103 c 47 9 103 65 111 110 c 13 68 -1 95 -121 217 c -97 99 -114 121 -114 148 c 0 43 38 81 81 81 c 27 0 49 -17 148 -114 c 124 -121 152 -136 221 -121 c 42 9 97 66 105 109 c 13 68 -1 95 -121 217 c -97 99 -114 121 -114 148 c 0 43 38 81 81 81 c 27 0 49 -17 148 -114 c 124 -121 152 -136 221 -121 c 43 9 97 66 106 111 c 15 79 17 77 -526 619 l -509 509 l -193 -190 c -234 -231 -262 -248 -403 -249 c -77 0 -98 4 -147 27 c -79 37 -142 98 -181 177 c -29 59 -32 74 -32 156 c 0 144 13 165 289 442 l 230 233 l -35 36 c -50 52 -116 91 -184 109 c -51 13 -165 15 -822 15 l -763 0 l 0 -620 z" stroke-linecap="round"/>
</g>
		<g transform="matrix(0.1333 0 0 -0.1333 95.9881 10.6426)">
<path style="stroke: none; stroke-width: 1; stroke-dasharray: none; stroke-linecap: butt; stroke-dashoffset: 0; stroke-linejoin: miter; stroke-miterlimit: 4; is-custom-font: none; font-file-url: none; fill: rgb(122,201,218); fill-rule: nonzero; opacity: 1;" transform=" translate(-3280.191, -2480)" d="M 2553 2838 c -245 -246 -367 -375 -378 -400 c -23 -56 -19 -108 13 -169 c 47 -91 157 -132 250 -94 c 24 10 115 94 259 238 c 217 215 224 222 263 222 c 40 0 46 -6 478 -438 l 437 -437 l 129 0 l 129 0 l 134 100 l 133 100 l 0 620 l 0 620 l -743 0 l -742 0 l -362 -362 z" stroke-linecap="round"/>
</g>
		<g transform="matrix(0.1333 0 0 -0.1333 -144.0638 133.2983)">
<path style="stroke: none; stroke-width: 1; stroke-dasharray: none; stroke-linecap: butt; stroke-dashoffset: 0; stroke-linejoin: miter; stroke-miterlimit: 4; is-custom-font: none; font-file-url: none; fill: rgb(122,201,218); fill-rule: nonzero; opacity: 1;" transform=" translate(-1479.6106, -1560.1731)" d="M 1635 1906 c -16 -8 -137 -121 -267 -252 c -205 -207 -237 -244 -244 -277 c -20 -111 82 -203 188 -168 c 23 8 107 85 275 254 c 207 207 242 247 248 279 c 22 119 -92 212 -200 164 z" stroke-linecap="round"/>
</g>
		<g transform="matrix(0.1333 0 0 -0.1333 -101.3972 175.965)">
<path style="stroke: none; stroke-width: 1; stroke-dasharray: none; stroke-linecap: butt; stroke-dashoffset: 0; stroke-linejoin: miter; stroke-miterlimit: 4; is-custom-font: none; font-file-url: none; fill: rgb(122,201,218); fill-rule: nonzero; opacity: 1;" transform=" translate(-1799.6106, -1240.1731)" d="M 1955 1586 c -16 -8 -137 -121 -267 -252 c -205 -207 -237 -244 -244 -277 c -20 -111 82 -203 188 -168 c 23 8 107 85 275 254 c 207 207 242 247 248 279 c 22 119 -92 212 -200 164 z" stroke-linecap="round"/>
</g>
		<g transform="matrix(0.1333 0 0 -0.1333 -58.7305 218.6316)">
<path style="stroke: none; stroke-width: 1; stroke-dasharray: none; stroke-linecap: butt; stroke-dashoffset: 0; stroke-linejoin: miter; stroke-miterlimit: 4; is-custom-font: none; font-file-url: none; fill: rgb(122,201,218); fill-rule: nonzero; opacity: 1;" transform=" translate(-2119.6106, -920.1731)" d="M 2275 1266 c -16 -8 -137 -121 -267 -252 c -205 -207 -237 -244 -244 -277 c -20 -111 82 -203 188 -168 c 23 8 107 85 275 254 c 207 207 242 247 248 279 c 22 119 -92 212 -200 164 z" stroke-linecap="round"/>
</g>
		<g transform="matrix(0.1333 0 0 -0.1333 -16.0638 261.2983)">
<path style="stroke: none; stroke-width: 1; stroke-dasharray: none; stroke-linecap: butt; stroke-dashoffset: 0; stroke-linejoin: miter; stroke-miterlimit: 4; is-custom-font: none; font-file-url: none; fill: rgb(122,201,218); fill-rule: nonzero; opacity: 1;" transform=" translate(-2439.6106, -600.1731)" d="M 2595 946 c -16 -8 -137 -121 -267 -252 c -205 -207 -237 -244 -244 -277 c -20 -111 82 -203 188 -168 c 23 8 107 85 275 254 c 207 207 242 247 248 279 c 22 119 -92 212 -200 164 z" stroke-linecap="round"/>
</g>
		<g transform="matrix(0.1333 0 0 -0.1333 39.5737 285.2471)">
<path style="stroke: none; stroke-width: 1; stroke-dasharray: none; stroke-linecap: butt; stroke-dashoffset: 0; stroke-linejoin: miter; stroke-miterlimit: 4; is-custom-font: none; font-file-url: none; fill: rgb(122,201,218); fill-rule: nonzero; opacity: 1;" transform=" translate(-2856.8482, -420.6018)" d="M 2775 500 l -100 -100 l 70 -70 c 76 -77 119 -97 179 -86 c 47 9 103 65 111 110 c 12 62 -3 96 -78 173 c -39 40 -73 73 -76 73 c -4 0 -51 -45 -106 -100 z" stroke-linecap="round"/>
</g>
</g>
</g>
</svg>