<svg xmlns="http://www.w3.org/2000/svg" version="1.1" xmlns:xlink="http://www.w3.org/1999/xlink" width="512" height="512" x="0" y="0" viewBox="0 0 512 512" style="enable-background:new 0 0 512 512" xml:space="preserve" class=""><g><linearGradient id="a"><stop stop-opacity="1" stop-color="#ed2e7c" offset="0"></stop><stop stop-opacity="1" stop-color="#b21f1f" offset="0"></stop></linearGradient><linearGradient xlink:href="#a" id="b" x1="-29.202" x2="454.949" y1="466.844" y2="-17.307" gradientTransform="matrix(1 0 0 -1 0 512)" gradientUnits="userSpaceOnUse"></linearGradient><linearGradient xlink:href="#a" id="c" x1="35.255" x2="519.395" y1="531.29" y2="47.15" gradientTransform="matrix(1 0 0 -1 0 512)" gradientUnits="userSpaceOnUse"></linearGradient><path fill="url(#b)" d="m473.4 287.6-73.5-19.8v-99.1c0-13.1-8.2-25-21.5-31.2L281 92.1 353.2 71c12.2-3.6 19.2-16.4 15.6-28.6-2.2-7.5-8.1-13.4-15.6-15.6L263.5.6c-7.4-2.2-15.2 2.1-17.4 9.5-.4 1.3-.6 2.6-.6 3.9v69.8c0 .9.1 1.8.3 2.7-3.3.7-6.6 1.8-9.7 3.2l-102.6 47.9c-13.2 6.2-21.5 18.1-21.5 31.2v99.1l-73.5 19.8C22.3 292 11 306.8 11 323.7v151c0 20.6 16.7 37.3 37.3 37.3h415.4c20.6 0 37.3-16.7 37.3-37.3v-151c0-16.9-11.3-31.7-27.6-36.1zm-199.8-255 55.5 16.2L273.6 65zM48.3 484c-5.1 0-9.3-4.2-9.3-9.3v-151c0-4.2 2.8-7.9 6.9-9l66.3-17.8V484zm159.4 0v-67.2c-.4-26.7 20.9-48.6 47.6-49s48.6 20.9 49 47.6V484zm124.6 0v-67.2c.5-42.1-33.3-76.7-75.4-77.2s-76.7 33.3-77.2 75.4v69h-39.6V168.8c0-2 2.1-4.4 5.3-5.9L248 115.1c5.1-2.3 10.9-2.3 16 0L366.6 163c3.2 1.5 5.3 3.8 5.3 5.9V484zm140.7-9.3c0 5.2-4.2 9.3-9.3 9.3h-63.8V296.8l66.3 17.8c4.1 1.1 6.9 4.8 6.9 9v151.1z" opacity="1" data-original="url(#b)" class=""></path><path fill="url(#c)" d="M256 155.6c-25.3 0-45.8 20.4-45.9 45.7 0 25.3 20.4 45.8 45.7 45.9 25.3 0 45.8-20.4 45.9-45.7v-.1c0-25.3-20.5-45.8-45.7-45.8zm0 63.5c-9.8.1-17.8-7.9-17.9-17.7s7.9-17.8 17.7-17.9 17.8 7.9 17.9 17.7v.1c0 9.8-7.9 17.8-17.7 17.8z" opacity="1" data-original="url(#c)"></path></g></svg>