<svg xmlns="http://www.w3.org/2000/svg" version="1.1" xmlns:xlink="http://www.w3.org/1999/xlink" width="512" height="512" x="0" y="0" viewBox="0 0 32 32" style="enable-background:new 0 0 512 512" xml:space="preserve" class=""><g><path fill="#b21f1f" d="M25.876 12.65a.9.9 0 0 1-.9-.9V7.313a.9.9 0 0 1 1.8 0v4.437a.9.9 0 0 1-.9.9z" opacity="1" data-original="#f98a17"></path><path fill="#b21f1f" d="M24.868 20.704c-1.392-1.058-3.062-1.827-4.883-2.288 2.309-1.625 3.866-4.605 3.866-8.016 0-.448-.037-.897-.091-1.345l2.498-1.088a1.443 1.443 0 0 0 0-2.646l-9.164-3.992a2.745 2.745 0 0 0-2.187 0L5.743 5.32a1.444 1.444 0 0 0 0 2.647l2.494 1.087c-.053.442-.087.885-.087 1.346 0 3.409 1.555 6.389 3.862 8.014-1.823.46-3.494 1.23-4.883 2.289-1.466 1.115-2.341 2.932-2.341 4.859v2.607a2.733 2.733 0 0 0 2.729 2.73h16.965a2.73 2.73 0 0 0 2.729-2.725v-2.61c.001-1.925-.875-3.743-2.343-4.86zm-8.874 2.407-2.064-3.245a14.916 14.916 0 0 1 2.065-.146c.7 0 1.388.052 2.058.145zm-.369-20.132a.938.938 0 0 1 .749 0l8.414 3.665-8.414 3.665a.938.938 0 0 1-.749 0L7.212 6.644zM9.95 10.4c0-.2.031-.388.043-.582l4.914 2.141a2.741 2.741 0 0 0 2.187 0l4.931-2.148c.012.196.025.391.025.589 0 4.146-2.714 7.52-6.05 7.52s-6.05-3.373-6.05-7.52zM6.588 28.17v-2.607c0-1.369.61-2.65 1.631-3.428 1.096-.834 2.402-1.46 3.831-1.869l3.05 4.794v4.04H7.518a.93.93 0 0 1-.93-.93zm18.823.006c0 .51-.416.924-.929.924H16.9v-4.056l3.032-4.78c1.434.409 2.746 1.036 3.846 1.872 1.022.778 1.633 2.061 1.633 3.429z" opacity="1" data-original="#6621ba" class=""></path></g></svg>