<svg xmlns="http://www.w3.org/2000/svg" version="1.1" xmlns:xlink="http://www.w3.org/1999/xlink" width="512" height="512" x="0" y="0" viewBox="0 0 512 512" style="enable-background:new 0 0 512 512" xml:space="preserve" class=""><g><g fill-rule="evenodd"><path fill="#b21f1f" d="M232.38 421.12 256 454.21l23.62-33.09-18.76-134.8a92.88 92.88 0 0 0-9.73 0zM256 475.98c-2.59 0-5.01-1.25-6.52-3.35l-31.98-44.81a8.064 8.064 0 0 1-1.43-5.75l20.08-144.27c.5-3.59 3.37-6.39 6.99-6.83a108.39 108.39 0 0 1 25.71 0c3.61.44 6.47 3.24 6.97 6.83l20.08 144.27c.28 2.03-.24 4.08-1.43 5.75l-31.97 44.81a8.041 8.041 0 0 1-6.52 3.35z" opacity="1" data-original="#ff695a"></path><g fill="#2e3760"><path d="M402.49 131.57c-21.92 0-39.76 17.83-39.76 39.76s17.84 39.76 39.76 39.76 39.76-17.84 39.76-39.76-17.83-39.76-39.76-39.76zm0 95.52c-30.74 0-55.76-25.02-55.76-55.76s25.02-55.76 55.76-55.76 55.76 25.01 55.76 55.76-25.01 55.76-55.76 55.76z" fill="#b21f1f" opacity="1" data-original="#2e3760" class=""></path><path d="M457.68 509h-98.7c-4.42 0-8-3.58-8-8.01s3.57-8 8-8h90.7v-90.4c0-4.42 3.59-8.01 8-8.01h35.33v-77c0-49.9-40.6-90.5-90.51-90.5-39.01 0-74.51 26.06-86.32 63.38-1.34 4.21-5.84 6.54-10.05 5.21s-6.54-5.83-5.21-10.04c6.69-21.11 20.2-40.08 38.09-53.43 18.52-13.82 40.46-21.12 63.49-21.12 58.73 0 106.51 47.77 106.51 106.5v85.01c0 4.42-3.59 8-8 8h-35.33v90.4a8 8 0 0 1-8 8.01z" fill="#b21f1f" opacity="1" data-original="#2e3760" class=""></path><path d="M457.68 410.59c-4.41 0-8-3.58-8-8v-65.61c0-4.42 3.59-8 8-8s8 3.57 8 8v65.61c0 4.42-3.58 8-8 8zM109.5 131.57c-21.91 0-39.76 17.83-39.76 39.76s17.85 39.76 39.76 39.76 39.77-17.84 39.77-39.76-17.85-39.76-39.77-39.76zm0 95.52c-30.75 0-55.76-25.02-55.76-55.76s25.01-55.76 55.76-55.76 55.77 25.01 55.77 55.76-25.02 55.76-55.77 55.76z" fill="#b21f1f" opacity="1" data-original="#2e3760" class=""></path><path d="M153.03 509H54.32a8 8 0 0 1-8-8.01v-90.4H11c-4.42 0-8-3.58-8-8v-85.01c0-58.72 47.77-106.5 106.5-106.5 23.02 0 44.99 7.3 63.5 21.12 17.88 13.35 31.4 32.32 38.09 53.43 1.33 4.21-1 8.71-5.21 10.04-4.22 1.33-8.71-1-10.06-5.21-11.81-37.32-47.3-63.38-86.32-63.38-49.9 0-90.49 40.6-90.49 90.5v77h35.32a8 8 0 0 1 8 8.01v90.4h90.7c4.42 0 8 3.58 8 8s-3.58 8.01-8 8.01z" fill="#b21f1f" opacity="1" data-original="#2e3760" class=""></path><path d="M54.32 410.59c-4.42 0-8-3.58-8-8v-65.61c0-4.42 3.57-8 8-8s8 3.57 8 8v65.61c0 4.42-3.58 8-8 8zM255.99 270.18h.04c15.08 0 29.1-8.29 39.5-23.36 14.52-21.04 17.35-49.68 6.88-69.62-8.43-16.06-24.48-24.56-46.41-24.56s-37.98 8.49-46.41 24.56c-10.47 19.94-7.64 48.59 6.87 69.62 10.41 15.07 24.43 23.36 39.48 23.36zm.06 16.01h-.12c-20.17 0-39.35-11.03-52.65-30.28-17.75-25.72-20.98-61.15-7.87-86.16 11.2-21.35 32.73-33.11 60.58-33.11s49.37 11.76 60.57 33.11c13.12 25 9.89 60.43-7.87 86.16-13.28 19.25-32.47 30.28-52.65 30.28z" fill="#b21f1f" opacity="1" data-original="#2e3760" class=""></path><path d="M230.31 281.45h.02zm-105.53 67.77c-2.38 43.34-1.26 83.39.16 116.86.63 15.1 12.97 26.91 28.08 26.91h205.95c15.11 0 27.45-11.82 28.09-26.91 1.41-33.47 2.53-73.52.15-116.86-1.64-21.18-5.82-27.05-17.51-33.9-10.68-6.26-32.07-11.73-46.23-15.35l-43.71-10.75c-16.56-4.08-30.98-4.08-47.55 0l-43.78 10.76c-14.08 3.61-35.47 9.08-46.15 15.33-11.69 6.85-15.87 12.72-17.51 33.9zM358.97 509H153.02c-23.71 0-43.07-18.57-44.07-42.26-1.43-33.87-2.56-74.44-.14-118.48v-.19c1.93-25.12 8.1-36.43 25.37-46.56 11.66-6.84 30.47-11.97 50.35-17.06l43.85-10.78c19.09-4.7 36.1-4.7 55.19 0l43.78 10.77c19.95 5.1 38.75 10.23 50.42 17.07 17.28 10.13 23.45 21.44 25.38 46.56v.19c2.42 44.05 1.29 84.62-.14 118.48-1 23.69-20.36 42.26-44.07 42.26z" fill="#b21f1f" opacity="1" data-original="#2e3760" class=""></path><path d="M171.29 504.87c-4.42 0-8-3.58-8-8V389.7c0-4.42 3.57-8 8-8s8 3.58 8 8v107.17c0 4.42-3.58 8-8 8zm169.43 0c-4.42 0-8-3.58-8-8V389.7c0-4.42 3.58-8 8-8s8 3.58 8 8v107.17c0 4.42-3.58 8-8 8z" fill="#b21f1f" opacity="1" data-original="#2e3760" class=""></path></g><path fill="#b21f1f" d="m206.12 59.45 22.46 21.06c2 1.88 2.9 4.65 2.38 7.34l-5.79 30.23 26.97-14.85a7.948 7.948 0 0 1 7.71 0l26.97 14.85-5.79-30.23c-.51-2.69.39-5.46 2.39-7.34l22.45-21.06-30.54-3.83a8.078 8.078 0 0 1-6.25-4.55L256 23.22l-13.09 27.85a8.062 8.062 0 0 1-6.25 4.55zm85.02 77.47c-2.12 0-4.25-.54-6.22-1.62l-28.93-15.92-28.92 15.92c-4.42 2.44-9.7 2.11-13.79-.86-4.08-2.96-6.03-7.88-5.08-12.84l6.22-32.43-24.09-22.59c-3.68-3.45-4.98-8.58-3.44-13.37 1.56-4.8 5.64-8.17 10.64-8.8l32.77-4.12 14.04-29.89c2.14-4.56 6.61-7.4 11.65-7.4s9.51 2.84 11.65 7.4l14.04 29.89 32.77 4.12c5 .63 9.08 4 10.64 8.79 1.56 4.8.24 9.93-3.44 13.38l-24.09 22.59 6.21 32.43c.95 4.95-1 9.87-5.08 12.84a12.754 12.754 0 0 1-7.55 2.48zM104.65 42.97zm4.85 40.79c1.34 0 2.67.33 3.87.99l7.74 4.26-1.66-8.69c-.51-2.69.39-5.45 2.39-7.33l6.45-6.05-8.79-1.09a7.998 7.998 0 0 1-6.24-4.55l-3.76-8-3.75 8c-1.18 2.49-3.53 4.21-6.24 4.55l-8.79 1.09 6.45 6.05c2 1.88 2.9 4.64 2.39 7.33l-1.67 8.69 7.75-4.26c1.2-.66 2.53-.99 3.86-.99zm19.04 26.1c-1.76 0-3.53-.44-5.15-1.34l-13.88-7.63-13.87 7.63c-3.66 2.02-8.02 1.74-11.39-.7-3.36-2.46-4.98-6.52-4.18-10.62l2.97-15.56L71.48 70.8c-3.02-2.85-4.12-7.09-2.84-11.05 1.29-3.97 4.66-6.75 8.8-7.27l15.71-1.98 6.74-14.34c1.77-3.78 5.46-6.12 9.63-6.12s7.86 2.34 9.64 6.12l6.73 14.34 15.72 1.98c4.14.52 7.51 3.3 8.79 7.27 1.29 3.96.19 8.2-2.84 11.05L136 81.64l2.97 15.56c.79 4.1-.82 8.16-4.18 10.62a10.648 10.648 0 0 1-6.24 2.04zM383.73 66.93l6.45 6.05c2 1.88 2.9 4.64 2.37 7.33L390.89 89l7.74-4.26a8.02 8.02 0 0 1 7.72 0L414.1 89l-1.66-8.69c-.51-2.69.39-5.45 2.39-7.33l6.44-6.05-8.77-1.09a7.998 7.998 0 0 1-6.25-4.55l-3.76-8-3.76 8a7.982 7.982 0 0 1-6.24 4.55l-8.77 1.09zm37.8 42.93c-1.75 0-3.52-.44-5.14-1.34l-13.89-7.63-13.88 7.63c-3.65 2.02-8.02 1.74-11.39-.7-3.37-2.46-4.98-6.52-4.19-10.62l2.97-15.56-11.56-10.84c-3.04-2.85-4.13-7.09-2.84-11.05 1.29-3.97 4.66-6.75 8.79-7.27l15.72-1.98 6.74-14.34c1.77-3.78 5.46-6.12 9.63-6.12s7.86 2.34 9.63 6.12l6.74 14.34 15.73 1.98c4.13.52 7.5 3.3 8.79 7.27 1.3 3.96.2 8.2-2.84 11.05l-11.57 10.84 2.98 15.56c.78 4.1-.83 8.16-4.2 10.62a10.648 10.648 0 0 1-6.24 2.04z" opacity="1" data-original="#ff695a"></path></g></g></svg>