<svg xmlns="http://www.w3.org/2000/svg" version="1.1" xmlns:xlink="http://www.w3.org/1999/xlink" width="512" height="512" x="0" y="0" viewBox="0 0 32 32" style="enable-background:new 0 0 512 512" xml:space="preserve" class=""><g><path fill="#b21f1f" d="M28.338 14.984a.9.9 0 0 0-.804.987c.027.26.036.52.036.788 0 1.768-.38 3.447-1.053 4.97a41.875 41.875 0 0 0-5.11-1.083 32.48 32.48 0 0 0 .181-5.675.912.912 0 0 0-.947-.851.9.9 0 0 0-.851.947 30.325 30.325 0 0 1-.173 5.383 43.368 43.368 0 0 0-8.765 0 30.118 30.118 0 0 1-.223-3.691c0-1.301.081-2.529.221-3.672 1.456.15 2.918.252 4.389.252 1.128 0 2.222-.042 3.251-.123a.9.9 0 0 0-.142-1.794c-.981.078-2.027.117-3.108.117-1.376 0-2.744-.094-4.105-.231.824-4.218 2.527-6.878 4.105-6.878.67 0 1.314.05 1.914.148a.9.9 0 0 0 .291-1.777 13.806 13.806 0 0 0-2.205-.171C7.443 2.63 1.1 8.968 1.1 16.76c0 7.797 6.343 14.14 14.14 14.14 7.792 0 14.13-6.343 14.13-14.14a9.74 9.74 0 0 0-.044-.972.905.905 0 0 0-.988-.804zm-9.004 7.246c-.823 4.214-2.521 6.87-4.093 6.87-1.576 0-3.278-2.656-4.103-6.871a41.644 41.644 0 0 1 8.196.001zM11.606 4.977c-1.013 1.484-1.805 3.599-2.279 6.132a40.531 40.531 0 0 1-4.497-.943 12.388 12.388 0 0 1 6.776-5.189zm-7.654 6.821c1.681.463 3.384.839 5.109 1.091a32.434 32.434 0 0 0 .002 7.758 41.857 41.857 0 0 0-5.109 1.082 12.236 12.236 0 0 1-.002-9.931zm.88 11.563a40.237 40.237 0 0 1 4.498-.935c.475 2.53 1.265 4.644 2.277 6.126a12.379 12.379 0 0 1-6.775-5.191zm14.035 5.193c1.011-1.482 1.8-3.596 2.274-6.127 1.521.219 3.019.546 4.498.935a12.375 12.375 0 0 1-6.772 5.192z" opacity="1" data-original="#6621ba"></path><g fill="#f98a17"><path d="M22.817 13.455a3.29 3.29 0 0 0 2.247.879c.808 0 1.617-.293 2.247-.879C28.949 11.931 30.9 9.575 30.9 7c0-3.253-2.618-5.9-5.835-5.9S19.229 3.747 19.229 7c0 2.576 1.952 4.932 3.588 6.455zM25.064 2.9C27.29 2.9 29.1 4.739 29.1 7c0 2.028-1.889 4.089-3.015 5.137a1.505 1.505 0 0 1-2.041 0C22.918 11.089 21.029 9.029 21.029 7c0-2.261 1.81-4.1 4.035-4.1z" fill="#b21f1f" opacity="1" data-original="#f98a17" class=""></path><path d="M25.064 7.87a.9.9 0 0 0 .9-.9v-.074c0-.497-.403-.863-.9-.863s-.9.44-.9.937.403.9.9.9z" fill="#b21f1f" opacity="1" data-original="#f98a17" class=""></path></g></g></svg>